<?xml version="1.0" standalone="no"?>
<!DOCTYPE svg PUBLIC "-//W3C//DTD SVG 20010904//EN"
 "http://www.w3.org/TR/2001/REC-SVG-20010904/DTD/svg10.dtd">
<svg version="1.0" xmlns="http://www.w3.org/2000/svg"
 width="700.000000pt" height="700.000000pt" viewBox="0 0 700.000000 700.000000"
 preserveAspectRatio="xMidYMid meet">
<metadata>
Created by potrace 1.11, written by Peter Selinger 2001-2013
</metadata>
<g transform="translate(0.000000,700.000000) scale(0.100000,-0.100000)"
fill="#000000" stroke="none">
<path d="M0 3500 l0 -3500 3500 0 3500 0 0 3500 0 3500 -3500 0 -3500 0 0
-3500z m3648 3423 c-21 -2 -55 -2 -75 0 -21 2 -4 4 37 4 41 0 58 -2 38 -4z
m69 1 c-3 -3 -12 -4 -19 -1 -8 3 -5 6 6 6 11 1 17 -2 13 -5z m80 -10 c-3 -3
-12 -4 -19 -1 -8 3 -5 6 6 6 11 1 17 -2 13 -5z m101 -11 c-10 -2 -26 -2 -35 0
-10 3 -2 5 17 5 19 0 27 -2 18 -5z m111 -7 c-2 -2 -17 -6 -34 -10 -22 -5 -26
-4 -15 4 14 9 59 15 49 6z m-879 -16 c0 -5 -2 -10 -4 -10 -3 0 -8 5 -11 10 -3
6 -1 10 4 10 6 0 11 -4 11 -10z m1047 -16 c-3 -3 -12 -4 -19 -1 -8 3 -5 6 6 6
11 1 17 -2 13 -5z m50 -10 c-3 -3 -12 -4 -19 -1 -8 3 -5 6 6 6 11 1 17 -2 13
-5z m-1472 -14 c4 -6 12 -7 18 -4 7 4 8 3 4 -1 -11 -13 -68 -15 -87 -4 -11 7
-7 8 13 3 17 -4 27 -2 27 5 0 14 17 14 25 1z m1515 6 c0 -3 -4 -8 -10 -11 -5
-3 -10 -1 -10 4 0 6 5 11 10 11 6 0 10 -2 10 -4z m-1406 -17 c3 -3 -5 -5 -19
-5 -13 0 -22 3 -19 7 4 8 30 6 38 -2z m1346 4 c0 -5 -18 -8 -41 -9 -22 -1 -36
2 -30 5 15 10 71 12 71 4z m90 -3 c0 -5 -2 -10 -4 -10 -3 0 -8 5 -11 10 -3 6
-1 10 4 10 6 0 11 -4 11 -10z m-1741 -34 c-2 -2 -17 -6 -34 -10 -22 -5 -26 -4
-15 4 14 9 59 15 49 6z m95 -24 c3 -5 -1 -9 -9 -9 -8 0 -12 4 -9 9 3 4 7 8 9
8 2 0 6 -4 9 -8z m-189 -12 c3 -6 -1 -7 -9 -4 -18 7 -21 14 -7 14 6 0 13 -4
16 -10z m2110 0 c13 -6 15 -9 5 -9 -8 0 -22 4 -30 9 -18 12 -2 12 25 0z m95
-32 c10 -6 7 -7 -10 -2 -14 3 -32 11 -40 16 -10 6 -7 7 10 2 14 -3 32 -11 40
-16z m-2315 2 c-27 -12 -43 -12 -25 0 8 5 22 9 30 9 10 0 8 -3 -5 -9z m-55
-20 c-8 -5 -19 -10 -25 -10 -5 0 -3 5 5 10 8 5 20 10 25 10 6 0 3 -5 -5 -10z
m2420 0 c8 -5 11 -10 5 -10 -5 0 -17 5 -25 10 -8 5 -10 10 -5 10 6 0 17 -5 25
-10z m-2457 -17 c3 -5 -6 -9 -20 -10 -19 -1 -22 1 -12 8 17 11 26 11 32 2z
m2507 -3 c8 -5 11 -10 5 -10 -5 0 -17 5 -25 10 -8 5 -10 10 -5 10 6 0 17 -5
25 -10z m-2570 -20 c-8 -5 -19 -10 -25 -10 -5 0 -3 5 5 10 8 5 20 10 25 10 6
0 3 -5 -5 -10z m-68 -27 c-6 -2 -10 -9 -7 -13 3 -5 0 -12 -6 -16 -8 -4 -9 -3
-5 4 4 7 1 12 -6 12 -9 0 -9 3 2 10 8 5 20 9 25 9 6 0 4 -3 -3 -6z m2757 -2
c10 -7 7 -9 -12 -8 -14 1 -23 5 -20 10 6 9 15 9 32 -2z m-1081 -27 c23 -4 42
-10 42 -15 0 -5 -15 -6 -32 -3 l-33 6 25 -18 c14 -11 27 -18 30 -17 3 0 13
-10 24 -24 13 -17 0 -11 -44 21 -44 32 -72 46 -94 46 l-31 -1 30 -14 c32 -16
35 -16 -55 7 -19 5 -41 10 -47 10 -7 1 -13 6 -13 11 0 5 7 6 15 3 8 -3 22 -9
30 -12 8 -4 15 -1 15 6 0 9 4 9 13 2 9 -8 20 -7 37 2 14 7 30 9 35 5 6 -5 30
-11 53 -15z m-318 6 c0 -6 -21 -10 -47 -9 -28 0 -41 3 -31 7 28 11 78 12 78 2z
m105 -1 c3 -3 -17 -6 -45 -5 -27 1 -50 4 -50 8 0 9 86 5 95 -3z m-1526 -3
c-10 -9 -109 -56 -109 -51 0 6 91 54 104 55 5 0 7 -2 5 -4z m1321 1 c-8 -8
-120 -15 -120 -8 0 3 28 8 62 9 34 2 60 1 58 -1z m610 -3 c0 -8 -19 -13 -24
-6 -3 5 1 9 9 9 8 0 15 -2 15 -3z m990 -20 c25 -13 34 -22 21 -18 -28 7 -92
44 -76 44 6 -1 30 -12 55 -26z m-1842 1 c-2 -2 -23 -6 -48 -9 -25 -3 -65 -9
-90 -12 -76 -11 -37 6 46 20 69 11 103 11 92 1z m47 5 c-27 -12 -35 -12 -35 0
0 6 12 10 28 9 24 0 25 -1 7 -9z m705 -6 c0 -2 -9 -4 -20 -4 -11 0 -20 4 -20
9 0 5 9 7 20 4 11 -3 20 -7 20 -9z m54 -1 c-5 -5 -11 -12 -15 -16 -3 -4 -12
-1 -19 8 -11 13 -9 15 15 15 16 0 24 -3 19 -7z m-420 -14 c3 -3 -17 -5 -44 -4
-27 0 -52 3 -54 6 -3 3 16 5 43 5 27 -1 52 -4 55 -7z m496 1 c19 -6 52 -11 73
-12 20 -1 37 -5 37 -10 0 -5 12 -6 28 -3 15 3 21 2 14 -1 -10 -5 -9 -9 5 -20
13 -10 8 -10 -21 2 -22 8 -72 21 -111 28 l-73 13 -112 -114 c-62 -62 -118
-116 -124 -120 -6 -3 17 23 52 58 34 36 62 68 62 73 0 5 -9 1 -21 -10 l-21
-19 18 32 c10 17 22 29 26 27 5 -3 6 -10 3 -15 -16 -26 12 -3 58 46 55 60 55
60 107 45z m-1080 -9 c-18 -11 -123 -31 -115 -22 4 3 30 11 58 17 66 15 76 16
57 5z m835 -9 c-3 -3 -11 0 -18 7 -9 10 -8 11 6 5 10 -3 15 -9 12 -12z m1179
10 c3 -5 -1 -9 -9 -9 -8 0 -12 4 -9 9 3 4 7 8 9 8 2 0 6 -4 9 -8z m-2907 -8
c-3 -3 -12 -4 -19 -1 -8 3 -5 6 6 6 11 1 17 -2 13 -5z m1764 -21 c13 -16 12
-17 -3 -4 -10 7 -18 15 -18 17 0 8 8 3 21 -13z m87 -3 c-7 -10 -14 -17 -17
-15 -4 4 18 35 25 35 2 0 -1 -9 -8 -20z m426 -31 c10 -9 -46 5 -63 15 -5 4
-12 3 -15 -2 -6 -10 64 -78 76 -74 4 1 7 -1 6 -5 -5 -14 53 -64 65 -57 8 5 8
2 -1 -7 -10 -11 -26 0 -92 66 -43 43 -77 82 -74 87 3 4 -4 8 -15 8 -12 0 -21
4 -21 9 0 10 118 -25 134 -40z m786 15 c0 -2 -13 2 -30 11 -16 9 -30 18 -30
21 0 2 14 -2 30 -11 17 -9 30 -18 30 -21z m-3215 6 c-3 -5 -12 -10 -18 -10 -7
0 -6 4 3 10 19 12 23 12 15 0z m881 3 c-2 -3 -8 -5 -13 -5 -4 0 -17 -4 -28
-10 -18 -8 -18 -8 -3 5 15 12 55 21 44 10z m2238 -19 c3 -8 2 -12 -4 -9 -6 3
-10 10 -10 16 0 14 7 11 14 -7z m-2346 -25 c-6 -16 -12 -28 -14 -26 -5 5 13
57 20 57 3 0 0 -14 -6 -31z m-832 12 c-3 -4 -19 -14 -36 -21 -16 -7 -28 -16
-25 -19 2 -4 -1 -8 -8 -8 -22 0 -129 -71 -115 -76 7 -3 3 -4 -10 -4 -30 2 -18
12 97 81 98 58 106 62 97 47z m814 1 c0 -8 -106 -43 -135 -46 -5 -1 -12 -3
-15 -6 -3 -3 -32 -15 -65 -27 -33 -11 -77 -28 -97 -37 -21 -9 -38 -12 -38 -8
0 16 257 114 307 117 6 0 15 4 19 8 10 10 24 9 24 -1z m167 -54 c-2 -13 -4 -3
-4 22 0 25 2 35 4 23 2 -13 2 -33 0 -45z m1621 37 c34 -10 62 -22 62 -26 0 -5
6 -6 14 -3 26 10 27 -14 1 -42 -14 -15 -25 -22 -25 -15 0 6 6 14 14 17 22 8
28 33 8 33 -29 0 -172 45 -172 55 0 4 8 6 18 3 9 -2 45 -13 80 -22z m-2553 5
c3 -6 -1 -7 -9 -4 -18 7 -21 14 -7 14 6 0 13 -4 16 -10z m3360 -43 c7 -7 5 -7
-4 -2 -8 4 -17 2 -23 -6 -8 -11 -9 -10 -4 4 3 9 2 17 -2 17 -4 0 -18 10 -32
21 -23 19 -21 19 15 -2 22 -12 45 -27 50 -32z m-2564 16 c-12 -20 -14 -14 -5
12 4 9 9 14 11 11 3 -2 0 -13 -6 -23z m1512 2 c-16 -22 -33 -32 -33 -20 0 5
42 45 47 45 2 0 -4 -11 -14 -25z m126 -62 c19 -18 31 -33 26 -33 -12 1 -50 35
-85 76 l-25 29 24 -20 c14 -11 41 -35 60 -52z m-1684 10 c-9 -20 -20 -42 -26
-50 -9 -10 -8 -13 1 -13 10 0 10 -3 0 -15 -7 -8 -9 -15 -6 -15 4 0 4 -5 1 -10
-5 -8 -11 -7 -21 1 -12 10 -23 5 -57 -27 -23 -21 -43 -42 -45 -46 -2 -5 -8 -8
-14 -8 -5 0 22 31 60 69 39 38 80 88 92 110 26 51 36 54 15 4z m1565 24 c0 -1
-28 -29 -62 -62 l-63 -60 60 63 c55 58 65 67 65 59z m517 -60 c40 -17 72 -37
73 -42 0 -6 -21 -31 -47 -55 -47 -45 -48 -45 -13 -5 19 22 38 41 43 43 18 9 1
22 -70 52 -117 49 -133 52 -162 33 l-26 -16 23 26 c23 25 25 25 65 11 23 -8
74 -29 114 -47z m-2062 23 c-9 -16 -18 -30 -21 -30 -2 0 2 14 11 30 9 17 18
30 21 30 2 0 -2 -13 -11 -30z m1477 0 c-16 -16 -33 -30 -37 -30 -5 0 4 14 20
30 16 17 32 30 37 30 4 0 -5 -13 -20 -30z m1237 -23 c51 -30 191 -139 191
-149 0 -4 -4 -8 -10 -8 -5 0 -9 4 -7 9 3 14 -104 91 -117 84 -6 -3 -8 -2 -3 2
9 11 -103 86 -117 78 -6 -3 -8 -3 -4 2 4 4 0 15 -10 23 -9 8 -4 6 12 -3 16
-10 45 -27 65 -38z m-1589 40 c0 -2 -10 -12 -22 -23 l-23 -19 19 23 c18 21 26
27 26 19z m-903 -13 c-3 -3 -12 -4 -19 -1 -8 3 -5 6 6 6 11 1 17 -2 13 -5z
m346 -11 c-7 -2 -21 -2 -30 0 -10 3 -4 5 12 5 17 0 24 -2 18 -5z m50 0 c-7 -2
-19 -2 -25 0 -7 3 -2 5 12 5 14 0 19 -2 13 -5z m264 -10 c-20 -2 -52 -2 -70 0
-17 2 0 4 38 4 39 0 53 -2 32 -4z m943 2 c0 -1 -13 -14 -29 -29 -22 -21 -31
-25 -37 -14 -4 7 -4 10 0 6 9 -7 47 22 41 32 -2 4 2 7 10 7 8 0 15 -1 15 -2z
m-802 -21 c15 -11 22 -12 22 -3 0 7 3 10 6 6 3 -3 3 -11 -1 -17 -5 -8 -10 -8
-20 0 -8 6 -26 15 -42 20 -21 6 -23 8 -8 9 11 1 31 -6 43 -15z m832 13 c0 -2
-14 -16 -32 -33 l-31 -29 22 33 c18 26 41 42 41 29z m-2894 -19 c4 -6 3 -8 -3
-5 -5 3 -20 -1 -32 -10 -19 -12 -20 -17 -10 -25 10 -7 9 -8 -5 -4 -10 4 -29
-1 -42 -9 -13 -9 -24 -13 -24 -11 0 4 101 75 107 76 1 0 5 -5 9 -12z m1761 6
c-3 -3 -12 -4 -19 -1 -8 3 -5 6 6 6 11 1 17 -2 13 -5z m60 0 c-3 -3 -12 -4
-19 -1 -8 3 -5 6 6 6 11 1 17 -2 13 -5z m193 -10 c0 -2 -19 -4 -42 -4 -26 0
-38 4 -30 8 12 8 72 4 72 -4z m-1422 -15 c-21 -11 -38 -27 -39 -37 0 -10 -3
-12 -6 -5 -3 9 -23 3 -66 -19 -34 -18 -65 -31 -69 -30 -3 1 -12 -5 -18 -13
-14 -17 -30 -20 -30 -6 0 10 84 56 210 114 50 22 62 20 18 -4z m1750 -117
c-63 -65 -121 -134 -131 -153 -9 -19 -17 -27 -16 -19 0 8 13 33 30 55 35 46
216 235 225 235 4 0 -45 -53 -108 -118z m878 103 c16 -13 16 -14 1 -9 -13 5
-16 2 -11 -10 3 -9 9 -16 13 -16 4 0 26 -23 49 -51 30 -37 42 -60 41 -83 l-1
-31 -10 35 c-5 19 -32 61 -59 92 -28 32 -48 62 -45 67 4 5 0 12 -6 14 -7 3 -8
6 -2 6 5 1 19 -6 30 -14z m-1186 -38 l-34 -32 30 36 c16 20 31 34 33 32 3 -2
-10 -18 -29 -36z m745 13 c-3 -4 -42 -40 -87 -80 l-83 -72 83 78 c71 67 81 81
70 94 -11 12 -11 12 4 1 10 -7 16 -17 13 -21z m-2198 -24 c-12 -18 -24 -29
-25 -24 -2 5 -11 3 -20 -3 -10 -7 -1 4 18 23 45 46 55 47 27 4z m2717 14 c25
-12 46 -25 46 -30 0 -6 -2 -10 -4 -10 -7 0 -96 52 -96 56 0 7 5 5 54 -16z
m-1214 6 c0 -3 -4 -8 -10 -11 -5 -3 -10 -1 -10 4 0 6 5 11 10 11 6 0 10 -2 10
-4z m642 -79 l-82 -83 21 -24 c12 -14 47 -52 78 -85 53 -57 52 -57 -17 10 -40
39 -77 77 -82 86 -7 13 9 34 73 98 45 44 84 81 87 81 2 0 -33 -37 -78 -83z
m-2852 69 c0 -2 -8 -10 -17 -17 -16 -13 -17 -12 -4 4 13 16 21 21 21 13z m636
-39 c-31 -40 -34 -57 -6 -32 17 16 16 10 -6 -30 -24 -42 -28 -62 -31 -154 -6
-140 -11 -151 -12 -25 -1 67 4 116 14 144 19 53 19 60 0 36 -9 -12 -15 -14
-15 -7 0 12 15 35 58 87 28 35 26 18 -2 -19z m601 -111 c68 -66 121 -121 119
-123 -2 -3 -33 24 -68 59 -36 35 -99 96 -141 137 -43 40 -77 76 -77 79 0 8 34
-23 167 -152z m-72 104 c27 -27 47 -50 44 -50 -3 0 -27 23 -54 50 -27 28 -47
50 -44 50 3 0 27 -22 54 -50z m1500 -42 c50 -51 73 -77 52 -58 -22 19 -62 59
-90 87 -48 49 -78 69 -61 41 4 -7 3 -8 -5 -4 -11 7 -6 26 7 26 4 0 48 -42 97
-92z m-475 67 c0 -2 -10 -9 -22 -15 -22 -11 -22 -10 -4 4 21 17 26 19 26 11z
m-607 -12 c-13 -2 -33 -2 -45 0 -13 2 -3 4 22 4 25 0 35 -2 23 -4z m60 0 c-7
-2 -19 -2 -25 0 -7 3 -2 5 12 5 14 0 19 -2 13 -5z m240 0 c-40 -2 -107 -2
-150 0 -43 1 -10 3 72 3 83 0 118 -2 78 -3z m1475 -13 c7 -11 11 -20 9 -20 -2
0 -12 9 -22 20 -10 11 -14 20 -9 20 5 0 15 -9 22 -20z m-3408 6 c0 -2 -17 -16
-37 -31 l-38 -26 35 30 c34 31 40 35 40 27z m40 -2 c0 -8 -19 -13 -24 -6 -3 5
1 9 9 9 8 0 15 -2 15 -3z m1457 0 c-3 -3 -12 -4 -19 -1 -8 3 -5 6 6 6 11 1 17
-2 13 -5z m683 2 c0 -2 -8 -10 -17 -17 -16 -13 -17 -12 -4 4 13 16 21 21 21
13z m1385 -7 c11 -17 0 -20 -21 -4 -17 13 -17 14 -2 15 9 0 20 -5 23 -11z
m-2120 -7 c-34 -29 -85 -62 -85 -55 0 4 19 20 43 35 41 27 61 36 42 20z m413
1 c-10 -2 -28 -2 -40 0 -13 2 -5 4 17 4 22 1 32 -1 23 -4z m119 -80 c-2 -16
-4 -3 -4 27 0 30 2 43 4 28 2 -16 2 -40 0 -55z m1273 74 c0 -1 -57 -58 -127
-127 -73 -72 -98 -93 -59 -50 81 88 186 188 186 177z m370 -27 c0 -15 -5 -12
-26 11 -19 22 -19 22 4 10 12 -6 22 -16 22 -21z m531 13 c13 -16 12 -17 -3 -4
-10 7 -18 15 -18 17 0 8 8 3 21 -13z m-3166 -33 c-53 -54 -40 -60 15 -7 38 37
41 38 21 10 -12 -18 -29 -37 -38 -42 -14 -8 -13 -14 14 -47 17 -22 62 -69 100
-105 38 -37 75 -75 83 -85 7 -11 -32 26 -88 81 -101 99 -142 123 -59 35 32
-34 34 -38 7 -14 -19 18 -51 46 -70 63 -32 29 -36 30 -47 14 -14 -19 -18 -6
-4 16 9 14 51 7 51 -10 0 -5 5 -9 12 -9 6 0 1 11 -12 25 -13 14 -30 25 -38 25
-17 0 27 59 44 59 6 1 17 8 24 16 7 8 15 15 18 15 3 0 -11 -18 -33 -40z m1549
25 c-4 -8 -11 -15 -16 -15 -6 0 -5 6 2 15 7 8 14 15 16 15 2 0 1 -7 -2 -15z
m-371 -31 c-10 -19 -19 -31 -21 -24 -4 10 24 60 33 60 3 0 -3 -16 -12 -36z
m1297 -8 c0 -6 -7 -1 -15 10 -8 10 -15 23 -15 28 0 6 7 1 15 -10 8 -10 15 -23
15 -28z m-2970 25 c0 -5 -25 -23 -55 -39 -30 -17 -55 -26 -55 -21 0 9 56 41
66 37 3 -2 10 5 15 15 11 18 29 23 29 8z m3705 -11 c10 -11 16 -20 13 -20 -3
0 -13 9 -23 20 -10 11 -16 20 -13 20 3 0 13 -9 23 -20z m-4275 7 c0 -2 -10
-12 -22 -23 l-23 -19 19 23 c18 21 26 27 26 19z m587 -34 c-3 -10 -5 -4 -5 12
0 17 2 24 5 18 2 -7 2 -21 0 -30z m3253 -32 c19 -14 37 -28 40 -32 3 -3 15 -9
27 -13 12 -4 36 -20 52 -35 17 -16 33 -26 37 -22 4 3 4 1 1 -5 -4 -6 5 -16 18
-22 14 -7 25 -16 25 -22 0 -6 -16 0 -35 12 -19 13 -35 28 -35 35 0 6 -9 15
-20 18 -11 3 -20 12 -21 18 -1 7 -5 1 -9 -13 -7 -22 -8 -23 -9 -4 -1 15 -26
38 -91 80 -49 33 -90 63 -90 67 0 9 55 -21 110 -62z m-2420 34 c-20 -24 -3
-31 22 -9 23 19 23 19 6 -2 -21 -25 -22 -28 -5 -46 38 -42 47 -58 13 -28 -49
46 -61 67 -45 86 6 8 14 14 16 14 3 0 0 -7 -7 -15z m771 -81 l-8 -69 -2 55 c0
30 2 66 6 80 11 42 14 7 4 -66z m379 82 c0 -2 -8 -10 -17 -17 -16 -13 -17 -12
-4 4 13 16 21 21 21 13z m1145 -6 c4 -6 1 -9 -7 -8 -7 2 -12 -5 -12 -14 1 -10
-2 -18 -7 -18 -14 0 -11 38 4 43 6 3 13 6 14 6 1 1 5 -4 8 -9z m668 -64 c2 2
14 -8 28 -24 l24 -27 -26 23 c-14 12 -28 20 -31 17 -3 -3 -13 6 -22 20 -10 15
-22 23 -29 19 -7 -4 -9 -3 -4 1 4 5 0 18 -10 29 -9 12 2 2 25 -20 22 -23 43
-40 45 -38z m-4436 43 c1 -13 -3 -19 -11 -16 -8 3 -20 0 -27 -6 -8 -7 -3 0 10
16 14 15 25 27 26 27 0 0 1 -9 2 -21z m497 -13 c-3 -7 -17 -19 -32 -27 -14 -8
-34 -22 -44 -31 -10 -10 -23 -18 -29 -18 -11 0 20 27 76 68 36 26 36 26 29 8z
m1773 -8 c-3 -8 -6 -5 -6 6 -1 11 2 17 5 13 3 -3 4 -12 1 -19z m1082 -73 c0
-11 -8 5 -19 35 -11 30 -19 57 -19 60 1 14 38 -78 38 -95z m-775 67 c3 -5 -1
-9 -9 -9 -8 0 -12 4 -9 9 3 4 7 8 9 8 2 0 6 -4 9 -8z m116 -87 c52 -52 92 -95
90 -95 -3 0 -48 43 -100 95 -52 52 -92 95 -90 95 3 0 48 -43 100 -95z m597 62
c-12 -5 -33 -18 -47 -30 -14 -12 -7 -3 14 21 28 29 42 38 48 29 4 -7 -1 -15
-15 -20z m340 -4 c-3 -10 -5 -4 -5 12 0 17 2 24 5 18 2 -7 2 -21 0 -30z
m-2990 5 c-3 -8 -6 -5 -6 6 -1 11 2 17 5 13 3 -3 4 -12 1 -19z m100 -10 c-3
-7 -5 -2 -5 12 0 14 2 19 5 13 2 -7 2 -19 0 -25z m1370 10 c-3 -8 -6 -5 -6 6
-1 11 2 17 5 13 3 -3 4 -12 1 -19z m1630 -115 c-2 -27 -3 -5 -3 47 0 52 1 74
3 48 2 -27 2 -69 0 -95z m-3825 105 c-9 -9 -9 -15 1 -27 10 -14 10 -14 -5 -3
-14 11 -30 0 -123 -92 -74 -72 -105 -108 -100 -118 5 -7 4 -10 0 -5 -12 10
-46 -23 -38 -37 3 -6 2 -8 -2 -3 -5 4 -18 -1 -29 -10 -11 -10 7 13 39 51 58
67 253 256 264 256 3 0 0 -5 -7 -12z m2736 -43 c28 -30 48 -55 43 -55 -5 0
-30 25 -56 55 -25 30 -45 55 -42 55 2 0 27 -25 55 -55z m-1631 13 c-3 -7 -5
-2 -5 12 0 14 2 19 5 13 2 -7 2 -19 0 -25z m2300 10 c-3 -8 -6 -5 -6 6 -1 11
2 17 5 13 3 -3 4 -12 1 -19z m-2680 -20 c-3 -7 -5 -2 -5 12 0 14 2 19 5 13 2
-7 2 -19 0 -25z m400 -30 c-2 -13 -4 -3 -4 22 0 25 2 35 4 23 2 -13 2 -33 0
-45z m1971 27 c-3 -3 -9 2 -12 12 -6 14 -5 15 5 6 7 -7 10 -15 7 -18z m-751
-67 c-2 -18 -4 -6 -4 27 0 33 2 48 4 33 2 -15 2 -42 0 -60z m1350 60 c-3 -8
-6 -5 -6 6 -1 11 2 17 5 13 3 -3 4 -12 1 -19z m-2012 -28 c21 -22 37 -40 34
-40 -3 0 -23 18 -44 40 -21 22 -37 40 -34 40 3 0 23 -18 44 -40z m2032 3 c-3
-10 -5 -4 -5 12 0 17 2 24 5 18 2 -7 2 -21 0 -30z m-3257 16 c0 -5 -4 -8 -9
-4 -9 5 -157 -106 -204 -152 -10 -10 -24 -18 -30 -18 -7 -1 -11 -6 -10 -13 2
-7 -1 -12 -5 -12 -4 0 -44 -36 -89 -80 -44 -44 -85 -80 -91 -80 -18 0 -6 33
14 36 10 2 24 11 31 20 7 10 13 15 13 12 0 -3 18 11 40 31 22 20 40 42 40 48
0 14 58 59 71 56 4 -2 11 6 14 17 4 11 18 26 33 34 15 8 37 22 49 33 53 45 62
51 66 46 3 -2 10 5 17 16 11 22 50 29 50 10z m267 -21 c-3 -8 -6 -5 -6 6 -1
11 2 17 5 13 3 -3 4 -12 1 -19z m1881 -8 c-1 -16 -6 -30 -11 -30 -5 0 -6 7 -3
16 3 9 6 22 6 30 0 8 2 14 5 14 3 0 4 -13 3 -30z m1449 8 c-3 -8 -6 -5 -6 6
-1 11 2 17 5 13 3 -3 4 -12 1 -19z m-2960 -50 c-2 -13 -4 -3 -4 22 0 25 2 35
4 23 2 -13 2 -33 0 -45z m572 28 c-3 -3 -11 5 -18 17 -13 21 -12 21 5 5 10
-10 16 -20 13 -22z m218 28 c-3 -3 -12 -4 -19 -1 -8 3 -5 6 6 6 11 1 17 -2 13
-5z m1812 -101 c-1 -60 -4 -95 -8 -79 -6 30 -3 186 5 186 2 0 3 -48 3 -107z
m-1882 91 c-3 -3 -12 -4 -19 -1 -8 3 -5 6 6 6 11 1 17 -2 13 -5z m1516 -192
c15 -13 27 -28 27 -33 0 -10 -213 206 -218 221 -2 5 34 -30 80 -77 46 -48 95
-97 111 -111z m114 136 c-2 -13 -4 -3 -4 22 0 25 2 35 4 23 2 -13 2 -33 0 -45z
m-1687 42 c-8 -5 -19 -10 -25 -10 -5 0 -3 5 5 10 8 5 20 10 25 10 6 0 3 -5 -5
-10z m-434 -39 c-4 -6 -13 -11 -19 -11 -8 0 -7 4 2 9 13 8 13 12 1 28 -13 17
-13 17 4 1 10 -9 15 -21 12 -27z m537 32 c-7 -2 -21 -2 -30 0 -10 3 -4 5 12 5
17 0 24 -2 18 -5z m50 0 c-7 -2 -19 -2 -25 0 -7 3 -2 5 12 5 14 0 19 -2 13 -5z
m-1076 -25 c-3 -8 -6 -5 -6 6 -1 11 2 17 5 13 3 -3 4 -12 1 -19z m1030 -195
c-17 -17 -18 -17 -11 0 5 14 -12 38 -73 100 -120 124 -122 136 -3 19 100 -97
104 -103 87 -119z m-77 213 c0 -2 -7 -6 -15 -10 -8 -3 -15 -1 -15 4 0 6 7 10
15 10 8 0 15 -2 15 -4z m177 -18 c-3 -8 -6 -5 -6 6 -1 11 2 17 5 13 3 -3 4
-12 1 -19z m2253 2 c6 -11 9 -20 7 -20 -2 0 -12 9 -22 20 -10 11 -13 20 -7 20
6 0 16 -9 22 -20z m520 -63 c-3 -2 -23 17 -44 42 l-40 46 44 -42 c24 -23 42
-44 40 -46z m-2143 31 c-3 -7 -5 -2 -5 12 0 14 2 19 5 13 2 -7 2 -19 0 -25z
m1490 10 c-3 -8 -6 -5 -6 6 -1 11 2 17 5 13 3 -3 4 -12 1 -19z m-2288 -41 c-2
-3 -15 10 -28 27 l-24 31 28 -27 c16 -15 27 -29 24 -31z m2461 32 c0 -6 -4 -7
-10 -4 -5 3 -10 11 -10 16 0 6 5 7 10 4 6 -3 10 -11 10 -16z m-3503 -11 c-3
-8 -6 -5 -6 6 -1 11 2 17 5 13 3 -3 4 -12 1 -19z m530 16 c-3 -3 -12 -4 -19
-1 -8 3 -5 6 6 6 11 1 17 -2 13 -5z m48 -4 c-3 -5 -12 -10 -18 -10 -7 0 -6 4
3 10 19 12 23 12 15 0z m645 -11 c0 -5 -4 -9 -8 -9 -5 0 -9 7 -9 15 0 8 4 12
9 9 4 -3 8 -9 8 -15z m836 6 c-11 -8 -24 -15 -30 -15 -5 0 -1 7 10 15 10 8 24
14 29 14 6 0 1 -6 -9 -14z m532 -87 c41 -48 19 -31 -48 39 -44 45 -50 54 -20
28 25 -22 56 -52 68 -67z m-2511 15 c-2 -16 -4 -3 -4 27 0 30 2 43 4 28 2 -16
2 -40 0 -55z m413 73 c0 -2 -11 -6 -25 -8 -13 -3 -22 -1 -19 3 5 9 44 13 44 5z
m975 -6 c3 -5 1 -10 -4 -10 -6 0 -11 5 -11 10 0 6 2 10 4 10 3 0 8 -4 11 -10z
m524 6 c-2 -2 -20 -6 -39 -10 -25 -4 -31 -3 -20 4 14 9 69 15 59 6z m145 -42
c89 -88 105 -109 95 -124 -9 -13 -10 -13 -6 2 4 11 -16 37 -64 83 -42 40 -67
70 -62 77 5 9 8 8 11 -2 3 -8 14 -24 26 -36z m936 36 c0 -5 -2 -10 -4 -10 -3
0 -8 5 -11 10 -3 6 -1 10 4 10 6 0 11 -4 11 -10z m-2657 -7 c-7 -2 -19 -2 -25
0 -7 3 -2 5 12 5 14 0 19 -2 13 -5z m228 -25 c17 -24 18 -29 6 -19 -18 14 -42
51 -33 51 3 0 15 -15 27 -32z m546 10 c-3 -8 -6 -5 -6 6 -1 11 2 17 5 13 3 -3
4 -12 1 -19z m727 -1 c28 3 49 3 46 0 -3 -3 -34 -8 -69 -12 -48 -5 -66 -4 -72
7 -15 23 -10 27 17 13 17 -9 44 -11 78 -8z m-7 17 c-3 -3 -12 -4 -19 -1 -8 3
-5 6 6 6 11 1 17 -2 13 -5z m780 -16 c-3 -8 -6 -5 -6 6 -1 11 2 17 5 13 3 -3
4 -12 1 -19z m873 -8 c21 -16 43 -30 49 -30 6 0 11 -4 11 -8 0 -8 31 -45 96
-115 20 -20 29 -34 20 -31 -8 3 -27 21 -41 40 -15 19 -31 32 -36 28 -5 -3 -8
0 -7 8 2 7 -3 12 -10 10 -8 -1 -11 2 -7 8 3 5 0 10 -7 10 -7 0 -32 20 -55 44
-23 24 -44 42 -46 40 -2 -3 -7 2 -10 11 -9 22 0 19 43 -15z m-3073 10 c-28 -9
-109 -14 -137 -9 -15 2 89 15 140 16 24 1 24 1 -3 -7z m215 -20 c6 0 9 -3 6
-6 -3 -3 13 -23 36 -46 29 -28 22 -25 -21 12 -35 29 -63 57 -63 62 0 5 7 2 16
-6 8 -9 20 -16 26 -16z m735 8 c-3 -8 -6 -5 -6 6 -1 11 2 17 5 13 3 -3 4 -12
1 -19z m573 18 c0 -2 -9 -6 -20 -9 -11 -3 -18 -1 -14 4 5 9 34 13 34 5z m-544
-84 c4 -45 2 -72 -5 -77 -6 -3 -9 -11 -6 -16 4 -5 2 -9 -2 -9 -5 0 -17 -14
-26 -30 -19 -31 -15 -56 6 -44 7 4 10 5 7 1 -3 -3 -8 -5 -11 -4 -3 1 -13 -4
-22 -12 -10 -7 -17 -10 -17 -5 0 10 -29 -28 -30 -39 0 -5 5 -5 10 -2 6 3 10 1
10 -4 0 -14 -17 -14 -25 -1 -4 6 4 25 18 43 55 72 77 132 77 208 0 90 9 85 16
-9z m-329 -3 c7 -1 19 -2 26 -3 6 -1 19 3 27 8 13 10 13 9 1 -7 -8 -9 -16 -15
-19 -12 -3 3 -10 1 -17 -5 -12 -10 -105 63 -105 83 0 6 17 -6 37 -26 20 -20
42 -38 50 -38z m76 51 c-3 -12 -8 -19 -11 -16 -5 6 5 36 12 36 2 0 2 -9 -1
-20z m344 -17 c-3 -10 -5 -4 -5 12 0 17 2 24 5 18 2 -7 2 -21 0 -30z m1774
-86 c0 -71 -4 -123 -11 -134 -11 -17 -11 -17 -6 0 3 10 6 73 6 139 0 67 2 119
5 116 3 -3 5 -57 6 -121z m-3334 71 c-3 -7 -5 -2 -5 12 0 14 2 19 5 13 2 -7 2
-19 0 -25z m1175 0 c-8 -8 -9 -4 -5 13 4 13 8 18 11 10 2 -7 -1 -18 -6 -23z
m265 10 c-3 -8 -6 -5 -6 6 -1 11 2 17 5 13 3 -3 4 -12 1 -19z m835 -73 c26
-34 23 -32 -18 11 -63 66 -87 97 -45 59 18 -16 47 -48 63 -70z m789 72 c-10
-9 -11 -8 -5 6 3 10 9 15 12 12 3 -3 0 -11 -7 -18z m-2307 -59 c13 -10 -32
-67 -67 -83 -18 -9 -23 -10 -12 -3 11 7 32 26 47 42 l29 29 -28 26 c-46 42
-61 69 -18 31 22 -19 44 -38 49 -42z m1923 30 c-9 -13 -27 -36 -42 -53 -19
-22 -23 -24 -15 -8 5 12 15 25 20 28 6 3 10 11 10 16 0 6 -5 7 -12 3 -7 -4 -8
-3 -4 4 4 6 13 9 20 6 9 -3 17 3 21 16 4 12 9 19 12 16 3 -3 -1 -16 -10 -28z
m-1120 -10 c-3 -8 -6 -5 -6 6 -1 11 2 17 5 13 3 -3 4 -12 1 -19z m1506 7 c-3
-9 -8 -14 -10 -11 -3 3 -2 9 2 15 9 16 15 13 8 -4z m1112 -125 c12 -19 34 -48
49 -63 15 -16 34 -41 43 -55 10 -15 36 -52 58 -82 35 -47 112 -170 163 -260
12 -22 12 -23 0 -8 -8 10 -18 14 -22 10 -4 -4 -6 -2 -5 3 4 15 -11 55 -21 55
-4 0 -11 11 -14 25 -4 14 -11 23 -17 20 -5 -4 -8 -2 -7 3 5 15 -63 122 -73
116 -5 -3 -8 0 -7 8 2 7 -3 12 -10 10 -8 -1 -11 2 -7 8 8 13 -60 102 -70 92
-5 -4 -5 -2 -2 4 8 14 -32 71 -95 137 -25 26 -43 47 -40 47 3 0 -10 17 -28 38
-19 20 -9 12 24 -18 32 -30 68 -71 81 -90z m-4178 83 c-3 -10 -5 -2 -5 17 0
19 2 27 5 18 2 -10 2 -26 0 -35z m80 25 c-3 -8 -6 -5 -6 6 -1 11 2 17 5 13 3
-3 4 -12 1 -19z m2876 -20 c-6 -34 -30 -88 -38 -88 -3 0 2 15 10 33 7 17 16
44 20 60 8 38 16 34 8 -5z m-1528 -27 c-22 -44 -27 -38 -7 9 9 21 18 35 20 30
2 -5 -4 -22 -13 -39z m-2445 35 c0 -2 -8 -10 -17 -17 -16 -13 -17 -12 -4 4 13
16 21 21 21 13z m2613 -53 c3 -24 1 -43 -4 -43 -5 0 -9 21 -9 47 0 56 5 54 13
-4z m-28 27 c3 -5 1 -10 -4 -10 -6 0 -11 5 -11 10 0 6 2 10 4 10 3 0 8 -4 11
-10z m1339 -40 c-15 -27 -32 -50 -37 -50 -6 0 -3 8 5 18 9 9 23 32 32 50 9 17
19 32 22 32 3 0 -7 -22 -22 -50z m-2096 10 c16 -16 27 -31 25 -34 -3 -3 -16 8
-30 25 -20 23 -28 27 -39 18 -8 -6 -14 -18 -14 -25 0 -8 -5 -14 -10 -14 -6 0
-20 -9 -32 -20 -12 -11 -30 -20 -40 -20 -10 0 -18 -4 -18 -8 0 -4 -57 -8 -127
-9 l-128 -1 120 7 c134 8 172 21 225 76 19 19 35 35 36 35 1 0 16 -13 32 -30z
m327 13 c-1 -10 -8 -17 -15 -15 -8 2 -10 -3 -6 -13 3 -9 2 -14 -3 -11 -5 3
-14 -1 -21 -9 -7 -8 -17 -15 -22 -15 -5 0 7 18 28 40 21 22 39 40 40 40 1 0 1
-8 -1 -17z m1929 -13 c-6 -6 -10 -3 -10 10 0 13 4 16 10 10 7 -7 7 -13 0 -20z
m-4168 3 c-7 -37 -18 -55 -27 -42 -4 7 0 22 9 35 21 28 23 29 18 7z m2194 3
c0 -2 -8 -10 -17 -17 -16 -13 -17 -12 -4 4 13 16 21 21 21 13z m475 -5 c3 -5
2 -12 -3 -15 -5 -3 -9 1 -9 9 0 17 3 19 12 6z m765 -11 c6 -11 8 -20 6 -20 -3
0 -10 9 -16 20 -6 11 -8 20 -6 20 3 0 10 -9 16 -20z m-2603 -12 c-3 -8 -6 -5
-6 6 -1 11 2 17 5 13 3 -3 4 -12 1 -19z m270 -15 c-3 -10 -5 -4 -5 12 0 17 2
24 5 18 2 -7 2 -21 0 -30z m90 0 c-3 -10 -5 -4 -5 12 0 17 2 24 5 18 2 -7 2
-21 0 -30z m803 -5 c0 -13 -5 -9 -31 19 l-24 26 27 -19 c15 -10 28 -22 28 -26z
m1290 27 c-7 -8 -17 -15 -23 -15 -6 0 -2 7 9 15 25 19 30 19 14 0z m37 -9
c-15 -14 -37 -28 -49 -31 -28 -9 -24 -5 26 29 48 33 57 33 23 2z m361 3 c-16
-11 -28 -26 -28 -32 0 -7 -9 -18 -20 -25 -11 -7 -20 -10 -20 -7 0 11 73 85 84
85 6 0 -1 -10 -16 -21z m-1541 -16 c0 -14 -23 -18 -31 -4 -7 10 0 18 17 18 8
0 14 -6 14 -14z m363 10 c0 -5 -10 -19 -21 -33 l-20 -25 12 25 c7 14 12 28 11
33 -1 4 3 7 8 7 6 0 10 -3 10 -7z m1667 -12 c0 -11 -5 -18 -9 -15 -4 3 -5 11
-1 19 7 21 12 19 10 -4z m-932 -1 c-3 -5 -12 -10 -18 -10 -7 0 -6 4 3 10 19
12 23 12 15 0z m-3275 -3 c0 -2 -10 -12 -22 -23 l-23 -19 19 23 c18 21 26 27
26 19z m870 -28 c0 -16 -4 -28 -9 -25 -8 5 -3 56 5 56 2 0 4 -14 4 -31z m1178
-25 c2 -1 -4 -4 -12 -7 -9 -4 -15 -1 -13 6 1 7 -4 11 -11 9 -8 -1 -11 2 -7 8
3 5 -1 13 -9 16 -9 3 -16 11 -16 17 0 6 15 -2 32 -19 18 -16 34 -30 36 -30z
m664 26 c3 -16 1 -30 -4 -30 -4 0 -8 14 -8 30 0 17 2 30 4 30 2 0 6 -13 8 -30z
m803 20 c3 -6 -1 -7 -9 -4 -18 7 -21 14 -7 14 6 0 13 -4 16 -10z m1390 0 c3
-6 -1 -7 -9 -4 -18 7 -21 14 -7 14 6 0 13 -4 16 -10z m-3238 -6 c-3 -3 -12 -4
-19 -1 -8 3 -5 6 6 6 11 1 17 -2 13 -5z m61 -1 c-10 -2 -26 -2 -35 0 -10 3 -2
5 17 5 19 0 27 -2 18 -5z m330 -18 c-3 -3 -9 2 -12 12 -6 14 -5 15 5 6 7 -7
10 -15 7 -18z m76 13 c-5 -8 -1 -9 12 -4 14 5 16 4 7 -5 -13 -13 -37 -3 -28
12 4 5 8 9 11 9 3 0 2 -5 -2 -12z m513 -2 c0 -8 -6 -12 -15 -9 -11 5 -11 7 0
14 7 5 13 9 14 9 0 0 1 -6 1 -14z m128 -9 c28 -4 28 -4 -6 -6 -26 -1 -39 4
-43 15 -5 13 -3 14 6 6 7 -5 27 -12 43 -15z m465 19 c0 -2 -9 -6 -20 -9 -11
-3 -18 -1 -14 4 5 9 34 13 34 5z m-2103 -38 c-3 -7 -5 -2 -5 12 0 14 2 19 5
13 2 -7 2 -19 0 -25z m153 16 c0 -2 -9 -4 -20 -4 -11 0 -20 4 -20 9 0 5 9 7
20 4 11 -3 20 -7 20 -9z m238 9 c-21 -2 -57 -2 -80 0 -24 2 -7 4 37 4 44 0 63
-2 43 -4z m673 -6 c-6 -8 -7 -18 -3 -22 4 -5 2 -5 -5 -1 -14 8 -6 36 9 36 7 0
6 -5 -1 -13z m984 3 c3 -5 -1 -10 -10 -10 -9 0 -13 5 -10 10 3 6 8 10 10 10 2
0 7 -4 10 -10z m75 -10 c-14 -10 -26 -17 -29 -15 -2 3 -12 0 -22 -6 -11 -5
-19 -6 -19 -2 0 8 66 40 85 42 6 0 -1 -8 -15 -19z m780 16 c0 -2 -8 -10 -17
-17 -16 -13 -17 -12 -4 4 13 16 21 21 21 13z m974 -87 c-6 -11 52 -59 61 -52
4 5 5 2 1 -5 -8 -13 40 -82 137 -195 9 -11 17 -26 17 -34 0 -7 5 -13 11 -13 6
0 9 -7 6 -14 -4 -10 -1 -13 8 -10 10 4 13 0 10 -15 -2 -12 0 -21 5 -21 4 0 20
-20 33 -45 32 -57 21 -59 -15 -2 -15 23 -50 75 -78 115 -27 39 -48 72 -45 72
3 0 -3 8 -12 18 -32 34 -53 62 -46 62 4 0 -2 6 -13 14 -10 8 -19 18 -19 23 0
4 -9 18 -20 30 -11 12 -30 34 -42 47 -13 14 -23 30 -23 36 0 6 -4 9 -9 5 -5
-3 -12 4 -16 15 -4 12 -11 17 -18 14 -7 -4 -9 -3 -4 1 4 5 -1 18 -10 29 -10
12 5 1 33 -24 28 -25 49 -48 48 -51z m-4625 64 c-58 -70 -79 -93 -79 -87 0 4
-11 -9 -23 -28 -26 -37 -60 -80 -93 -114 -12 -13 -20 -24 -18 -26 2 -2 -6 -9
-17 -16 -19 -12 -20 -12 -3 13 9 14 21 25 26 25 5 0 7 3 5 8 -3 4 6 21 20 37
13 17 42 54 64 83 22 28 47 52 55 52 8 0 13 4 10 9 -4 5 8 21 25 35 35 30 49
34 28 9z m2719 10 c-27 -2 -69 -2 -95 0 -27 2 -5 3 47 3 52 0 74 -1 48 -3z
m488 -19 l29 18 -22 -22 c-24 -26 -46 -22 -63 12 -11 22 -11 22 8 -1 20 -24
20 -24 48 -7z m612 -45 c2 -35 0 -61 -3 -57 -8 8 -13 128 -5 123 3 -2 6 -32 8
-66z m-659 -9 c1 -13 0 -13 -10 0 -5 8 -17 29 -25 45 l-16 30 26 -30 c14 -16
25 -37 25 -45z m-2433 34 c1 -9 0 -13 -4 -10 -3 4 -7 14 -8 22 -1 9 0 13 4 10
3 -4 7 -14 8 -22z m307 19 c-23 -2 -64 -2 -90 0 -26 2 -7 3 42 3 50 0 71 -1
48 -3z m668 -10 c13 -16 12 -17 -3 -4 -17 13 -22 21 -14 21 2 0 10 -8 17 -17z
m-2154 -23 c-6 -16 -13 -27 -16 -25 -2 3 -11 -1 -20 -8 -8 -6 -2 5 14 25 17
21 31 38 32 38 1 0 -4 -13 -10 -30z m2243 26 c0 -2 -7 -7 -16 -10 -8 -3 -12
-2 -9 4 6 10 25 14 25 6z m780 -7 c0 -7 -87 -5 -94 2 -3 3 17 5 44 5 28 0 50
-3 50 -7z m80 2 c0 -8 -56 -9 -63 -1 -3 3 10 6 29 6 19 1 34 -2 34 -5z m40 5
c0 -2 -7 -6 -15 -10 -8 -3 -15 -1 -15 4 0 6 7 10 15 10 8 0 15 -2 15 -4z m37
-2 c-3 -3 -12 -4 -19 -1 -8 3 -5 6 6 6 11 1 17 -2 13 -5z m56 -1 c-7 -2 -21
-2 -30 0 -10 3 -4 5 12 5 17 0 24 -2 18 -5z m837 3 c0 -2 -8 -10 -17 -17 -16
-13 -17 -12 -4 4 13 16 21 21 21 13z m-1552 -31 c-3 -3 -9 2 -12 12 -6 14 -5
15 5 6 7 -7 10 -15 7 -18z m-391 -4 c0 -11 -5 -18 -9 -15 -4 3 -5 11 -1 19 7
21 12 19 10 -4z m73 9 c0 -5 -5 -10 -11 -10 -5 0 -7 5 -4 10 3 6 8 10 11 10 2
0 4 -4 4 -10z m39 -14 c9 -11 9 -16 -1 -22 -7 -4 -10 -4 -6 1 4 4 3 14 -3 22
-6 7 -9 13 -6 13 2 0 10 -6 16 -14z m1757 7 c-4 -5 -63 -64 -129 -133 -67 -68
-113 -114 -103 -102 11 12 15 22 10 22 -5 1 1 9 13 19 12 10 20 21 18 25 -3 3
-2 4 2 1 11 -8 43 27 43 47 0 11 4 16 10 13 5 -3 37 21 71 55 34 33 64 60 67
60 3 0 2 -3 -2 -7z m-1361 -13 c3 -5 1 -10 -4 -10 -6 0 -11 5 -11 10 0 6 2 10
4 10 3 0 8 -4 11 -10z m591 -3 c8 3 14 1 14 -5 0 -13 -27 -9 -40 6 -7 8 -7 9
1 3 6 -5 18 -7 25 -4z m-1196 -12 c14 9 70 13 75 6 2 -4 -11 -8 -29 -9 -17 -1
-42 -4 -53 -6 -17 -4 -20 -1 -16 12 4 10 8 12 11 4 2 -7 7 -10 12 -7z m1397 1
c3 -3 -36 -6 -88 -5 -52 0 -86 3 -77 7 21 9 156 7 165 -2z m159 7 c-9 -10 -75
-10 -69 0 2 4 20 7 40 7 20 0 33 -3 29 -7z m489 -21 c-6 -7 -45 9 -45 18 0 4
11 3 24 -3 14 -7 23 -13 21 -15z m-2090 8 c4 -7 -79 -9 -242 -8 l-248 2 235 6
c129 3 238 7 242 8 4 1 10 -2 13 -8z m165 -5 c-7 -8 -21 -15 -31 -15 -11 0
-19 -4 -19 -9 0 -4 -21 -8 -47 -7 -27 1 -48 -3 -48 -9 0 -5 5 -8 10 -7 6 2 6
0 2 -4 -10 -10 -37 -14 -36 -6 1 4 1 14 0 22 -1 13 -2 13 -11 0 -7 -11 -10
-11 -10 -2 0 7 -4 11 -10 7 -5 -3 -7 -13 -4 -23 5 -13 4 -14 -4 -3 -5 7 -16
10 -23 7 -8 -4 -6 -1 3 7 10 8 15 16 13 19 -3 3 27 6 67 7 86 2 136 10 144 22
3 5 8 9 11 9 3 0 0 -7 -7 -15z m403 1 c15 -12 16 -14 2 -20 -9 -3 -15 0 -15 9
0 21 -9 19 -39 -7 l-26 -23 24 28 c28 31 30 31 54 13z m572 5 c-3 -2 -22 -6
-43 -7 -30 -2 -32 -1 -12 5 27 9 62 10 55 2z m342 3 c-3 -3 -12 -4 -19 -1 -8
3 -5 6 6 6 11 1 17 -2 13 -5z m173 2 c0 -2 -8 -10 -17 -17 -16 -13 -17 -12 -4
4 13 16 21 21 21 13z m600 -6 c0 -5 -8 -10 -17 -10 -15 0 -16 2 -3 10 19 12
20 12 20 0z m-3057 -21 c4 -16 3 -18 -9 -8 -7 6 -11 15 -8 20 8 13 11 11 17
-12z m1744 15 c-3 -3 -12 -4 -19 -1 -8 3 -5 6 6 6 11 1 17 -2 13 -5z m1273 2
c0 -3 -4 -8 -10 -11 -5 -3 -10 -1 -10 4 0 6 5 11 10 11 6 0 10 -2 10 -4z
m-4246 -14 c3 -5 -1 -9 -9 -9 -8 0 -12 4 -9 9 3 4 7 8 9 8 2 0 6 -4 9 -8z
m3426 -10 c0 -6 -68 -8 -80 -2 -3 2 11 6 30 9 36 7 50 5 50 -7z m30 8 c0 -5
-5 -10 -11 -10 -5 0 -7 5 -4 10 3 6 8 10 11 10 2 0 4 -4 4 -10z m180 3 c0 -5
-22 -6 -49 -5 -27 2 -58 -1 -70 -7 -17 -10 -20 -9 -15 4 5 11 22 15 70 15 35
0 64 -3 64 -7z m461 -11 c-7 -2 -18 1 -23 6 -8 8 -4 9 13 5 13 -4 18 -8 10
-11z m-2328 -9 c-62 -2 -164 -2 -225 0 -62 1 -12 3 112 3 124 0 174 -2 113 -3z
m732 -3 c-3 -5 -12 -10 -18 -10 -7 0 -6 4 3 10 19 12 23 12 15 0z m353 3 c-15
-2 -42 -2 -60 0 -18 2 -6 4 27 4 33 0 48 -2 33 -4z m1162 4 c0 -2 -9 -12 -20
-22 -24 -21 -27 -14 -4 9 15 15 24 20 24 13z m-4044 -16 c-4 -5 -3 -11 1 -14
5 -2 3 -3 -3 -1 -18 4 -34 -32 -21 -46 9 -10 9 -11 0 -6 -15 8 -45 -22 -37
-36 4 -6 2 -8 -3 -5 -13 8 -77 -88 -69 -101 3 -5 -1 -9 -9 -9 -11 0 -12 5 -3
21 11 20 111 168 130 194 12 14 22 16 14 3z m2504 -14 c0 -1 -28 -29 -62 -62
-35 -33 -45 -41 -23 -17 21 23 35 42 31 42 -10 0 36 39 47 40 4 0 7 -1 7 -3z
m1445 -71 c-37 -49 -43 -46 -8 3 15 22 30 38 32 36 1 -2 -9 -20 -24 -39z
m-215 20 c0 -2 -7 -7 -16 -10 -8 -3 -12 -2 -9 4 6 10 25 14 25 6z m-1274 -88
l19 -23 -25 20 c-14 11 -27 21 -29 22 -2 2 0 3 6 3 5 0 18 -10 29 -22z m1436
15 c-6 -2 -9 -10 -6 -15 4 -7 2 -8 -5 -4 -13 9 -5 26 12 25 9 0 8 -2 -1 -6z
m87 -18 c6 3 9 0 6 -7 -6 -15 -75 -21 -75 -7 0 4 12 5 27 3 l27 -5 -19 23 -20
23 22 -18 c12 -11 26 -16 32 -12z m-2285 -4 c3 -5 -2 -15 -12 -22 -15 -12 -16
-12 -5 2 7 9 10 19 6 22 -3 4 -4 7 0 7 3 0 8 -4 11 -9z m659 -36 c-15 -19 -34
-35 -40 -35 -10 0 54 69 65 70 2 0 -10 -16 -25 -35z m434 18 c-20 -2 -52 -2
-70 0 -17 2 0 4 38 4 39 0 53 -2 32 -4z m1013 -23 c-11 -20 -56 -37 -67 -26
-4 3 3 6 14 6 23 0 57 33 46 45 -5 4 -2 5 5 1 9 -5 9 -12 2 -26z m-1289 10
c10 -6 19 -7 19 -3 0 4 28 9 63 10 54 1 57 0 22 -7 -118 -22 -122 -23 -128 -6
-7 19 -3 20 24 6z m447 3 c-10 -2 -28 -2 -40 0 -13 2 -5 4 17 4 22 1 32 -1 23
-4z m889 -8 c0 -8 -7 -15 -15 -15 -8 0 -12 -6 -8 -15 3 -8 1 -15 -4 -15 -15 0
-12 21 7 42 20 22 20 22 20 3z m-760 -10 c43 -8 98 -16 123 -16 33 -2 37 -3
15 -6 -27 -4 -25 -6 25 -23 29 -10 60 -16 69 -13 14 4 14 4 1 -6 -10 -7 -11
-11 -3 -11 7 0 37 -11 67 -25 30 -14 59 -25 64 -25 13 0 9 -27 -6 -42 -8 -8
-10 -6 -6 9 5 16 -5 24 -53 46 -81 36 -231 85 -327 107 -99 22 -78 26 31 5z
m-1350 -1 c-3 -3 -12 -4 -19 -1 -8 3 -5 6 6 6 11 1 17 -2 13 -5z m679 -30
c-38 -13 -73 -21 -79 -17 -6 3 -7 1 -3 -5 4 -7 2 -12 -3 -12 -6 0 -11 5 -11
11 0 5 -4 8 -9 4 -5 -3 -12 -1 -16 5 -4 6 10 10 37 11 24 0 61 6 83 14 71 23
72 14 1 -11z m-581 6 c-38 -4 -64 -7 -56 -8 8 -1 12 -4 9 -7 -8 -9 -38 6 -32
16 3 5 38 8 77 7 l72 -2 -70 -6z m-2004 -23 c-6 -8 -9 -23 -5 -33 4 -14 3 -15
-4 -6 -10 15 -34 -22 -87 -130 -28 -60 -42 -77 -25 -33 23 62 120 228 128 221
3 -3 0 -12 -7 -19z m399 19 c0 -2 -8 -10 -17 -17 -16 -13 -17 -12 -4 4 13 16
21 21 21 13z m1600 -16 c0 -5 -4 -10 -10 -10 -5 0 -10 5 -10 10 0 6 5 10 10
10 6 0 10 -4 10 -10z m1960 3 c-8 -3 -23 -10 -32 -14 -11 -6 -19 -5 -24 3 -4
7 -3 8 4 4 7 -4 12 -2 12 3 0 6 12 11 28 10 15 0 21 -3 12 -6z m-1790 -9 c-58
-8 -150 -8 -150 -1 0 4 39 6 88 6 48 -1 76 -3 62 -5z m-1804 -33 c0 -11 -3
-18 -7 -15 -4 2 -29 -32 -55 -76 -27 -44 -53 -80 -58 -80 -5 0 -1 9 10 21 10
12 18 24 16 28 -1 3 4 13 11 21 7 8 13 17 13 20 5 27 21 59 41 78 29 27 29 27
29 3z m2114 14 c0 -2 -22 -16 -49 -29 -27 -14 -56 -32 -65 -41 -14 -15 -16
-15 -16 -1 0 9 5 16 12 16 6 0 19 6 27 14 29 27 91 54 91 41z m3479 -65 c11
-24 11 -24 -3 -6 -9 11 -16 24 -16 30 0 12 5 7 19 -24z m-3553 -72 l29 -33
-32 29 c-31 28 -38 36 -30 36 2 0 16 -15 33 -32z m3264 -41 c0 -6 7 -18 15
-28 15 -15 12 -19 -36 -49 -29 -17 -76 -56 -105 -85 -30 -30 -50 -45 -44 -35
5 10 31 37 57 60 27 23 48 47 48 53 1 7 6 11 13 9 24 -5 51 31 45 61 -3 15 -9
27 -13 27 -4 0 -12 12 -19 28 l-12 27 25 -29 c15 -16 26 -34 26 -39z m-5420
-28 c0 -5 -4 -8 -9 -5 -5 3 -14 -9 -21 -27 -6 -17 -26 -63 -43 -101 -18 -38
-31 -75 -29 -82 2 -8 -3 -14 -11 -14 -8 0 -19 -10 -24 -22 -10 -20 -4 -30 51
-88 l61 -65 -58 55 c-56 53 -59 54 -73 35 -8 -11 -12 -25 -10 -32 3 -7 1 -13
-4 -13 -6 0 -10 -7 -10 -15 0 -8 -5 -15 -11 -15 -5 0 -7 -4 -4 -10 3 -5 2 -10
-2 -10 -5 0 -14 10 -22 23 -10 16 -10 19 -1 10 11 -10 24 12 67 110 30 67 59
124 64 125 5 2 7 8 4 13 -7 11 63 139 76 139 5 0 9 -5 9 -11z m104 -7 c2 -4
-13 -6 -35 -4 -21 2 -39 6 -39 8 0 7 69 4 74 -4z m5336 -46 c0 -2 -7 -7 -16
-10 -8 -3 -12 -2 -9 4 6 10 25 14 25 6z m54 -40 c9 -19 16 -39 16 -46 0 -7 7
-24 15 -38 8 -15 22 -43 31 -62 l17 -34 -31 29 c-17 16 -29 32 -26 37 3 4 -2
20 -10 36 -8 16 -12 32 -9 36 4 3 1 6 -6 6 -8 0 -11 7 -7 15 3 8 1 15 -4 15
-5 0 -14 9 -20 20 -8 16 -8 20 4 20 7 0 21 -15 30 -34z m-98 15 c-7 -11 39
-53 49 -44 4 5 5 3 2 -3 -4 -7 -1 -17 7 -23 11 -9 15 -9 19 1 3 7 4 3 4 -9
l-1 -23 -26 23 c-61 53 -84 87 -59 87 5 0 8 -4 5 -9z m-5820 -35 c0 -13 -4
-22 -7 -20 -4 2 -17 -23 -29 -56 -13 -34 -25 -59 -27 -56 -4 4 56 156 62 156
2 0 2 -11 1 -24z m6258 8 c3 -8 2 -12 -4 -9 -6 3 -10 10 -10 16 0 14 7 11 14
-7z m-465 4 c-3 -2 -34 -30 -69 -63 l-65 -60 60 63 c33 34 64 62 69 62 5 0 7
-1 5 -2z m-5395 -67 c-33 -22 -61 -38 -63 -35 -6 5 -5 6 54 43 72 44 78 38 9
-8z m176 31 c0 -8 -46 -9 -54 -1 -3 3 8 6 24 7 17 1 30 -1 30 -6z m127 -8 c-3
-3 -12 -4 -19 -1 -8 3 -5 6 6 6 11 1 17 -2 13 -5z m5203 -69 l24 -30 -25 21
c-58 51 -79 72 -79 78 0 11 52 -34 80 -69z m-5171 42 c-2 -1 -33 -1 -69 2
l-65 5 60 6 c51 4 89 -2 74 -13z m-196 6 c-7 -2 -21 -2 -30 0 -10 3 -4 5 12 5
17 0 24 -2 18 -5z m-143 -27 c0 -2 -8 -10 -17 -17 -16 -13 -17 -12 -4 4 13 16
21 21 21 13z m5250 -25 c-5 -11 -15 -23 -22 -27 -7 -5 -8 -2 -3 7 21 37 44 55
25 20z m-5290 -5 c0 -2 -8 -10 -17 -17 -16 -13 -17 -12 -4 4 13 16 21 21 21
13z m5296 -28 c-16 -22 -13 -26 86 -127 93 -95 89 -93 -36 19 -21 19 -46 47
-57 61 -16 23 -17 28 -3 47 8 12 17 22 20 22 3 0 -2 -10 -10 -22z m-5341 -8
c-3 -5 -2 -10 4 -10 5 0 12 -8 15 -17 3 -10 26 -34 50 -53 25 -19 48 -41 51
-49 5 -12 3 -12 -12 0 -48 36 -124 119 -118 129 3 5 8 10 11 10 3 0 2 -4 -1
-10z m5670 -28 c5 -14 7 -14 15 -2 6 9 10 10 10 3 0 -23 -17 -22 -41 3 -16 17
-18 23 -7 19 9 -4 19 -14 23 -23z m-384 -15 c-10 -9 -11 -8 -5 6 3 10 9 15 12
12 3 -3 0 -11 -7 -18z m-4635 -78 c1 -58 0 -61 -3 -16 -2 31 -8 57 -13 57 -6
0 -10 5 -10 11 0 5 6 7 13 3 7 -5 6 0 -3 11 -13 16 -13 18 0 13 11 -3 15 -22
16 -79z m4695 44 l34 -38 -37 34 c-22 20 -38 29 -38 21 0 -7 -3 -11 -6 -7 -5
5 3 27 10 27 1 0 18 -17 37 -37z m-344 -5 c-3 -7 -5 -2 -5 12 0 14 2 19 5 13
2 -7 2 -19 0 -25z m-20 -85 c-2 -21 -4 -4 -4 37 0 41 2 58 4 38 2 -21 2 -55 0
-75z m739 60 c7 -22 17 -50 23 -62 7 -11 8 -21 3 -21 -5 0 -20 30 -35 66 -14
37 -21 64 -14 61 6 -2 17 -22 23 -44z m-6141 -23 c-8 -23 -12 -47 -8 -54 4 -8
3 -8 -6 0 -8 7 -7 22 5 58 9 26 18 45 20 43 2 -2 -3 -23 -11 -47z m6485 -5 c0
-5 -5 -3 -10 5 -5 8 -10 20 -10 25 0 6 5 3 10 -5 5 -8 10 -19 10 -25z m-1160
-6 c0 -17 -4 -28 -10 -24 -6 4 -11 -58 -13 -167 l-3 -173 -2 186 c-1 133 1
188 10 197 17 17 18 16 18 -19z m-4140 -10 c0 -11 -4 -18 -10 -14 -5 3 -7 12
-3 20 7 21 13 19 13 -6z m4484 -43 c-4 -31 -9 -54 -12 -52 -2 3 -1 30 3 61 3
31 9 55 11 52 3 -2 2 -30 -2 -61z m-4997 48 c-3 -3 -12 -4 -19 -1 -8 3 -5 6 6
6 11 1 17 -2 13 -5z m536 -251 c2 -134 0 -248 -5 -255 -4 -7 -7 106 -7 252 0
146 2 261 4 255 2 -5 5 -119 8 -252z m-583 237 c-8 -5 -24 -9 -35 -9 -16 1
-16 2 5 9 35 11 48 11 30 0z m105 0 c-3 -5 -23 -9 -43 -9 l-37 2 40 7 c22 4
41 8 43 9 2 0 0 -3 -3 -9z m65 -22 c0 -5 -7 -3 -15 6 -8 8 -15 18 -15 22 0 3
7 1 15 -6 8 -7 15 -17 15 -22z m5726 -75 c-2 -3 -7 5 -11 16 -3 12 -11 21 -16
21 -6 0 -7 -5 -3 -12 4 -7 3 -8 -5 -4 -6 4 -8 13 -4 19 4 7 6 25 5 42 -1 23 3
17 18 -24 11 -30 18 -56 16 -58z m-6189 83 c-3 -8 -11 -34 -17 -57 l-12 -42
63 -63 c35 -35 61 -64 57 -64 -4 0 -25 19 -47 42 -42 42 -70 47 -35 6 10 -13
2 -8 -18 10 -39 37 -54 31 -50 -19 1 -15 -5 -32 -13 -39 -12 -10 -15 -10 -15
4 0 9 4 16 9 16 5 0 8 8 7 18 -2 9 1 29 7 45 7 20 5 32 -4 45 -12 15 -12 16 2
5 14 -11 18 -5 34 47 10 33 22 60 28 60 5 0 7 -6 4 -14z m295 -9 c-12 -7 -19
-17 -15 -22 4 -4 2 -5 -6 0 -12 7 -11 10 4 22 11 7 24 13 29 13 6 -1 1 -6 -12
-13z m5065 -19 c-3 -7 -5 -2 -5 12 0 14 2 19 5 13 2 -7 2 -19 0 -25z m-5033
-83 c29 -28 49 -55 35 -49 -8 4 -45 41 -84 83 -62 68 -64 70 -16 26 30 -27 59
-55 65 -60z m4663 83 c-3 -8 -6 -5 -6 6 -1 11 2 17 5 13 3 -3 4 -12 1 -19z
m110 -25 c-3 -10 -5 -2 -5 17 0 19 2 27 5 18 2 -10 2 -26 0 -35z m447 38 c3
-4 -7 -19 -22 -32 l-27 -24 23 26 c12 14 19 29 15 32 -3 4 -4 7 0 7 3 0 8 -4
11 -9z m-4855 -289 l-51 -106 37 -33 c20 -18 41 -33 46 -33 5 0 9 -8 9 -17 0
-12 -15 -2 -51 33 l-51 51 49 99 c45 92 48 105 53 194 l5 95 3 -89 3 -89 -52
-105z m5162 251 c6 -16 13 -41 15 -57 2 -16 9 -35 15 -42 8 -10 8 -14 1 -14
-9 0 -52 114 -52 136 0 13 12 0 21 -23z m-5004 -50 c-2 -16 -4 -5 -4 22 0 28
2 40 4 28 2 -13 2 -35 0 -50z m4233 -18 c0 -27 5 -69 9 -92 5 -23 5 -40 0 -38
-4 3 -10 36 -14 73 -3 37 -7 85 -10 107 -3 29 -2 34 5 20 5 -11 9 -42 10 -70z
m-5416 67 c3 -5 -1 -9 -9 -9 -8 0 -12 4 -9 9 3 4 7 8 9 8 2 0 6 -4 9 -8z
m1334 -4 c7 -7 12 -17 12 -22 0 -6 -5 -3 -11 7 -6 9 -14 15 -20 12 -5 -4 -9
-1 -9 4 0 14 13 14 28 -1z m4359 -40 c-2 -13 -4 -5 -4 17 -1 22 1 32 4 23 2
-10 2 -28 0 -40z m192 35 c-17 -23 -102 -103 -108 -103 -6 0 75 86 99 107 21
18 25 16 9 -4z m220 -133 c20 -19 39 -34 44 -32 5 1 6 -2 3 -6 -3 -5 18 -32
46 -60 36 -36 54 -48 60 -39 4 6 8 8 9 2 0 -5 2 -18 4 -28 4 -20 -52 28 -175
153 -111 112 -159 168 -86 100 33 -30 76 -71 95 -90z m-5289 75 c-6 -19 -15
-37 -20 -40 -4 -3 -1 17 8 44 10 28 18 46 20 41 2 -6 -2 -26 -8 -45z m5185
-15 c12 -16 2 -10 -26 14 -24 22 -46 44 -48 50 -6 15 53 -36 74 -64z m-6075
-60 c-17 -58 -28 -87 -25 -65 3 22 10 51 14 65 5 14 15 47 22 74 7 28 14 46
16 40 1 -5 -11 -56 -27 -114z m820 33 c0 -8 -9 0 -50 45 l-45 47 48 -45 c26
-24 47 -45 47 -47z m633 72 c-3 -9 -8 -14 -10 -11 -3 3 -2 9 2 15 9 16 15 13
8 -4z m4407 -40 c-30 -30 -58 -55 -62 -55 -4 0 -12 10 -18 23 -11 21 -11 21 5
2 15 -19 17 -18 68 33 28 29 54 52 57 52 2 0 -20 -25 -50 -55z m-4993 23 c-3
-8 -6 -5 -6 6 -1 11 2 17 5 13 3 -3 4 -12 1 -19z m4317 6 c3 -8 2 -12 -4 -9
-6 3 -10 10 -10 16 0 14 7 11 14 -7z m-3645 -63 c0 -14 -3 -19 -6 -11 -14 42
-17 44 -23 10 -7 -33 -7 -33 -9 14 -1 48 -1 49 19 31 11 -10 20 -30 19 -44z
m3598 37 c-3 -8 -6 -5 -6 6 -1 11 2 17 5 13 3 -3 4 -12 1 -19z m-4277 -6 c0
-5 -7 -17 -15 -28 -14 -18 -14 -17 -4 9 12 27 19 34 19 19z m4250 -14 c0 -18
-2 -20 -9 -8 -6 8 -7 18 -5 22 9 14 14 9 14 -14z m407 0 c-3 -8 -6 -5 -6 6 -1
11 2 17 5 13 3 -3 4 -12 1 -19z m-4027 -2 c0 -3 -4 -8 -10 -11 -5 -3 -10 -1
-10 4 0 6 5 11 10 11 6 0 10 -2 10 -4z m-373 -38 c-3 -7 -5 -2 -5 12 0 14 2
19 5 13 2 -7 2 -19 0 -25z m4433 -100 c6 -11 6 -18 1 -18 -11 0 -28 50 -35
105 -5 32 -3 29 9 -15 8 -30 20 -63 25 -72z m-4708 85 c-11 -16 -33 -39 -48
-53 -15 -14 -8 -1 17 27 48 58 62 69 31 26z m4932 -13 c-5 -5 -10 3 -11 18 -1
22 0 24 9 8 6 -10 6 -22 2 -26z m76 37 c0 -1 -24 -25 -52 -52 l-53 -50 50 53
c46 48 55 57 55 49z m471 -62 c13 -30 19 -75 10 -75 -7 0 -18 37 -36 120 l-6
25 12 -25 c6 -14 15 -34 20 -45z m-5885 26 c-7 -10 -76 -52 -76 -46 0 4 72 55
78 55 2 0 1 -4 -2 -9z m667 -24 c-6 -12 -16 -35 -22 -51 -7 -16 -14 -26 -17
-23 -3 3 -1 13 5 24 5 10 15 32 23 50 7 18 14 30 17 27 2 -2 0 -14 -6 -27z
m404 11 c-3 -8 -6 -5 -6 6 -1 11 2 17 5 13 3 -3 4 -12 1 -19z m3774 -5 c13
-16 12 -17 -3 -4 -10 7 -18 15 -18 17 0 8 8 3 21 -13z m-4842 -9 c-13 -16 -69
-48 -69 -39 0 4 70 53 79 54 2 1 -2 -6 -10 -15z m111 -70 c47 -48 78 -83 69
-78 -9 5 -38 32 -63 61 -26 29 -55 55 -65 58 -11 3 -21 15 -24 25 -3 11 -4 20
-3 20 1 0 40 -39 86 -86z m218 59 c-69 -75 -98 -109 -98 -117 0 -6 16 5 35 24
19 19 35 32 35 29 0 -3 -19 -23 -41 -44 -23 -22 -39 -35 -35 -28 3 6 1 13 -5
15 -9 3 116 148 129 148 3 0 -6 -12 -20 -27z m5327 -43 c-38 -38 -65 -70 -59
-70 6 0 19 9 29 20 10 11 20 18 23 16 2 -3 -12 -19 -32 -36 -20 -18 -36 -35
-36 -39 0 -3 14 -21 31 -39 17 -18 29 -35 26 -38 -10 -11 -67 71 -61 88 3 10
3 18 0 18 -10 0 -170 -159 -165 -165 3 -3 19 7 35 21 87 79 93 83 37 24 -35
-36 -63 -72 -63 -80 0 -8 35 -51 77 -95 77 -79 77 -79 -14 10 -61 59 -88 92
-81 97 7 4 9 10 5 14 -8 9 -59 -46 -82 -88 -22 -39 -29 -35 -9 5 16 32 380
403 399 406 5 0 -22 -30 -60 -69z m-5759 36 c12 -13 11 -15 -6 -21 -11 -3 -20
-10 -20 -15 0 -5 7 -6 17 -3 11 4 14 3 9 -5 -4 -7 -14 -12 -22 -12 -16 0 -19
36 -4 45 6 4 8 11 5 16 -9 14 5 11 21 -5z m4801 -8 c-3 -8 -6 -5 -6 6 -1 11 2
17 5 13 3 -3 4 -12 1 -19z m1154 -83 c43 -45 46 -56 22 -76 -15 -13 -15 -12
-2 8 12 20 11 25 -10 47 -13 14 -28 23 -34 19 -6 -3 -7 -2 -4 4 4 6 -14 28
-38 49 -24 22 -45 43 -45 48 0 10 44 -29 111 -99z m-126 87 c-53 -42 -60 -46
-33 -19 16 15 31 27 35 27 4 0 3 -3 -2 -8z m-1272 -14 c-5 -7 -10 -26 -11 -42
-3 -45 -12 -44 -12 2 0 35 7 47 29 51 2 1 -1 -5 -6 -11z m637 -32 c0 -5 15
-26 33 -46 l32 -35 -33 30 c-32 28 -62 74 -62 92 1 11 30 -29 30 -41z m-3752
3 c-3 -8 -7 -3 -11 10 -4 17 -3 21 5 13 5 -5 8 -16 6 -23z m3926 9 c-37 -43
-64 -69 -64 -61 0 8 71 83 79 83 2 0 -4 -10 -15 -22z m-5099 -28 c22 -21 37
-41 34 -44 -3 -3 -25 15 -49 39 -54 55 -41 59 15 5z m4252 -7 c-3 -10 -5 -2
-5 17 0 19 2 27 5 18 2 -10 2 -26 0 -35z m893 43 c0 -2 -7 -7 -16 -10 -8 -3
-12 -2 -9 4 6 10 25 14 25 6z m-3949 -83 c-4 -94 -11 -93 -11 2 0 43 3 75 7
72 3 -4 5 -37 4 -74z m-1822 31 c4 3 8 -1 8 -9 0 -11 -4 -12 -13 -4 -10 8 -13
6 -13 -8 0 -10 -6 -43 -15 -73 -14 -50 -15 -51 -12 -15 6 61 30 154 34 127 2
-12 7 -20 11 -18z m1278 14 c-3 -8 -6 -5 -6 6 -1 11 2 17 5 13 3 -3 4 -12 1
-19z m3880 -20 c-3 -7 -5 -2 -5 12 0 14 2 19 5 13 2 -7 2 -19 0 -25z m555 -1
c-18 -18 -30 -36 -27 -40 3 -4 2 -5 -2 -2 -3 3 -16 -3 -27 -12 -15 -13 -14 -9
4 11 54 63 65 74 74 75 6 1 -5 -14 -22 -32z m-5395 1 c-3 -8 -6 -5 -6 6 -1 11
2 17 5 13 3 -3 4 -12 1 -19z m5080 -20 c-3 -7 -5 -2 -5 12 0 14 2 19 5 13 2
-7 2 -19 0 -25z m-4347 -8 c-12 -16 -24 -30 -26 -30 -7 0 5 20 24 43 24 27 25
20 2 -13z m227 8 c-3 -8 -6 -5 -6 6 -1 11 2 17 5 13 3 -3 4 -12 1 -19z m5410
-10 c-3 -7 -5 -2 -5 12 0 14 2 19 5 13 2 -7 2 -19 0 -25z m-6367 2 c0 -5 -4
-10 -10 -10 -5 0 -10 5 -10 10 0 6 5 10 10 10 6 0 10 -4 10 -10z m952 -19 c-9
-5 -12 -20 -8 -47 l6 -39 -11 34 c-11 37 -6 61 13 61 10 0 10 -2 0 -9z m4125
-28 c-3 -10 -5 -4 -5 12 0 17 2 24 5 18 2 -7 2 -21 0 -30z m-5096 -4 c-5 -13
-10 -19 -10 -12 -1 15 10 45 15 40 3 -2 0 -15 -5 -28z m5314 22 c3 -5 2 -12
-3 -15 -5 -3 -9 1 -9 9 0 17 3 19 12 6z m1085 -6 c0 -8 -4 -15 -10 -15 -5 0
-7 7 -4 15 4 8 8 15 10 15 2 0 4 -7 4 -15z m-6060 -5 c0 -5 -5 -10 -11 -10 -5
0 -7 5 -4 10 3 6 8 10 11 10 2 0 4 -4 4 -10z m4 -37 c-51 -64 -61 -74 -40 -38
18 29 66 85 74 85 2 0 -14 -21 -34 -47z m376 34 c0 -1 -23 -25 -52 -52 l-52
-50 44 51 c38 44 60 63 60 51z m30 -11 c0 -3 -4 -8 -10 -11 -5 -3 -10 -1 -10
4 0 6 5 11 10 11 6 0 10 -2 10 -4z m4107 -48 c-2 -13 -4 -5 -4 17 -1 22 1 32
4 23 2 -10 2 -28 0 -40z m214 21 c-5 -13 -10 -19 -10 -12 -1 15 10 45 15 40 3
-2 0 -15 -5 -28z m1024 -16 c14 -90 15 -104 5 -98 -6 3 -10 16 -10 29 0 13 -6
44 -14 69 -11 38 -12 47 -1 47 8 0 16 -19 20 -47z m-6390 13 c0 -13 -2 -27 -5
-30 -5 -4 -6 43 -1 52 4 8 7 -1 6 -22z m595 -10 c-14 -23 -19 -43 -15 -59 4
-14 2 -28 -3 -31 -6 -3 -8 3 -6 16 3 17 1 15 -10 -7 -9 -16 -15 -25 -16 -19
-1 25 54 134 67 134 3 0 -5 -15 -17 -34z m1389 -13 c0 -39 -2 -44 -9 -25 -5
12 -6 30 -3 39 5 12 3 14 -8 8 -12 -8 -12 -6 0 8 20 24 21 22 20 -30z m-854
-28 c11 -12 29 -32 40 -45 l20 -25 -21 18 c-11 9 -24 14 -27 10 -4 -3 -7 1 -7
10 0 8 -19 35 -42 58 -24 24 -29 32 -13 19 17 -14 39 -34 50 -45z m4292 43
c-3 -8 -6 -5 -6 6 -1 11 2 17 5 13 3 -3 4 -12 1 -19z m145 -5 c-10 -16 -23
-36 -29 -47 -9 -16 -11 -17 -16 -2 -5 12 -3 15 5 10 8 -5 9 -2 5 10 -4 10 -3
15 3 11 6 -3 10 -1 10 6 0 10 27 38 38 39 2 0 -5 -12 -16 -27z m738 24 c0 -2
-9 -12 -20 -22 -24 -21 -27 -14 -4 9 15 15 24 20 24 13z m-5950 -14 c-30 -2
-58 -7 -62 -11 -4 -4 -10 -36 -14 -72 -3 -36 -10 -69 -15 -74 -4 -5 -6 6 -4
25 11 92 18 125 28 131 7 4 37 7 67 6 l55 -2 -55 -3z m660 4 c0 -2 -15 -16
-32 -33 l-33 -29 29 33 c28 30 36 37 36 29z m-583 -44 c-3 -10 -5 -4 -5 12 0
17 2 24 5 18 2 -7 2 -21 0 -30z m4315 -7 c6 4 8 2 4 -4 -3 -6 -2 -13 4 -17 5
-3 10 -11 10 -16 0 -6 -4 -7 -10 -4 -5 3 -10 0 -11 -7 -2 -24 -17 37 -17 67 1
30 1 30 5 2 3 -16 9 -25 15 -21z m643 9 c-1 -19 -4 -38 -8 -41 -3 -3 -4 12 -2
33 4 44 4 43 9 43 2 0 3 -16 1 -35z m191 7 c-17 -16 -18 -16 -5 5 7 12 15 20
18 17 3 -2 -3 -12 -13 -22z m702 -191 c73 -68 130 -126 128 -129 -5 -4 -30 18
-156 138 -129 124 -192 186 -198 195 -7 13 60 -48 226 -204z m-5037 176 c-10
-9 -11 -8 -5 6 3 10 9 15 12 12 3 -3 0 -11 -7 -18z m-1312 -96 c-7 -55 -15
-98 -18 -96 -2 3 2 50 9 105 7 55 15 98 18 96 2 -3 -2 -50 -9 -105z m1370 106
c-2 -1 -12 -9 -22 -16 -15 -12 -17 -12 -11 3 3 9 13 16 22 16 8 0 13 -1 11 -3z
m4857 -39 c20 -18 22 -18 50 4 l29 22 -24 -27 c-14 -15 -27 -27 -30 -27 -3 1
-24 17 -46 37 -22 20 -31 30 -20 22 11 -7 29 -21 41 -31z m-1295 9 c-10 -9
-11 -8 -5 6 3 10 9 15 12 12 3 -3 0 -11 -7 -18z m286 1 c-3 -8 -6 -5 -6 6 -1
11 2 17 5 13 3 -3 4 -12 1 -19z m-4272 -18 c-10 -11 -22 -20 -26 -20 -5 0 2
10 14 23 27 28 38 25 12 -3z m4672 -6 c-6 -20 -13 -32 -14 -27 -4 11 14 63 21
63 2 0 -1 -16 -7 -36z m-4641 0 c-24 -21 -26 -27 -15 -37 8 -7 25 -25 39 -42
14 -18 6 -12 -20 13 l-45 42 30 25 c39 32 48 31 11 -1z m324 16 c0 -5 -4 -10
-10 -10 -5 0 -10 5 -10 10 0 6 5 10 10 10 6 0 10 -4 10 -10z m60 -23 c0 -1
-14 -2 -30 -3 -24 -1 -28 2 -19 12 8 10 16 11 30 3 10 -5 19 -11 19 -12z
m3817 1 c-3 -8 -6 -5 -6 6 -1 11 2 17 5 13 3 -3 4 -12 1 -19z m-4680 -121 c-2
-23 -3 -1 -3 48 0 50 1 68 3 42 2 -26 2 -67 0 -90z m1081 96 c-14 -55 -26 -61
-14 -8 6 25 14 45 17 45 4 0 3 -17 -3 -37z m3639 0 c-3 -10 -5 -4 -5 12 0 17
2 24 5 18 2 -7 2 -21 0 -30z m-5182 18 c3 -5 2 -12 -3 -15 -5 -3 -9 1 -9 9 0
17 3 19 12 6z m4823 -16 c-3 -3 -9 2 -12 12 -6 14 -5 15 5 6 7 -7 10 -15 7
-18z m629 -7 c-3 -8 -6 -5 -6 6 -1 11 2 17 5 13 3 -3 4 -12 1 -19z m1305 -11
c3 -26 0 -33 -14 -33 -12 0 -14 4 -8 10 6 6 10 20 10 33 0 34 7 28 12 -10z
m-5527 13 c-3 -5 -14 -10 -23 -9 -14 0 -13 2 3 9 27 11 27 11 20 0z m46 -2 c0
-10 2 -10 6 0 2 6 12 12 21 12 13 0 14 -2 4 -9 -8 -4 -14 -12 -14 -16 0 -4 6
-12 14 -16 7 -5 8 -9 2 -9 -6 0 -21 11 -34 25 -13 14 -18 25 -12 25 7 0 12 -6
13 -12z m3496 -10 c-3 -8 -6 -5 -6 6 -1 11 2 17 5 13 3 -3 4 -12 1 -19z m770
0 c-3 -8 -6 -5 -6 6 -1 11 2 17 5 13 3 -3 4 -12 1 -19z m-4664 -13 c-22 -17
-30 -11 -13 10 7 8 17 12 22 9 5 -3 1 -12 -9 -19z m4991 2 c-11 -6 -25 -18
-32 -26 -11 -13 -12 -13 -6 -1 12 24 38 48 48 42 5 -2 0 -9 -10 -15z m406 -12
c19 -19 32 -35 29 -35 -3 0 -20 16 -39 35 -19 19 -32 35 -29 35 3 0 20 -16 39
-35z m168 10 c-1 -14 -6 -25 -10 -25 -4 0 -8 11 -8 25 0 14 4 25 10 25 5 0 9
-11 8 -25z m-5877 -21 c-5 -16 -10 -21 -10 -12 -1 18 10 51 15 45 2 -1 -1 -16
-5 -33z m260 3 c-10 -9 -11 -8 -5 6 3 10 9 15 12 12 3 -3 0 -11 -7 -18z m4039
13 c0 -5 -2 -10 -4 -10 -3 0 -8 5 -11 10 -3 6 -1 10 4 10 6 0 11 -4 11 -10z
m317 -12 c-3 -8 -6 -5 -6 6 -1 11 2 17 5 13 3 -3 4 -12 1 -19z m380 0 c-3 -8
-6 -5 -6 6 -1 11 2 17 5 13 3 -3 4 -12 1 -19z m-4291 -3 c-1 -8 -6 -18 -11
-22 -4 -4 -5 -2 -1 5 4 7 2 12 -6 12 -9 0 -9 3 2 10 19 12 19 13 16 -5z m4269
5 c-4 -6 -7 -36 -7 -68 -1 -31 -3 -46 -6 -33 -3 19 -6 21 -13 10 -8 -11 -9
-10 -7 6 2 11 8 23 13 28 6 4 4 11 -5 17 -10 6 -11 10 -2 10 6 0 12 9 12 20 0
11 5 20 11 20 5 0 7 -5 4 -10z m-4550 -69 c17 -19 23 -30 14 -25 -8 5 -33 29
-55 53 -24 28 -29 38 -14 26 14 -10 39 -34 55 -54z m369 19 c6 -9 1 -5 -11 8
-13 13 -23 28 -23 35 0 7 6 3 12 -8 6 -11 16 -27 22 -35z m-1069 15 c-2 -36
-10 -39 -13 -5 -1 17 1 30 6 30 4 0 7 -11 7 -25z m292 3 c-3 -8 -6 -5 -6 6 -1
11 2 17 5 13 3 -3 4 -12 1 -19z m718 1 c-4 -5 -12 -9 -18 -8 -9 0 -8 2 1 6 6
2 9 10 6 15 -4 7 -2 8 5 4 6 -4 9 -12 6 -17z m4183 -4 c-3 -3 -9 2 -12 12 -6
14 -5 15 5 6 7 -7 10 -15 7 -18z m-3929 -22 c-2 -31 -3 -33 -6 -10 -3 18 -9
25 -16 20 -7 -4 -6 0 2 10 19 24 21 22 20 -20z m4901 -5 c0 -49 -6 -47 -14 5
-3 22 -2 37 4 37 6 0 10 -19 10 -42z m307 -5 c-3 -10 -5 -2 -5 17 0 19 2 27 5
18 2 -10 2 -26 0 -35z m-401 -3 c20 -22 41 -37 47 -33 6 4 7 1 2 -7 -6 -10 -4
-12 11 -6 15 6 16 5 7 -5 -10 -10 -22 -4 -57 27 -40 36 -63 64 -51 64 3 0 21
-18 41 -40z m-5529 -2 c-3 -7 -5 -2 -5 12 0 14 2 19 5 13 2 -7 2 -19 0 -25z
m194 6 c13 -14 17 -23 9 -19 -13 5 -46 45 -37 45 2 0 14 -11 28 -26z m300 11
c5 4 6 -1 2 -10 -5 -13 -7 -14 -14 -3 -5 7 -8 18 -8 23 0 6 3 4 6 -3 2 -6 9
-10 14 -7z m3709 -72 c0 -8 -9 0 -50 45 l-45 47 48 -45 c26 -24 47 -45 47 -47z
m-4483 40 c-3 -10 -5 -4 -5 12 0 17 2 24 5 18 2 -7 2 -21 0 -30z m5423 12 c13
-14 21 -25 18 -25 -2 0 -15 11 -28 25 -13 14 -21 25 -18 25 2 0 15 -11 28 -25z
m-5533 -137 c-2 -29 -3 -6 -3 52 0 58 1 81 3 53 2 -29 2 -77 0 -105z m360 45
c-2 -21 -4 -4 -4 37 0 41 2 58 4 38 2 -21 2 -55 0 -75z m714 74 c-7 -13 -22
-29 -34 -36 -18 -12 -17 -8 6 18 15 18 27 37 27 43 0 6 3 8 7 5 3 -4 1 -17 -6
-30z m5174 23 c3 -5 1 -10 -4 -10 -6 0 -11 5 -11 10 0 6 2 10 4 10 3 0 8 -4
11 -10z m-5297 -47 c12 -12 22 -26 22 -30 -1 -4 -9 2 -19 14 -10 12 -21 20
-25 18 -3 -3 -4 -2 -1 1 2 4 -4 14 -13 23 -12 10 -12 13 -2 7 8 -6 25 -20 38
-33z m4399 5 c-3 -7 -5 -2 -5 12 0 14 2 19 5 13 2 -7 2 -19 0 -25z m-4960 0
c-3 -8 -6 -5 -6 6 -1 11 2 17 5 13 3 -3 4 -12 1 -19z m248 -8 c26 -29 15 -32
-15 -4 -13 13 -20 24 -14 24 6 0 19 -9 29 -20z m345 11 c0 -5 8 -11 18 -13 11
-2 13 -6 6 -10 -6 -4 -19 1 -29 12 -10 12 -13 20 -7 20 7 0 12 -4 12 -9z
m-1147 -93 c-3 -49 -9 -88 -14 -88 -6 0 -3 91 6 155 3 27 4 29 9 24 2 -2 2
-43 -1 -91z m294 70 c-3 -8 -6 -5 -6 6 -1 11 2 17 5 13 3 -3 4 -12 1 -19z
m468 11 c11 -16 1 -19 -13 -3 -7 8 -8 14 -3 14 5 0 13 -5 16 -11z m4975 7 c0
-2 -8 -10 -17 -17 -16 -13 -17 -12 -4 4 13 16 21 21 21 13z m-5473 -83 c-2
-16 -4 -5 -4 22 0 28 2 40 4 28 2 -13 2 -35 0 -50z m290 -15 c-2 -18 -4 -6 -4
27 0 33 2 48 4 33 2 -15 2 -42 0 -60z m4700 50 c-3 -7 -5 -2 -5 12 0 14 2 19
5 13 2 -7 2 -19 0 -25z m-5590 0 c-3 -8 -6 -5 -6 6 -1 11 2 17 5 13 3 -3 4
-12 1 -19z m1073 -3 c-7 -8 -16 -15 -21 -15 -5 0 -1 8 9 18 20 22 31 19 12 -3z
m150 -46 c25 -25 53 -43 61 -41 11 3 11 2 -1 -7 -12 -8 -26 1 -67 42 -29 28
-53 58 -52 67 0 13 1 13 6 0 4 -8 27 -36 53 -61z m3876 39 l29 -33 -32 29
c-18 17 -33 31 -33 33 0 8 8 1 36 -29z m978 20 c-3 -7 -20 -24 -37 -37 l-32
-25 34 37 c38 40 43 44 35 25z m446 -30 c0 -23 -3 -38 -7 -34 -10 10 -11 76
-1 76 4 0 8 -19 8 -42z m-5893 -45 c-2 -16 -4 -3 -4 27 0 30 2 43 4 28 2 -16
2 -40 0 -55z m5528 57 c10 -11 16 -20 13 -20 -3 0 -13 9 -23 20 -10 11 -16 20
-13 20 3 0 13 -9 23 -20z m-5005 -10 c6 -11 8 -20 6 -20 -3 0 -10 9 -16 20 -6
11 -8 20 -6 20 3 0 10 -9 16 -20z m4702 -72 c2 -37 0 -62 -4 -55 -4 6 -7 44
-7 82 1 81 6 69 11 -27z m-4250 17 c-8 -15 -10 -15 -22 0 -11 13 -10 15 4 9
12 -5 16 0 17 22 1 24 3 25 6 7 2 -12 0 -30 -5 -38z m-622 -20 c-68 -69 -80
-76 -80 -47 0 11 3 13 8 6 4 -8 28 9 67 47 33 32 62 59 65 59 2 0 -25 -29 -60
-65z m100 62 c0 -2 -18 -21 -40 -42 -22 -21 -40 -36 -40 -33 0 4 17 23 38 42
36 35 42 39 42 33z m5100 -32 c19 -19 32 -35 29 -35 -3 0 -20 16 -39 35 -19
19 -32 35 -29 35 3 0 20 -16 39 -35z m-613 -7 c-3 -7 -5 -2 -5 12 0 14 2 19 5
13 2 -7 2 -19 0 -25z m42 -146 c7 -13 10 -26 8 -29 -3 -2 -8 5 -12 16 -3 12
-11 21 -17 21 -5 0 -8 6 -5 13 3 7 -1 24 -9 38 -15 27 -19 52 -4 29 7 -11 10
0 11 40 2 49 3 46 9 -25 3 -44 12 -91 19 -103z m636 116 c36 -37 44 -49 21
-29 -37 31 -92 91 -84 91 2 0 30 -28 63 -62z m-5378 5 c-3 -10 -5 -2 -5 17 0
19 2 27 5 18 2 -10 2 -26 0 -35z m404 30 c13 -16 12 -17 -3 -4 -10 7 -18 15
-18 17 0 8 8 3 21 -13z m3933 -26 c8 -31 3 -30 -16 3 -12 21 -13 27 -3 24 7
-3 16 -15 19 -27z m806 29 c0 -2 -8 -10 -17 -17 -16 -13 -17 -12 -4 4 13 16
21 21 21 13z m-5413 -53 c-3 -10 -5 -2 -5 17 0 19 2 27 5 18 2 -10 2 -26 0
-35z m5929 -133 c1 -95 -2 -170 -7 -170 -5 0 -9 79 -9 177 0 97 3 173 7 169 4
-4 8 -83 9 -176z m315 -40 c0 -117 -3 -215 -6 -218 -3 -3 -5 95 -5 218 0 123
3 221 6 218 3 -3 5 -102 5 -218z m-6314 68 c-2 -29 -3 -8 -3 47 0 55 1 79 3
53 2 -26 2 -71 0 -100z m4651 107 c-3 -3 -9 2 -12 12 -6 14 -5 15 5 6 7 -7 10
-15 7 -18z m783 8 c-13 -25 -111 -119 -111 -108 0 8 108 122 118 124 1 1 -2
-7 -7 -16z m-4631 -8 c0 -2 -9 -3 -19 -2 -11 0 -18 5 -15 9 4 6 34 0 34 -7z
m-703 -37 c-3 -7 -5 -2 -5 12 0 14 2 19 5 13 2 -7 2 -19 0 -25z m372 30 c-3
-2 -34 -30 -69 -63 l-65 -60 60 63 c33 34 64 62 69 62 5 0 7 -1 5 -2z m4901
-13 c0 -12 -19 -12 -23 0 -4 9 -1 12 9 8 7 -3 14 -7 14 -8z m-4551 -41 c5 4 7
-3 4 -14 -5 -18 -8 -16 -34 16 -35 45 -38 60 -4 21 14 -16 29 -26 34 -23z
m4268 24 c-3 -8 -6 -5 -6 6 -1 11 2 17 5 13 3 -3 4 -12 1 -19z m-5292 -28 c-2
-57 -15 -63 -15 -7 0 26 4 47 8 47 5 0 8 -18 7 -40z m948 17 c7 3 8 2 4 -2
-14 -16 -36 -14 -29 3 4 10 7 12 10 4 2 -7 9 -9 15 -5z m-654 -42 c0 -5 -4 -3
-9 5 -5 8 -9 22 -9 30 0 16 17 -16 18 -35z m1041 39 c0 -8 -19 -13 -24 -6 -3
5 1 9 9 9 8 0 15 -2 15 -3z m-992 -65 c11 0 12 -2 4 -6 -9 -3 -7 -12 9 -34 11
-16 18 -29 14 -29 -10 0 -65 93 -64 109 0 9 5 4 11 -11 5 -16 17 -28 26 -29z
m5117 -17 c-41 -40 -48 -45 -25 -17 43 52 74 82 80 78 2 -2 -22 -29 -55 -61z
m-4945 13 c-46 -47 -67 -61 -34 -23 23 27 67 67 74 68 2 0 -16 -20 -40 -45z
m481 28 c13 -17 13 -17 -6 -3 -11 8 -22 16 -24 17 -2 2 0 3 6 3 6 0 17 -8 24
-17z m4328 -28 c0 -5 -6 -1 -14 9 -8 11 -15 24 -15 30 0 5 7 1 15 -10 8 -10
14 -23 14 -29z m-2403 10 c9 -13 14 -30 12 -36 -2 -7 -10 2 -17 19 -15 36 -45
43 -68 15 -13 -16 -13 -16 -3 5 15 30 55 29 76 -3z m484 21 c0 -2 -11 -6 -25
-8 -13 -3 -22 -1 -19 3 5 9 44 13 44 5z m2578 -27 c-3 -8 -7 -3 -11 10 -4 17
-3 21 5 13 5 -5 8 -16 6 -23z m32 -28 c0 -45 -6 -37 -13 18 -4 29 -2 40 4 30
5 -7 9 -29 9 -48z m-5070 34 c-9 -11 -9 -15 -1 -15 7 0 9 -5 5 -11 -4 -7 -9
-8 -17 0 -7 7 -6 15 3 26 7 8 15 15 17 15 3 0 0 -7 -7 -15z m106 -22 c-7 -7
-26 7 -26 19 0 6 6 6 15 -2 9 -7 13 -15 11 -17z m4188 11 c3 -8 2 -12 -4 -9
-6 3 -10 10 -10 16 0 14 7 11 14 -7z m-4224 -10 c0 -8 -5 -12 -10 -9 -6 4 -8
11 -5 16 9 14 15 11 15 -7z m4490 12 c0 -9 -98 -117 -126 -138 -16 -13 4 14
45 60 72 78 81 88 81 78z m-5503 -19 c0 -8 -6 -14 -13 -14 -7 0 -10 6 -7 14 3
7 8 13 12 13 4 0 8 -6 8 -13z m1252 -9 c-13 -25 -54 -79 -48 -63 8 18 51 85
55 85 3 0 -1 -10 -7 -22z m2189 -9 c-3 -8 -7 -3 -11 10 -4 17 -3 21 5 13 5 -5
8 -16 6 -23z m1547 20 c11 -17 -1 -21 -15 -4 -8 9 -8 15 -2 15 6 0 14 -5 17
-11z m815 -46 c-28 -32 -46 -59 -40 -61 13 -5 -27 -52 -43 -52 -6 0 0 9 13 20
13 11 20 23 17 26 -3 4 -39 -24 -79 -62 -63 -60 -66 -62 -22 -14 56 60 197
200 202 200 2 0 -19 -26 -48 -57z m90 52 c0 -2 -10 -10 -22 -16 -21 -11 -22
-11 -9 4 13 16 31 23 31 12z m-5375 -29 c-9 -14 -28 -32 -43 -42 -21 -13 -18
-7 13 25 45 47 52 51 30 17z m4725 -18 c0 -4 -8 -8 -17 -7 -11 0 -13 3 -6 6
10 3 10 10 2 26 -10 21 -10 21 5 3 9 -11 16 -23 16 -28z m747 -215 c-1 -49 -3
-9 -3 87 0 96 2 136 3 88 2 -49 2 -127 0 -175z m-5656 215 c8 -15 8 -18 0 -14
-6 4 -16 16 -22 28 -8 15 -8 18 0 14 6 -4 16 -16 22 -28z m576 10 c-3 -8 -6
-5 -6 6 -1 11 2 17 5 13 3 -3 4 -12 1 -19z m4408 13 c3 -5 2 -12 -3 -15 -5 -3
-9 1 -9 9 0 17 3 19 12 6z m-4428 -16 c0 -8 -2 -13 -5 -11 -5 6 -47 -32 -48
-45 -1 -5 -2 -13 -3 -19 -2 -14 -21 -12 -21 2 0 9 68 88 75 88 1 0 2 -7 2 -15z
m123 11 c0 -2 -7 -7 -16 -10 -8 -3 -12 -2 -9 4 6 10 25 14 25 6z m-1015 -119
c0 -122 4 -155 15 -137 4 6 5 -13 2 -42 -2 -32 2 -70 11 -96 12 -35 13 -41 1
-31 -8 6 -14 8 -15 3 -4 -38 -26 154 -28 241 -2 61 -4 121 -5 135 -2 27 1 40
12 40 4 0 7 -51 7 -113z m202 91 c-3 -8 -6 -5 -6 6 -1 11 2 17 5 13 3 -3 4
-12 1 -19z m2740 -10 c-3 -7 -5 -2 -5 12 0 14 2 19 5 13 2 -7 2 -19 0 -25z
m390 0 c-3 -7 -5 -2 -5 12 0 14 2 19 5 13 2 -7 2 -19 0 -25z m1683 12 c6 -11
8 -20 6 -20 -3 0 -10 9 -16 20 -6 11 -8 20 -6 20 3 0 10 -9 16 -20z m-4833
-22 c-3 -7 -5 -2 -5 12 0 14 2 19 5 13 2 -7 2 -19 0 -25z m828 15 c-2 -10 -4
-22 -4 -26 -1 -5 -6 -5 -12 -1 -8 4 -7 9 2 15 8 5 10 9 6 9 -5 0 -5 5 -2 10 9
15 14 12 10 -7z m2442 -15 c-3 -7 -5 -2 -5 12 0 14 2 19 5 13 2 -7 2 -19 0
-25z m1943 16 c0 -8 -19 -13 -24 -6 -3 5 1 9 9 9 8 0 15 -2 15 -3z m-4978 -18
c10 6 11 4 0 -7 -10 -11 -15 -10 -30 6 -15 17 -15 18 0 6 9 -7 23 -9 30 -5z
m4822 2 c-3 -4 -9 -8 -15 -8 -5 0 -9 4 -9 8 0 5 7 9 15 9 8 0 12 -4 9 -9z
m-4859 -18 c10 -11 16 -20 13 -20 -3 0 -13 9 -23 20 -10 11 -16 20 -13 20 3 0
13 -9 23 -20z m818 -20 c-3 -12 -8 -19 -11 -16 -5 6 5 36 12 36 2 0 2 -9 -1
-20z m1754 -72 c-2 -18 -4 -4 -4 32 0 36 2 50 4 33 2 -18 2 -48 0 -65z m370
45 c-3 -10 -5 -2 -5 17 0 19 2 27 5 18 2 -10 2 -26 0 -35z m1868 16 c-6 -32
-12 -34 -12 -4 0 14 3 25 8 25 4 0 6 -10 4 -21z m635 -19 c12 -16 19 -30 16
-30 -2 0 -14 14 -26 30 -12 17 -19 30 -16 30 2 0 14 -13 26 -30z m-5643 -2
c-3 -8 -6 -5 -6 6 -1 11 2 17 5 13 3 -3 4 -12 1 -19z m408 -148 c-93 -93 -170
-168 -172 -166 -3 3 330 336 337 336 3 0 -71 -76 -165 -170z m420 161 c3 -5 2
-12 -3 -15 -5 -3 -9 1 -9 9 0 17 3 19 12 6z m1807 -58 c2 -23 0 -39 -4 -37 -5
3 -7 29 -7 57 1 56 6 48 11 -20z m645 30 c-3 -10 -5 -4 -5 12 0 17 2 24 5 18
2 -7 2 -21 0 -30z m-2636 10 c13 -16 12 -17 -3 -4 -10 7 -18 15 -18 17 0 8 8
3 21 -13z m74 -57 c23 -46 18 -56 -6 -11 -12 22 -31 51 -43 65 l-21 25 28 -24
c15 -14 34 -38 42 -55z m4408 42 c-32 -33 -39 -35 -39 -9 0 14 4 17 12 10 11
-9 39 12 29 23 -3 2 2 5 10 5 11 0 8 -8 -12 -29z m-5126 -20 c-3 -8 -6 -5 -6
6 -1 11 2 17 5 13 3 -3 4 -12 1 -19z m153 18 c0 -2 -8 -10 -17 -17 -16 -13
-17 -12 -4 4 13 16 21 21 21 13z m412 -13 c-43 -41 -64 -55 -33 -20 19 20 39
37 43 37 4 0 0 -8 -10 -17z m-535 -15 c-3 -8 -6 -5 -6 6 -1 11 2 17 5 13 3 -3
4 -12 1 -19z m647 6 c3 -8 2 -12 -4 -9 -6 3 -10 10 -10 16 0 14 7 11 14 -7z
m4221 7 c-3 -5 -1 -12 4 -15 5 -3 6 -16 3 -28 -5 -22 -6 -21 -13 6 -8 27 -5
46 7 46 3 0 3 -4 -1 -9z m255 5 c0 -2 -7 -7 -16 -10 -8 -3 -12 -2 -9 4 6 10
25 14 25 6z m375 -6 c-3 -5 -12 -10 -18 -10 -7 0 -6 4 3 10 19 12 23 12 15 0z
m126 -17 c13 -16 12 -17 -3 -4 -10 7 -18 15 -18 17 0 8 8 3 21 -13z m-4675
-20 c-10 -10 -19 5 -10 18 6 11 8 11 12 0 2 -7 1 -15 -2 -18z m4047 1 c12 3
26 5 30 5 5 1 5 6 1 13 -4 7 -3 8 4 4 17 -10 3 -35 -18 -31 -10 2 -21 -3 -24
-12 -5 -11 -2 -14 11 -9 15 6 16 5 5 -6 -11 -11 -16 -10 -28 6 -8 11 -13 29
-13 40 1 17 2 18 6 4 3 -12 12 -16 26 -14z m-4945 -21 c-31 -30 -40 -35 -50
-25 -11 11 -10 12 2 7 10 -3 27 6 45 25 16 16 31 30 34 30 3 0 -11 -17 -31
-37z m3191 -10 c-11 -57 -23 -73 -14 -18 8 47 13 65 18 65 3 0 0 -21 -4 -47z
m1841 32 c-7 -8 -17 -15 -23 -15 -6 0 -2 7 9 15 25 19 30 19 14 0z m-5083 -17
c-3 -8 -6 -5 -6 6 -1 11 2 17 5 13 3 -3 4 -12 1 -19z m682 -18 c5 -16 8 -30 6
-30 -3 0 -11 14 -20 30 -9 17 -11 30 -6 30 5 0 14 -13 20 -30z m4771 26 c0 -2
-8 -10 -17 -17 -16 -13 -17 -12 -4 4 13 16 21 21 21 13z m-4726 -22 c3 -8 2
-12 -4 -9 -6 3 -10 10 -10 16 0 14 7 11 14 -7z m4242 -11 c13 -20 13 -25 2
-16 -8 7 -17 11 -19 8 -3 -2 -5 5 -5 15 0 25 0 25 22 -7z m-4506 13 c0 -2 -8
-10 -17 -17 -16 -13 -17 -12 -4 4 13 16 21 21 21 13z m2154 -31 c5 -22 4 -26
-4 -15 -5 8 -10 24 -10 34 0 26 6 18 14 -19z m113 13 c-3 -8 -6 -5 -6 6 -1 11
2 17 5 13 3 -3 4 -12 1 -19z m2328 4 c-3 -3 -11 0 -18 7 -9 10 -8 11 6 5 10
-3 15 -9 12 -12z m922 3 c0 -8 -4 -15 -9 -15 -10 0 -11 14 -1 23 9 10 10 9 10
-8z m-622 -25 c-16 -16 -32 -30 -37 -30 -8 0 53 59 61 60 3 0 -8 -13 -24 -30z
m-4629 -36 c6 -49 -6 -37 -16 16 -5 26 -4 38 2 32 5 -5 11 -26 14 -48z m4151
34 c-3 -8 -6 -5 -6 6 -1 11 2 17 5 13 3 -3 4 -12 1 -19z m533 18 c0 -2 -8 -10
-17 -17 -16 -13 -17 -12 -4 4 13 16 21 21 21 13z m-350 -12 c0 -8 -19 -13 -24
-6 -3 5 1 9 9 9 8 0 15 -2 15 -3z m-4809 -265 c70 -69 83 -84 30 -34 -184 173
-256 242 -281 271 -29 35 79 -68 251 -237z m516 246 c0 -8 -4 -12 -9 -9 -5 3
-6 10 -3 15 9 13 12 11 12 -6z m60 -7 c-3 -8 -6 -5 -6 6 -1 11 2 17 5 13 3 -3
4 -12 1 -19z m5149 -3 c1 -8 -1 -17 -5 -19 -4 -3 -8 7 -9 21 -2 27 10 25 14
-2z m-986 0 c7 -9 8 -15 2 -15 -5 0 -12 7 -16 15 -3 8 -4 15 -2 15 2 0 9 -7
16 -15z m-4870 -72 c41 -43 58 -62 36 -43 -61 55 -124 120 -117 120 4 0 40
-35 81 -77z m335 -81 c0 -126 -7 -182 -24 -182 -5 0 -3 17 5 38 18 51 18 229
-1 262 -20 35 -19 48 3 27 14 -15 17 -37 17 -145z m245 104 c0 -39 -6 -30 -13
19 -4 27 -3 35 3 25 5 -8 10 -28 10 -44z m-286 28 c9 -24 2 -26 -12 -4 -7 11
-8 20 -3 20 5 0 12 -7 15 -16z m513 -61 c-2 -16 -4 -3 -4 27 0 30 2 43 4 28 2
-16 2 -40 0 -55z m2227 50 c11 -13 16 -23 13 -23 -10 0 -37 31 -37 42 0 6 1 9
3 7 1 -2 11 -14 21 -26z m2196 19 c0 -5 -21 -31 -47 -58 -52 -54 -45 -33 8 26
38 43 39 43 39 32z m317 -74 c-2 -18 -4 -6 -4 27 0 33 2 48 4 33 2 -15 2 -42
0 -60z m-4840 50 c-3 -8 -6 -5 -6 6 -1 11 2 17 5 13 3 -3 4 -12 1 -19z m4241
-31 c32 -33 47 -54 38 -54 -9 0 -14 2 -12 4 5 5 -39 53 -48 53 -4 0 -5 -4 -2
-8 3 -5 -1 -9 -9 -9 -8 0 -15 4 -15 9 0 4 5 8 11 8 7 0 5 10 -5 25 -9 14 -15
25 -13 25 1 0 26 -24 55 -53z m21 18 c11 -19 19 -35 18 -35 -1 0 -17 16 -36
35 -23 24 -29 35 -18 35 8 0 24 -16 36 -35z m-2420 -4 c-6 -2 -18 4 -27 13
-15 15 -15 15 10 4 15 -7 23 -15 17 -17z m3028 -28 c-3 -10 -5 -4 -5 12 0 17
2 24 5 18 2 -7 2 -21 0 -30z m80 5 c-3 -7 -5 -2 -5 12 0 14 2 19 5 13 2 -7 2
-19 0 -25z m-4950 -10 c-3 -7 -5 -2 -5 12 0 14 2 19 5 13 2 -7 2 -19 0 -25z
m4443 29 c0 -2 -17 -19 -37 -38 l-38 -34 34 38 c33 34 41 42 41 34z m129 -37
c0 -10 -3 -8 -9 5 -12 27 -12 43 0 25 5 -8 9 -22 9 -30z m-5119 -26 l-55 -55
33 -30 c19 -17 32 -32 30 -35 -3 -2 -20 12 -38 31 l-34 35 54 55 c30 30 57 55
59 55 3 0 -19 -25 -49 -56z m5690 41 c0 -8 -4 -15 -10 -15 -5 0 -7 7 -4 15 4
8 8 15 10 15 2 0 4 -7 4 -15z m-6476 -21 c3 -8 2 -12 -4 -9 -6 3 -10 10 -10
16 0 14 7 11 14 -7z m5933 -6 c-3 -8 -6 -5 -6 6 -1 11 2 17 5 13 3 -3 4 -12 1
-19z m-238 -35 c2 -2 -2 -3 -10 -3 -8 0 -23 13 -33 28 l-19 27 29 -25 c16 -14
31 -26 33 -27z m588 25 c-3 -8 -6 -5 -6 6 -1 11 2 17 5 13 3 -3 4 -12 1 -19z
m-6227 2 c0 -5 -2 -10 -4 -10 -3 0 -8 5 -11 10 -3 6 -1 10 4 10 6 0 11 -4 11
-10z m4333 3 c-7 -2 -21 -2 -30 0 -10 3 -4 5 12 5 17 0 24 -2 18 -5z m1814
-15 c-3 -8 -6 -5 -6 6 -1 11 2 17 5 13 3 -3 4 -12 1 -19z m580 -30 c-2 -13 -4
-5 -4 17 -1 22 1 32 4 23 2 -10 2 -28 0 -40z m-2327 32 c11 -8 7 -9 -15 -4
-37 8 -45 14 -19 14 10 0 26 -5 34 -10z m1457 -37 c-3 -10 -5 -2 -5 17 0 19 2
27 5 18 2 -10 2 -26 0 -35z m-4576 -138 c-1 -141 1 -169 15 -183 14 -13 14
-17 3 -20 -8 -3 -22 -11 -32 -20 -9 -8 -19 -13 -21 -11 -9 11 -14 66 -7 78 5
7 5 28 1 47 -4 19 -4 37 1 40 5 3 10 29 11 57 1 29 5 -2 8 -68 6 -115 6 -112
8 69 1 104 5 187 8 184 3 -3 5 -81 5 -173z m4393 150 c-9 -14 -18 -25 -21 -25
-5 0 5 18 20 38 17 22 18 13 1 -13z m214 -31 l-3 -39 -5 47 c-3 26 -1 43 3 39
5 -5 7 -26 5 -47z m233 -31 c-3 -107 -11 -106 -11 2 0 49 3 85 7 82 3 -4 5
-42 4 -84z m-6204 55 c-3 -8 -6 -5 -6 6 -1 11 2 17 5 13 3 -3 4 -12 1 -19z
m1482 -52 c1 -19 1 -19 -13 -1 -7 10 -12 26 -11 34 2 9 4 23 5 31 3 17 17 -34
19 -64z m3046 64 c3 -6 -1 -7 -9 -4 -18 7 -21 14 -7 14 6 0 13 -4 16 -10z
m1183 -33 c41 -42 60 -76 24 -44 -10 10 -22 14 -27 10 -4 -5 -5 -3 -2 3 9 15
-40 67 -55 58 -7 -4 -8 -3 -4 4 11 19 19 15 64 -31z m782 23 c0 -5 -5 -10 -11
-10 -5 0 -7 5 -4 10 3 6 8 10 11 10 2 0 4 -4 4 -10z m-5263 -47 c-3 -10 -5 -2
-5 17 0 19 2 27 5 18 2 -10 2 -26 0 -35z m93 33 c0 -2 -7 -7 -16 -10 -8 -3
-12 -2 -9 4 6 10 25 14 25 6z m4082 -38 c-6 -6 -8 -1 -7 14 3 32 7 36 12 14 3
-10 1 -22 -5 -28z m-5065 0 c-3 -7 -5 -2 -5 12 0 14 2 19 5 13 2 -7 2 -19 0
-25z m75 12 c12 -11 19 -22 16 -25 -2 -3 -15 6 -28 20 -28 30 -18 34 12 5z
m-405 -22 c-3 -7 -5 -2 -5 12 0 14 2 19 5 13 2 -7 2 -19 0 -25z m381 2 c7 -11
11 -20 9 -20 -7 0 -47 37 -47 43 0 12 26 -4 38 -23z m5442 -56 c13 -16 1 -7
-28 21 -28 27 -52 52 -52 56 0 8 39 -30 80 -77z m660 82 c0 -3 -4 -8 -10 -11
-5 -3 -10 -1 -10 4 0 6 5 11 10 11 6 0 10 -2 10 -4z m-5153 -28 c-3 -8 -6 -5
-6 6 -1 11 2 17 5 13 3 -3 4 -12 1 -19z m4604 -10 c-3 -21 -6 -26 -9 -15 -3
17 3 47 11 47 2 0 1 -15 -2 -32z m366 -5 c-3 -10 -5 -4 -5 12 0 17 2 24 5 18
2 -7 2 -21 0 -30z m-5354 -64 c-5 -18 -15 -35 -22 -37 -9 -3 -8 4 3 26 9 17
17 46 17 64 2 29 3 30 6 7 2 -15 0 -42 -4 -60z m298 35 c3 -61 -11 -141 -27
-161 -14 -17 -14 -16 -4 5 6 13 14 64 17 113 6 93 12 111 14 43z m5203 -94
c-25 -132 -63 -263 -76 -268 -4 -2 -5 -9 -1 -15 3 -7 2 -9 -2 -4 -5 4 -20 -3
-34 -15 l-26 -23 21 25 c47 55 84 167 61 182 -8 5 -6 8 6 8 11 0 17 5 14 13
-2 6 0 20 5 31 11 20 39 159 39 190 0 11 4 15 9 10 4 -5 -2 -64 -16 -134z
m-6094 120 c0 -5 -4 -10 -10 -10 -5 0 -10 5 -10 10 0 6 5 10 10 10 6 0 10 -4
10 -10z m867 -22 c-3 -7 -5 -2 -5 12 0 14 2 19 5 13 2 -7 2 -19 0 -25z m4173
23 c0 -6 -4 -13 -10 -16 -5 -3 -10 1 -10 9 0 9 5 16 10 16 6 0 10 -4 10 -9z
m-4949 -38 c27 -29 28 -32 7 -17 -22 16 -54 54 -45 54 2 0 19 -16 38 -37z
m1070 -50 c5 -15 4 -25 -4 -29 -7 -4 -9 -4 -5 0 3 4 -2 28 -13 53 -10 24 -19
50 -19 56 1 11 19 -26 41 -80z m-665 56 c19 -22 19 -22 -3 -8 -13 8 -23 17
-23 21 0 12 6 9 26 -13z m-482 -76 c10 -49 20 -99 22 -113 4 -17 2 -22 -5 -15
-5 6 -12 28 -15 50 -3 22 -8 51 -11 65 -4 14 -8 38 -11 53 -2 16 -6 33 -9 38
-4 5 -2 9 3 9 5 0 17 -39 26 -87z m2483 65 c-3 -8 -6 -5 -6 6 -1 11 2 17 5 13
3 -3 4 -12 1 -19z m3457 -81 c0 -63 3 -105 10 -109 7 -5 4 -8 -6 -8 -16 0 -18
12 -18 110 0 61 3 110 8 110 4 0 7 -46 6 -103z m-6297 61 c-3 -7 -5 -2 -5 12
0 14 2 19 5 13 2 -7 2 -19 0 -25z m27 16 c3 -8 2 -12 -4 -9 -6 3 -10 10 -10
16 0 14 7 11 14 -7z m2213 -6 c-3 -8 -6 -5 -6 6 -1 11 2 17 5 13 3 -3 4 -12 1
-19z m3149 7 c9 -8 11 -15 6 -15 -5 0 -15 7 -22 15 -7 8 -9 15 -6 15 4 0 14
-7 22 -15z m425 -27 c42 -47 45 -53 27 -64 -7 -5 -8 -3 -3 5 5 8 -8 29 -36 57
-24 24 -40 44 -35 44 4 0 25 -19 47 -42z m90 15 c-12 -20 -14 -14 -5 12 4 9 9
14 11 11 3 -2 0 -13 -6 -23z m-4700 -25 c-4 -35 -6 -38 -9 -15 -3 26 3 57 10
57 2 0 1 -19 -1 -42z m-711 22 c0 -5 -2 -10 -4 -10 -3 0 -8 5 -11 10 -3 6 -1
10 4 10 6 0 11 -4 11 -10z m2318 -84 c-18 -20 -37 -36 -42 -36 -4 0 8 18 28
40 20 22 37 50 37 63 2 18 3 18 6 -5 3 -19 -5 -36 -29 -62z m1212 54 c0 -10 5
-22 10 -25 6 -3 10 -11 10 -17 0 -6 -9 1 -20 15 -21 26 -28 63 -10 52 6 -3 10
-15 10 -25z m1333 9 c-8 -8 -13 -7 -18 2 -5 8 -4 10 3 5 7 -4 12 -2 12 5 0 7
3 9 7 6 4 -4 2 -12 -4 -18z m-3996 -11 c-3 -8 -6 -5 -6 6 -1 11 2 17 5 13 3
-3 4 -12 1 -19z m4028 12 c3 -5 1 -10 -4 -10 -6 0 -11 5 -11 10 0 6 2 10 4 10
3 0 8 -4 11 -10z m-5356 -135 c-1 -11 -7 7 -15 40 -7 33 -13 69 -13 80 1 11 7
-7 15 -40 7 -33 13 -69 13 -80z m536 83 l50 -53 -55 50 c-30 28 -57 51 -59 53
-2 1 0 2 5 2 5 0 32 -24 59 -52z m4917 12 c22 -16 36 -30 31 -30 -6 0 -27 14
-48 30 -21 17 -35 30 -31 30 3 0 25 -13 48 -30z m705 -2 c-3 -8 -6 -5 -6 6 -1
11 2 17 5 13 3 -3 4 -12 1 -19z m-6130 -7 c0 -11 -5 -18 -9 -15 -4 3 -5 11 -1
19 7 21 12 19 10 -4z m5249 -26 c-23 -24 -27 -18 -8 15 11 20 18 25 20 15 2
-8 -3 -22 -12 -30z m-4796 32 c0 -2 -12 -14 -27 -28 l-28 -24 24 28 c23 25 31
32 31 24z m4949 -50 c-12 -42 -12 -127 1 -127 5 0 7 7 4 15 -4 8 -1 15 5 15 6
0 11 -7 11 -15 0 -8 5 -15 10 -15 6 0 10 -3 10 -7 0 -5 -21 -8 -48 -7 -26 0
-54 -3 -63 -7 -9 -5 -21 -3 -27 3 -5 5 -29 9 -51 6 -22 -2 -37 0 -33 4 4 4 31
9 61 11 30 3 47 1 40 -4 -7 -4 -11 -11 -7 -14 3 -3 13 1 21 9 8 9 17 12 19 6
2 -5 8 -6 15 -2 13 8 20 112 8 132 -5 8 -4 11 2 7 6 -4 13 -1 16 7 8 20 -4 28
-20 15 -8 -8 -13 -8 -13 -1 0 15 23 21 37 10 8 -6 9 -19 2 -41z m395 9 c-15
-19 -31 -33 -36 -30 -4 3 7 20 25 39 40 43 48 37 11 -9z m881 35 c-3 -5 -1
-12 5 -16 5 -3 10 -11 10 -18 0 -6 -6 -2 -14 8 -13 18 -13 35 0 35 3 0 3 -4
-1 -9z m-5859 -44 c-20 -24 -62 -67 -94 -94 -32 -28 -91 -83 -131 -122 -88
-86 -109 -95 -26 -11 33 33 55 60 49 60 -5 0 -25 -16 -44 -35 -19 -19 -38 -35
-42 -35 -4 0 0 8 10 18 11 9 38 35 61 57 23 22 39 32 36 23 -14 -35 12 -16
110 81 55 55 101 100 103 100 2 1 -13 -19 -32 -42z m306 1 c-6 -6 -7 0 -4 19
5 21 7 23 10 9 2 -10 0 -22 -6 -28z m-636 20 c5 -7 3 -8 -5 -3 -9 5 -37 -16
-81 -60 -63 -62 -67 -70 -59 -95 6 -15 23 -40 39 -55 17 -16 30 -33 30 -38 0
-5 -12 6 -26 23 -15 17 -28 29 -31 27 -8 -9 9 -57 21 -57 6 0 81 -70 166 -155
85 -85 159 -155 164 -155 5 0 0 10 -12 23 l-21 22 45 49 c25 26 48 46 50 43 3
-2 -16 -25 -41 -50 -26 -25 -43 -47 -38 -49 4 -2 31 -28 58 -58 28 -30 35 -42
18 -26 -41 37 -43 22 -3 -21 38 -40 39 -56 2 -20 -16 15 -31 24 -35 20 -4 -3
-7 0 -7 8 0 8 -24 38 -54 66 -30 29 -52 53 -50 56 2 2 -48 54 -112 116 -64 62
-118 111 -120 108 -12 -12 109 -305 205 -495 17 -34 32 -65 32 -69 1 -5 8 -17
15 -28 17 -24 18 -32 1 -32 -8 0 -14 5 -14 11 0 6 -13 38 -29 71 -16 33 -29
62 -29 65 0 3 -9 17 -19 33 -10 15 -24 42 -31 60 -6 17 -22 54 -34 81 -13 27
-24 54 -25 60 -1 6 -4 16 -8 21 -23 38 -108 274 -105 293 2 12 1 22 -3 22 -4
0 -10 14 -12 31 -4 24 1 37 24 59 16 16 26 35 22 43 -3 8 -1 18 5 22 7 3 8 0
5 -9 -10 -27 11 -18 43 19 33 37 47 43 59 23z m324 9 c0 -2 -19 -21 -42 -42
-23 -22 -36 -31 -28 -20 21 27 70 71 70 62z m4678 -19 c-2 -4 24 -28 57 -53
64 -50 91 -74 65 -59 -64 35 -169 135 -129 122 6 -2 9 -6 7 -10z m-1474 -14
c3 -8 2 -12 -4 -9 -6 3 -10 10 -10 16 0 14 7 11 14 -7z m1431 6 c3 -6 -1 -7
-9 -4 -18 7 -21 14 -7 14 6 0 13 -4 16 -10z m-975 -17 c-14 -9 -27 -20 -30
-24 -3 -5 -26 -11 -50 -14 l-45 -6 53 19 c29 11 58 24 65 31 6 6 16 11 21 11
6 0 -1 -8 -14 -17z m-1776 -1 c3 -5 0 -9 -7 -9 -7 0 -21 -4 -32 -7 -13 -5 -12
-2 5 8 30 18 28 18 34 8z m2723 -54 c-2 -13 -4 -3 -4 22 0 25 2 35 4 23 2 -13
2 -33 0 -45z m83 24 c0 -1 -9 2 -20 8 -11 6 -20 15 -20 20 0 6 9 2 20 -7 11
-10 20 -19 20 -21z m571 15 c-10 -9 -11 -8 -5 6 3 10 9 15 12 12 3 -3 0 -11
-7 -18z m-375 -25 c-16 -15 -25 -21 -21 -13 12 21 39 48 44 44 3 -2 -8 -16
-23 -31z m384 -7 c-12 -20 -24 -34 -27 -32 -5 5 40 76 46 71 2 -1 -7 -19 -19
-39z m-5420 -35 c4 0 15 9 25 20 10 11 22 20 27 20 5 0 -4 -12 -21 -26 -35
-29 -48 -25 -96 27 -29 32 -29 32 14 -4 25 -20 48 -37 51 -37z m1700 43 c9 -9
-65 9 -74 18 -5 4 8 3 30 -2 21 -6 41 -13 44 -16z m3369 0 c-13 -16 -33 -38
-44 -50 -11 -12 -31 -33 -44 -47 -13 -14 -27 -26 -33 -26 -5 0 24 34 63 75 71
73 106 102 58 48z m548 21 c-3 -3 -12 -4 -19 -1 -8 3 -5 6 6 6 11 1 17 -2 13
-5z m378 -4 c-4 -6 -1 -18 6 -26 6 -8 9 -17 6 -20 -8 -9 -29 35 -22 46 3 6 8
10 11 10 3 0 2 -5 -1 -10z m-5545 -30 c-12 -16 -26 -30 -31 -30 -5 0 -1 10 11
22 11 12 20 25 20 30 0 4 5 8 11 8 6 0 1 -13 -11 -30z m1510 20 c-8 -5 -22 -9
-30 -9 -10 0 -8 3 5 9 27 12 43 12 25 0z m1525 -5 l50 -15 -47 4 c-26 3 -56
10 -65 15 -26 15 1 13 62 -4z m-4157 -21 c-7 -15 -14 -21 -16 -15 -2 7 2 18 8
26 18 22 21 18 8 -11z m6053 -2 c-6 -11 -18 -22 -26 -26 -12 -4 -10 2 7 23 26
32 35 33 19 3z m-5435 -14 l29 -33 -32 29 c-18 17 -33 31 -33 33 0 8 8 1 36
-29z m924 -1 c0 -5 -4 -5 -10 -2 -5 3 -10 14 -10 23 0 15 2 15 10 2 5 -8 10
-19 10 -23z m883 26 c-7 -2 -21 -2 -30 0 -10 3 -4 5 12 5 17 0 24 -2 18 -5z
m3142 -20 l30 -25 -40 23 c-51 29 -51 29 -34 29 8 -1 28 -12 44 -27z m750 10
c4 -11 0 -11 -18 -2 -31 16 -32 18 -8 16 11 -1 23 -7 26 -14z m-4905 -38 c0
-1 -11 0 -25 3 -14 2 -23 7 -21 10 3 3 0 12 -7 20 -6 9 3 5 21 -8 17 -13 32
-25 32 -25z m176 13 l29 -32 -32 25 c-18 13 -32 27 -32 32 -1 12 4 8 35 -25z
m3589 19 c-10 -8 -15 -19 -11 -25 4 -7 1 -12 -9 -12 -10 0 -37 -14 -62 -30
-84 -57 -235 -121 -249 -107 -3 2 17 10 43 17 85 23 253 120 278 160 3 5 11
10 18 10 6 0 3 -6 -8 -13z m-3725 -8 c0 -13 -28 -18 -33 -6 -3 7 3 13 14 13
11 0 19 -3 19 -7z m62 -7 c9 -9 9 -12 0 -12 -7 0 -12 4 -12 10 0 5 -6 7 -14 4
-8 -3 -17 -1 -21 5 -9 15 32 8 47 -7z m-1498 -86 c18 -74 16 -100 -2 -39 -14
50 -26 119 -19 113 3 -3 13 -36 21 -74z m5184 49 c-3 -3 -9 2 -12 12 -6 14 -5
15 5 6 7 -7 10 -15 7 -18z m1463 -22 c-8 -15 -9 -12 -6 12 5 40 7 43 12 23 2
-10 0 -25 -6 -35z m-5751 -86 c-57 -56 -84 -79 -60 -52 63 72 154 162 160 158
2 -2 -43 -50 -100 -106z m278 102 c-10 -5 -19 -20 -19 -32 -1 -18 -2 -18 -6
-4 -5 20 13 47 31 47 6 0 3 -5 -6 -11z m512 -46 c0 -7 -61 31 -73 46 -7 8 7 2
31 -14 23 -15 42 -30 42 -32z m-591 -4 c1 -4 -8 -9 -19 -12 -13 -3 -20 0 -20
9 0 8 -4 14 -10 14 -5 0 -10 5 -10 10 0 6 12 3 28 -7 22 -14 25 -15 15 -2 -7
9 -10 19 -6 23 6 6 20 -16 22 -35z m4488 23 c-22 -24 -21 -33 1 -25 15 6 15 4
-2 -15 l-19 -22 -12 22 c-6 13 -7 25 -3 26 4 2 5 9 1 15 -4 6 0 8 10 4 9 -3
19 -2 22 3 4 6 9 10 12 10 3 0 -1 -8 -10 -18z m373 5 c0 -2 -18 -20 -39 -41
-32 -31 -39 -35 -34 -17 3 11 11 21 18 21 6 0 20 9 30 20 17 19 25 24 25 17z
m155 -99 l100 -103 -96 90 c-81 76 -117 115 -106 115 1 0 47 -46 102 -102z
m-4975 82 c0 -5 -8 -10 -17 -10 -15 0 -16 2 -3 10 19 12 20 12 20 0z m585 -28
c-3 -3 -11 0 -18 7 -9 10 -8 11 6 5 10 -3 15 -9 12 -12z m4912 -4 c-3 -8 -6
-5 -6 6 -1 11 2 17 5 13 3 -3 4 -12 1 -19z m-4856 -13 c19 -8 27 -14 19 -14
-14 0 -72 28 -59 29 4 0 22 -7 40 -15z m-880 -59 c-31 -32 -32 -35 -21 -76 6
-23 9 -44 7 -47 -3 -2 -8 11 -12 29 -4 18 -11 38 -16 44 -8 10 61 98 70 88 3
-2 -10 -19 -28 -38z m4974 4 l-40 -41 35 -30 c19 -17 26 -26 15 -21 -11 6 -29
20 -39 31 -19 21 -19 22 19 61 22 22 41 40 44 40 3 0 -13 -18 -34 -40z m-5425
10 c6 -11 9 -20 7 -20 -2 0 -12 9 -22 20 -10 11 -13 20 -7 20 6 0 16 -9 22
-20z m581 -3 c-10 -9 -11 -8 -5 6 3 10 9 15 12 12 3 -3 0 -11 -7 -18z m846 17
c-3 -3 -12 -4 -19 -1 -8 3 -5 6 6 6 11 1 17 -2 13 -5z m12 -36 c-12 -17 -43
-51 -68 -77 -51 -51 -39 -32 26 43 24 26 43 55 43 63 0 8 5 11 10 8 6 -4 2
-18 -11 -37z m4262 25 c13 -16 12 -17 -3 -4 -17 13 -22 21 -14 21 2 0 10 -8
17 -17z m-1311 -25 l24 -31 -26 17 c-15 9 -29 24 -32 32 -9 24 8 15 34 -18z
m1750 -78 c-16 -47 -27 -69 -23 -50 3 19 6 41 6 48 0 6 4 12 8 12 4 0 13 23
21 52 7 29 14 46 16 38 1 -8 -11 -53 -28 -100z m-317 53 c-9 -27 -17 -49 -18
-51 -1 -1 -12 6 -25 16 l-22 18 27 32 c41 49 57 43 38 -15z m-461 14 c-11 -12
-28 -38 -36 -57 -8 -19 -15 -30 -16 -23 0 21 24 67 45 85 28 25 32 22 7 -5z
m-5318 2 c-3 -6 0 -15 7 -20 9 -6 10 -9 2 -9 -15 0 -26 17 -18 30 3 6 8 10 11
10 3 0 2 -5 -2 -11z m5710 -11 c-3 -5 -12 -4 -20 3 -19 16 -18 18 6 12 11 -3
17 -9 14 -15z m-6117 -162 c-3 -10 -58 155 -56 170 0 5 14 -29 30 -76 15 -47
27 -89 26 -94z m5603 164 c0 -5 -2 -10 -4 -10 -3 0 -8 5 -11 10 -3 6 -1 10 4
10 6 0 11 -4 11 -10z m-4640 -31 c0 -6 -4 -7 -10 -4 -5 3 -10 11 -10 16 0 6 5
7 10 4 6 -3 10 -11 10 -16z m3834 -5 c5 -14 4 -15 -9 -4 -17 14 -19 20 -6 20
5 0 12 -7 15 -16z m-4024 -20 c0 -8 -5 -14 -11 -14 -5 0 -7 5 -4 10 3 6 -1 10
-10 10 -9 0 -14 4 -10 10 8 13 35 1 35 -16z m4943 11 c-3 -9 -8 -14 -10 -11
-3 3 -2 9 2 15 9 16 15 13 8 -4z m-5226 -40 c-1 -5 5 -9 14 -9 9 1 16 -5 16
-12 0 -20 -7 -17 -44 18 -38 37 -44 57 -9 31 13 -10 23 -22 23 -28z m5108 25
c3 -5 -1 -10 -10 -10 -9 0 -13 5 -10 10 3 6 8 10 10 10 2 0 7 -4 10 -10z
m-4638 -20 c1 -11 -2 -20 -8 -20 -5 0 -9 9 -9 20 0 11 4 20 8 20 4 0 8 -9 9
-20z m-287 7 c0 -2 -15 -16 -32 -33 l-33 -29 29 33 c28 30 36 37 36 29z m5141
-33 c19 -19 26 -32 17 -29 -10 4 -18 11 -18 17 0 5 -5 6 -12 2 -6 -4 -8 -3 -4
4 3 6 -4 18 -16 26 -12 9 -18 16 -12 16 5 0 26 -16 45 -36z m349 26 c0 -5 -5
-10 -11 -10 -5 0 -7 5 -4 10 3 6 8 10 11 10 2 0 4 -4 4 -10z m-233 -100 c97
-94 154 -159 77 -89 -72 66 -198 192 -187 188 6 -2 55 -47 110 -99z m-1052 39
c33 -52 32 -59 -12 -58 -31 2 -33 3 -10 6 33 5 34 13 1 64 -14 23 -21 38 -14
34 6 -4 22 -24 35 -46z m1261 13 c-17 -16 -18 -16 -5 5 7 12 15 20 18 17 3 -2
-3 -12 -13 -22z m-5347 -66 c1 -68 -5 -55 -12 24 -3 38 -1 57 3 45 5 -11 9
-42 9 -69z m198 52 c-3 -7 -5 -2 -5 12 0 14 2 19 5 13 2 -7 2 -19 0 -25z
m4603 18 c0 -2 -8 -10 -17 -17 -16 -13 -17 -12 -4 4 13 16 21 21 21 13z
m-4783 -48 c-3 -7 -5 -2 -5 12 0 14 2 19 5 13 2 -7 2 -19 0 -25z m853 -3 c-9
-10 -7 -14 7 -18 14 -4 13 -5 -4 -6 -13 0 -23 4 -23 9 0 17 25 51 28 40 2 -6
-1 -17 -8 -25z m4470 21 c0 -3 -4 -8 -10 -11 -5 -3 -10 -1 -10 4 0 6 5 11 10
11 6 0 10 -2 10 -4z m-5130 -27 c0 -5 -4 -9 -10 -9 -5 0 -10 7 -10 16 0 8 5
12 10 9 6 -3 10 -10 10 -16z m-980 -34 c0 -5 -5 -3 -10 5 -5 8 -10 20 -10 25
0 6 5 3 10 -5 5 -8 10 -19 10 -25z m5723 -42 c62 5 66 4 27 -4 -70 -15 -103
-8 -110 21 -4 14 -4 34 -1 45 4 13 7 4 9 -24 l3 -43 72 5z m359 40 c-19 -43
-57 -106 -49 -83 18 52 51 120 58 120 5 0 1 -17 -9 -37z m-5036 10 c-5 -15 -4
-15 9 1 8 11 15 15 15 10 0 -6 -5 -15 -11 -21 -8 -8 -7 -17 4 -33 8 -12 13
-30 10 -41 -3 -10 0 -26 7 -34 7 -8 8 -15 3 -15 -5 0 -15 -22 -22 -50 -7 -27
-17 -50 -21 -50 -5 0 -3 19 5 41 16 44 21 161 5 124 -6 -17 -9 -14 -15 17 -4
20 -4 41 -1 46 3 6 0 13 -6 15 -8 3 -5 6 6 6 13 1 16 -4 12 -16z m3694 7 c0
-6 -36 -9 -92 -8 l-93 2 90 6 c50 3 91 7 93 8 1 1 2 -2 2 -8z m-2776 -121 c16
-66 26 -122 24 -125 -2 -2 -17 50 -32 116 l-27 119 -92 4 -92 3 96 2 96 2 27
-121z m3905 117 c-2 -2 -15 -9 -29 -15 -24 -11 -24 -11 -6 3 16 13 49 24 35
12z m95 -73 c43 -46 57 -67 52 -80 -4 -10 -7 -19 -6 -21 0 -1 -7 -16 -15 -33
-21 -40 -47 -64 -74 -72 -26 -7 -21 1 11 17 12 6 35 37 51 69 28 55 29 58 12
77 -10 11 -23 17 -29 13 -6 -3 -8 -2 -3 2 4 5 -12 29 -35 53 -24 25 -38 43
-33 41 6 -2 36 -32 69 -66z m-1407 25 c-3 -7 -5 -2 -5 12 0 14 2 19 5 13 2 -7
2 -19 0 -25z m-4521 -65 c-4 -4 -36 73 -35 85 0 4 9 -13 20 -37 11 -24 18 -46
15 -48z m5737 80 c-7 -2 -19 -2 -25 0 -7 3 -2 5 12 5 14 0 19 -2 13 -5z
m-4976 -70 c-3 -10 -5 -4 -5 12 0 17 2 24 5 18 2 -7 2 -21 0 -30z m3750 15
c-3 -8 -6 -5 -6 6 -1 11 2 17 5 13 3 -3 4 -12 1 -19z m-10 -50 c-3 -7 -5 -2
-5 12 0 14 2 19 5 13 2 -7 2 -19 0 -25z m-3822 2 c10 -11 16 -20 13 -20 -3 0
-13 9 -23 20 -10 11 -16 20 -13 20 3 0 13 -9 23 -20z m452 6 c0 -7 -9 -12 -21
-11 -31 4 -33 6 -11 15 28 12 32 12 32 -4z m-1107 -31 c0 -5 -5 -3 -10 5 -5 8
-10 20 -10 25 0 6 5 3 10 -5 5 -8 10 -19 10 -25z m695 25 c-3 -5 -1 -10 4 -10
6 0 11 5 11 10 0 6 4 10 10 10 5 0 1 -13 -8 -30 -9 -16 -20 -30 -24 -30 -16 0
-87 -73 -81 -83 3 -5 2 -7 -4 -4 -5 3 -21 -7 -36 -23 -17 -18 -36 -27 -52 -26
-24 1 -19 8 51 72 56 51 75 74 69 85 -6 11 -5 12 6 2 11 -11 7 -19 -21 -48
-19 -19 -29 -35 -23 -35 11 0 93 87 92 98 -2 12 1 22 7 22 3 0 2 -4 -1 -10z
m270 -65 c-9 -24 -22 -48 -29 -54 -8 -6 -3 10 10 36 13 25 25 58 25 72 1 19 3
21 6 7 3 -10 -3 -38 -12 -61z m195 59 c0 -2 -7 -4 -15 -4 -8 0 -15 4 -15 10 0
5 7 7 15 4 8 -4 15 -8 15 -10z m97 -11 c4 -10 11 -21 17 -25 7 -5 6 -8 -2 -8
-8 0 -16 9 -19 20 -3 11 -10 20 -15 20 -5 0 -7 -10 -3 -22 5 -20 4 -21 -5 -5
-6 9 -19 17 -28 18 -11 1 -8 4 8 9 37 12 40 12 47 -7z m67 -8 c-4 -8 -13 -15
-22 -15 -13 0 -12 3 4 15 24 18 25 18 18 0z m3942 3 c4 -7 3 -8 -4 -4 -7 4
-13 1 -13 -8 -1 -9 -3 -20 -4 -26 -1 -5 -4 -22 -5 -37 -2 -26 -3 -26 -10 7 -6
31 -8 27 -10 -30 l-3 -65 -6 65 c-6 60 -4 67 19 87 30 27 27 26 36 11z m-4181
-37 c0 -22 -3 -37 -7 -35 -7 5 -3 74 5 74 1 0 3 -18 2 -39z m3382 17 c-3 -8
-6 -5 -6 6 -1 11 2 17 5 13 3 -3 4 -12 1 -19z m889 -41 c2 -55 1 -57 -5 -20
-9 55 -21 66 -22 22 l-2 -34 -6 35 c-5 28 -3 36 12 38 9 2 17 8 17 13 0 5 1 9
3 9 1 0 3 -28 3 -63z m-3983 18 c4 -8 2 -17 -3 -20 -6 -4 -10 2 -11 12 0 14
-2 14 -9 -4 -12 -29 -15 -29 -16 2 -1 18 3 25 16 25 10 0 20 -7 23 -15z m3084
-17 c-3 -8 -6 -5 -6 6 -1 11 2 17 5 13 3 -3 4 -12 1 -19z m-2861 -3 c9 -8 11
-15 6 -15 -5 0 -15 7 -22 15 -7 8 -9 15 -6 15 4 0 14 -7 22 -15z m3419 -30
c-21 -19 -42 -35 -47 -35 -5 0 2 11 16 23 14 13 23 27 19 30 -3 4 3 7 15 7 12
0 22 5 22 12 0 6 3 9 6 5 4 -3 -11 -22 -31 -42z m1246 -21 c-16 -33 -30 -56
-31 -52 0 11 53 118 58 114 2 -2 -10 -30 -27 -62z m-4766 46 c-3 -5 -11 -10
-16 -10 -6 0 -7 5 -4 10 3 6 11 10 16 10 6 0 7 -4 4 -10z m240 0 c3 -6 -1 -7
-9 -4 -18 7 -21 14 -7 14 6 0 13 -4 16 -10z m-1697 -25 c-3 -3 -9 2 -12 12 -6
14 -5 15 5 6 7 -7 10 -15 7 -18z m1655 18 c-7 -2 -19 -2 -25 0 -7 3 -2 5 12 5
14 0 19 -2 13 -5z m-318 -43 c-3 -47 -15 -48 -15 -1 0 23 4 40 9 37 5 -3 8
-19 6 -36z m3072 18 c-3 -8 -6 -5 -6 6 -1 11 2 17 5 13 3 -3 4 -12 1 -19z
m-2693 -4 c3 -8 2 -12 -4 -9 -6 3 -10 10 -10 16 0 14 7 11 14 -7z m3132 1 c18
-13 18 -14 -4 -8 -12 3 -25 9 -28 14 -8 14 10 11 32 -6z m-3047 -45 c0 -8 -5
-4 -10 9 -7 17 -15 22 -29 18 -27 -7 -25 2 3 12 23 9 36 -5 36 -39z m171 -234
c0 -5 -2 -7 -4 -5 -7 7 -76 265 -75 280 1 13 78 -256 79 -275z m2720 266 c3
-2 -16 -2 -42 0 -30 4 -48 2 -48 -5 0 -6 -3 -8 -6 -4 -3 3 -3 10 0 15 6 10 86
5 96 -6z m607 -39 c-3 -10 -5 -2 -5 17 0 19 2 27 5 18 2 -10 2 -26 0 -35z
m493 37 c0 -6 -40 -9 -102 -8 l-103 2 100 6 c55 3 101 7 103 8 1 1 2 -2 2 -8z
m-4901 -27 c-50 -56 -52 -61 -36 -78 10 -10 38 -16 79 -17 l63 -2 -63 -3 c-50
-3 -67 0 -86 15 l-24 19 40 46 c22 26 42 47 46 47 3 0 -5 -12 -19 -27z m3508
5 c-3 -8 -6 -5 -6 6 -1 11 2 17 5 13 3 -3 4 -12 1 -19z m509 -78 c1 -56 -3
-95 -7 -89 -4 7 -5 19 -1 27 4 11 2 13 -9 7 -11 -7 -12 -6 -2 6 12 15 11 118
-1 138 -4 6 -1 11 7 11 10 0 13 -22 13 -100z m-4882 74 c3 -8 2 -12 -4 -9 -6
3 -10 10 -10 16 0 14 7 11 14 -7z m1043 -6 c-3 -8 -6 -5 -6 6 -1 11 2 17 5 13
3 -3 4 -12 1 -19z m4270 16 c-3 -3 -12 -4 -19 -1 -8 3 -5 6 6 6 11 1 17 -2 13
-5z m141 -1 c-15 -2 -42 -2 -60 0 -18 2 -6 4 27 4 33 0 48 -2 33 -4z m65 0
c-7 -2 -19 -2 -25 0 -7 3 -2 5 12 5 14 0 19 -2 13 -5z m282 -38 c-15 -20 -28
-43 -29 -51 -1 -8 -8 -20 -15 -27 -16 -16 2 35 24 66 8 12 15 24 15 27 0 3
-31 5 -70 4 -38 0 -70 3 -70 8 0 5 35 8 80 6 44 -2 80 1 80 6 0 5 3 6 6 3 4
-4 -6 -23 -21 -42z m-1324 4 c-5 -13 -10 -19 -10 -12 -1 15 10 45 15 40 3 -2
0 -15 -5 -28z m1086 14 c-20 -2 -52 -2 -70 0 -17 2 0 4 38 4 39 0 53 -2 32 -4z
m76 0 c-7 -2 -19 -2 -25 0 -7 3 -2 5 12 5 14 0 19 -2 13 -5z m-1293 -93 c-13
-44 -25 -79 -27 -77 -2 3 6 41 19 85 12 44 24 79 27 77 2 -3 -6 -41 -19 -85z
m1003 83 c-13 -2 -33 -2 -45 0 -13 2 -3 4 22 4 25 0 35 -2 23 -4z m-5306 -65
c17 -32 27 -55 22 -52 -10 6 -59 98 -59 110 0 11 4 5 37 -58z m1000 -15 c-2
-16 -4 -3 -4 27 0 30 2 43 4 28 2 -16 2 -40 0 -55z m266 57 c-3 -11 -7 -20 -9
-20 -2 0 -4 9 -4 20 0 11 4 20 9 20 5 0 7 -9 4 -20z m485 -40 c0 -9 -3 -7 -8
5 -5 11 -8 29 -8 40 0 16 2 15 8 -5 4 -14 8 -32 8 -40z m3359 -7 c-2 -16 -4
-5 -4 22 0 28 2 40 4 28 2 -13 2 -35 0 -50z m-4708 29 c-10 -17 -10 -25 4 -46
9 -14 17 -30 17 -35 0 -6 11 -22 25 -37 13 -14 22 -30 19 -35 -3 -5 -1 -9 5
-9 6 0 15 -9 21 -20 6 -11 7 -20 2 -20 -11 0 -95 120 -89 127 3 2 -3 13 -14
24 -18 18 -17 39 4 67 15 19 20 7 6 -16z m5709 3 c-6 -14 -13 -23 -15 -21 -5
5 15 46 22 46 3 0 -1 -11 -7 -25z m-1691 -17 c-3 -8 -6 -5 -6 6 -1 11 2 17 5
13 3 -3 4 -12 1 -19z m-3747 -43 c-24 -25 -46 -45 -49 -45 -3 0 15 20 39 45
24 25 46 45 49 45 3 0 -15 -20 -39 -45z m303 30 c-3 -9 -8 -14 -10 -11 -3 3
-2 9 2 15 9 16 15 13 8 -4z m291 0 c3 -8 1 -15 -4 -15 -6 0 -10 7 -10 15 0 8
2 15 4 15 2 0 6 -7 10 -15z m-490 -24 c-2 -3 -12 3 -22 13 -16 17 -16 18 5 5
12 -7 20 -15 17 -18z m3625 -35 c-6 -26 -13 -45 -16 -43 -2 3 1 26 8 51 6 26
13 45 16 43 2 -3 -1 -26 -8 -51z m758 48 c-3 -3 -12 -4 -19 -1 -8 3 -5 6 6 6
11 1 17 -2 13 -5z m80 0 c-3 -3 -12 -4 -19 -1 -8 3 -5 6 6 6 11 1 17 -2 13 -5z
m40 0 c-3 -3 -12 -4 -19 -1 -8 3 -5 6 6 6 11 1 17 -2 13 -5z m76 -1 c-13 -2
-33 -2 -45 0 -13 2 -3 4 22 4 25 0 35 -2 23 -4z m125 0 c-10 -2 -26 -2 -35 0
-10 3 -2 5 17 5 19 0 27 -2 18 -5z m592 -37 c-25 -59 -79 -134 -77 -107 0 11
4 18 7 16 4 -2 23 27 44 66 43 79 54 90 26 25z m-4302 -21 c0 -16 -2 -15 -8 5
-11 34 -11 60 0 35 5 -11 8 -29 8 -40z m-915 38 c-13 -2 -33 -2 -45 0 -13 2
-3 4 22 4 25 0 35 -2 23 -4z m404 -15 c-3 -8 -6 -5 -6 6 -1 11 2 17 5 13 3 -3
4 -12 1 -19z m4023 16 c0 -8 -19 -13 -24 -6 -3 5 1 9 9 9 8 0 15 -2 15 -3z
m113 -1 c-7 -2 -21 -2 -30 0 -10 3 -4 5 12 5 17 0 24 -2 18 -5z m50 0 c-7 -2
-19 -2 -25 0 -7 3 -2 5 12 5 14 0 19 -2 13 -5z m250 1 c8 -8 -24 -64 -36 -64
-4 0 -6 -3 -3 -8 6 -10 -61 -102 -74 -102 -11 0 0 20 63 110 34 49 36 55 20
62 -16 6 -16 7 3 7 11 1 24 -2 27 -5z m-5023 -27 c0 -2 -10 -12 -22 -23 l-23
-19 19 23 c18 21 26 27 26 19z m-616 -44 c9 -18 14 -33 12 -33 -6 0 -36 55
-36 66 0 11 5 3 24 -33z m534 -12 c-13 -15 -25 -27 -27 -25 -4 4 39 54 47 54
2 0 -7 -13 -20 -29z m1189 -3 c-3 -8 -6 -5 -6 6 -1 11 2 17 5 13 3 -3 4 -12 1
-19z m4217 14 c3 -5 -1 -9 -9 -9 -8 0 -12 4 -9 9 3 4 7 8 9 8 2 0 6 -4 9 -8z
m-1727 -24 c-3 -8 -6 -5 -6 6 -1 11 2 17 5 13 3 -3 4 -12 1 -19z m-3010 -10
c-3 -8 -6 -5 -6 6 -1 11 2 17 5 13 3 -3 4 -12 1 -19z m3120 0 c-3 -8 -6 -5 -6
6 -1 11 2 17 5 13 3 -3 4 -12 1 -19z m491 -40 l1 -63 -13 40 c-7 22 -10 45 -7
50 3 6 6 13 7 18 7 35 11 18 12 -45z m-3081 20 c-3 -8 -6 -5 -6 6 -1 11 2 17
5 13 3 -3 4 -12 1 -19z m-1686 -2 c-9 -11 -8 -17 6 -28 10 -7 19 -21 19 -30 2
-25 -1 -23 -24 14 -15 24 -18 36 -10 45 6 7 13 13 15 13 3 0 0 -6 -6 -14z
m439 -5 c-5 -11 -15 -23 -22 -27 -7 -5 -8 -2 -3 7 21 37 44 55 25 20z m47 12
c-4 -3 3 -18 15 -32 l23 -26 -25 20 c-14 11 -27 21 -29 22 -5 3 9 23 16 23 4
0 3 -3 0 -7z m3780 -25 c-3 -8 -6 -5 -6 6 -1 11 2 17 5 13 3 -3 4 -12 1 -19z
m-2570 -20 c-3 -8 -6 -5 -6 6 -1 11 2 17 5 13 3 -3 4 -12 1 -19z m120 -20 c-3
-8 -6 -5 -6 6 -1 11 2 17 5 13 3 -3 4 -12 1 -19z m2440 -10 c-3 -7 -5 -2 -5
12 0 14 2 19 5 13 2 -7 2 -19 0 -25z m-3645 -63 c-3 -5 -7 -4 -10 3 -2 7 -9
12 -16 12 -7 0 -29 11 -49 24 -19 13 -37 22 -40 20 -2 -2 -4 2 -4 9 0 9 22 1
63 -22 34 -20 59 -40 56 -46z m-42 59 c0 -2 -9 0 -20 6 -11 6 -20 13 -20 16 0
2 9 0 20 -6 11 -6 20 -13 20 -16z m1148 -39 c0 -16 -2 -15 -8 5 -11 34 -11 60
0 35 5 -11 8 -29 8 -40z m2396 -29 c-14 -42 -28 -75 -30 -73 -2 2 3 26 12 53
23 72 36 105 40 101 2 -2 -8 -38 -22 -81z m1356 64 c-6 -11 -15 -20 -21 -20
-6 0 -6 7 1 20 6 11 15 20 21 20 6 0 6 -7 -1 -20z m-5015 -10 c3 -5 1 -10 -4
-10 -6 0 -11 5 -11 10 0 6 2 10 4 10 3 0 8 -4 11 -10z m255 -25 c25 -4 47 -9
50 -12 9 -10 -99 5 -117 17 -17 10 -17 11 2 6 11 -3 40 -8 65 -11z m428 3 c-2
-6 -17 -13 -34 -14 -23 -3 -25 -2 -9 5 11 5 23 7 28 4 4 -2 7 1 7 6 0 6 3 11
6 11 3 0 4 -5 2 -12z m4142 -11 c8 -3 3 -5 -11 -4 -18 1 -25 6 -21 15 2 7 8 9
11 4 3 -5 13 -12 21 -15z m-4786 -16 c-2 -3 -12 3 -22 13 -16 17 -16 18 5 5
12 -7 20 -15 17 -18z m686 15 c-7 -7 -13 -7 -20 0 -6 6 -3 10 10 10 13 0 16
-4 10 -10z m717 -182 c-4 -5 -68 176 -67 191 1 6 17 -34 36 -89 19 -54 33
-100 31 -102z m3028 182 c17 -1 -12 -4 -62 -4 -51 -1 -93 1 -93 6 0 6 83 6
155 -2z m-4839 -8 c3 -4 -1 -5 -10 -4 -8 1 -18 5 -22 8 -3 4 1 5 10 4 8 -1 18
-5 22 -8z m817 5 c-7 -2 -21 -2 -30 0 -10 3 -4 5 12 5 17 0 24 -2 18 -5z m44
1 c-3 -3 -12 -4 -19 -1 -8 3 -5 6 6 6 11 1 17 -2 13 -5z m56 -1 c-7 -2 -21 -2
-30 0 -10 3 -4 5 12 5 17 0 24 -2 18 -5z m4014 1 c-3 -3 -12 -4 -19 -1 -8 3
-5 6 6 6 11 1 17 -2 13 -5z m371 -1 c-15 -2 -42 -2 -60 0 -18 2 -6 4 27 4 33
0 48 -2 33 -4z m52 4 c0 -2 -10 -12 -21 -23 -22 -19 -22 -19 -8 4 12 19 29 30
29 19z m-4264 -42 c-9 -9 -16 -13 -16 -8 0 12 22 34 28 28 2 -2 -3 -11 -12
-20z m551 3 c-3 -8 -6 -5 -6 6 -1 11 2 17 5 13 3 -3 4 -12 1 -19z m3141 11
c110 -2 105 -14 -6 -14 -63 0 -89 4 -89 12 0 7 3 10 7 8 4 -2 43 -5 88 -6z
m427 3 c-3 -3 0 -11 7 -19 10 -12 7 -12 -15 -2 -28 12 -29 26 -2 26 8 0 13 -3
10 -5z m-4687 -27 c-3 -3 -9 2 -12 12 -6 14 -5 15 5 6 7 -7 10 -15 7 -18z
m170 18 c-10 -2 -26 -2 -35 0 -10 3 -2 5 17 5 19 0 27 -2 18 -5z m152 3 c0 -3
-4 -8 -10 -11 -5 -3 -10 -1 -10 4 0 6 5 11 10 11 6 0 10 -2 10 -4z m83 -3 c3
-5 -5 -8 -18 -8 -13 0 -21 3 -18 8 2 4 10 7 18 7 8 0 16 -3 18 -7z m57 3 c0
-3 -4 -8 -10 -11 -5 -3 -10 -1 -10 4 0 6 5 11 10 11 6 0 10 -2 10 -4z m3953
-3 c3 -5 -5 -8 -18 -8 -13 0 -21 3 -18 8 2 4 10 7 18 7 8 0 16 -3 18 -7z m101
-4 c3 -3 -5 -5 -19 -5 -13 0 -22 3 -19 7 4 8 30 6 38 -2z m-5005 -12 c-9 -7
-14 -18 -11 -25 3 -10 7 -10 20 0 14 10 15 10 5 -2 -16 -17 1 -52 22 -44 8 4
15 4 15 1 0 -3 -7 -7 -15 -11 -10 -3 -24 8 -40 32 -23 34 -24 38 -8 50 22 16
33 15 12 -1z m401 -2 c7 -8 9 -15 6 -15 -4 0 -14 7 -22 15 -9 8 -11 15 -6 15
5 0 15 -7 22 -15z m3707 -7 c-3 -8 -6 -5 -6 6 -1 11 2 17 5 13 3 -3 4 -12 1
-19z m1058 -2 c19 -8 35 -17 35 -20 0 -5 -71 22 -79 30 -9 8 11 4 44 -10z
m508 1 c-50 -78 -116 -169 -152 -206 l-44 -46 38 47 c20 26 34 52 30 58 -4 6
-1 9 6 8 6 -2 37 32 67 75 30 42 57 77 59 77 2 0 0 -6 -4 -13z m-4056 -19 c-3
-8 -6 -5 -6 6 -1 11 2 17 5 13 3 -3 4 -12 1 -19z m3626 -15 c-15 -21 -36 -47
-45 -57 -10 -11 -18 -26 -18 -33 0 -8 -4 -12 -9 -9 -8 6 -35 -19 -42 -40 -2
-5 -24 -28 -48 -50 -25 -21 -41 -33 -37 -26 5 8 -1 16 -16 22 l-23 11 24 -5
c19 -4 34 6 74 47 27 29 65 74 83 101 19 26 34 42 34 35 0 -11 2 -11 9 1 6 8
8 17 5 21 -4 7 11 16 29 18 4 1 -5 -16 -20 -36z m-4258 17 c3 -6 -1 -7 -9 -4
-10 4 -16 1 -16 -7 0 -7 -3 -10 -6 -6 -7 7 4 27 16 27 5 0 12 -4 15 -10z m61
-32 c-11 -7 -36 9 -36 23 0 16 18 9 23 -8 3 -13 5 -11 7 7 1 23 2 23 9 5 5
-12 4 -23 -3 -27z m-599 -6 c4 -9 20 -29 36 -43 23 -19 27 -28 17 -34 -8 -5
-11 -4 -7 2 3 5 -7 17 -24 27 -16 9 -29 24 -29 32 0 9 -10 25 -22 35 l-23 20
23 -11 c13 -6 26 -19 29 -28z m3650 6 c-3 -7 -5 -2 -5 12 0 14 2 19 5 13 2 -7
2 -19 0 -25z m633 6 c0 -2 -9 -8 -19 -13 -16 -9 -18 -8 -14 8 3 12 11 17 19
14 8 -3 14 -7 14 -9z m-3103 -16 c-3 -8 -6 -5 -6 6 -1 11 2 17 5 13 3 -3 4
-12 1 -19z m-537 -19 c17 -13 18 -17 5 -10 -33 17 -51 31 -40 31 6 0 21 -10
35 -21z m547 -21 c-3 -8 -6 -5 -6 6 -1 11 2 17 5 13 3 -3 4 -12 1 -19z m-1552
-38 c20 1 24 -2 19 -13 -2 -7 10 -33 27 -58 18 -24 25 -38 16 -30 -10 8 -40
46 -68 85 -28 39 -39 59 -25 43 14 -15 28 -27 31 -27z m1201 -62 c63 -38 114
-72 114 -75 0 -5 5 -8 -152 89 -71 44 -128 82 -128 85 0 3 12 -2 26 -12 14 -9
77 -48 140 -87z m2791 80 c-3 -8 -6 -5 -6 6 -1 11 2 17 5 13 3 -3 4 -12 1 -19z
m-152 -35 c-9 -15 -13 -19 -10 -8 4 11 10 29 13 40 3 11 7 14 9 8 3 -7 -3 -24
-12 -40z m-3391 1 c5 -14 4 -15 -9 -4 -17 14 -19 20 -6 20 5 0 12 -7 15 -16z
m1270 -34 c5 -17 4 -20 -2 -10 -5 8 -13 26 -16 40 -5 17 -4 20 2 10 5 -8 13
-26 16 -40z m2263 18 c-3 -7 -5 -2 -5 12 0 14 2 19 5 13 2 -7 2 -19 0 -25z
m503 27 c0 -2 -10 -9 -22 -15 -22 -11 -22 -10 -4 4 21 17 26 19 26 11z m-2913
-37 c-3 -7 -5 -2 -5 12 0 14 2 19 5 13 2 -7 2 -19 0 -25z m-1063 -21 c14 1 15
0 4 -3 -12 -4 1 -22 56 -78 83 -83 105 -96 107 -63 1 12 5 4 9 -18 6 -36 7
-34 9 25 1 45 -4 73 -15 90 l-16 25 23 -25 c12 -14 27 -24 33 -22 7 2 6 -1 -1
-9 -16 -16 -17 -113 -2 -142 10 -18 6 -17 -22 8 -51 46 -247 240 -225 224 11
-8 29 -13 40 -12z m1080 -32 c5 -22 4 -26 -4 -15 -5 8 -10 24 -10 34 0 26 6
18 14 -19z m3294 14 c22 -1 19 -3 -12 -10 -21 -5 -41 -7 -44 -4 -3 3 2 5 11 5
9 0 15 6 13 13 -1 6 -1 9 1 5 3 -5 17 -8 31 -9z m-4784 -19 c-6 -6 -10 -3 -10
10 0 13 4 16 10 10 7 -7 7 -13 0 -20z m499 23 c-7 -2 -19 -2 -25 0 -7 3 -2 5
12 5 14 0 19 -2 13 -5z m3377 -43 c0 -13 -1 -13 -10 0 -5 8 -10 22 -10 30 0
13 1 13 10 0 5 -8 10 -22 10 -30z m-3397 23 c-7 -2 -19 -2 -25 0 -7 3 -2 5 12
5 14 0 19 -2 13 -5z m84 -26 c18 -22 18 -22 -3 -4 -11 9 -28 17 -37 17 -9 0
-17 4 -17 9 0 15 38 0 57 -22z m3663 19 c0 -2 -26 -19 -57 -38 -32 -19 -70
-42 -85 -52 -16 -10 -28 -16 -28 -13 0 5 159 107 167 107 2 0 3 -2 3 -4z m613
-3 c3 -5 -17 -8 -43 -8 -27 0 -43 3 -37 7 16 10 75 10 80 1z m-126 -25 c-3 -8
-6 -5 -6 6 -1 11 2 17 5 13 3 -3 4 -12 1 -19z m-4712 4 c-3 -3 7 -18 22 -34
15 -15 25 -28 22 -28 -3 0 -20 15 -37 33 -22 23 -28 34 -17 34 8 0 13 -3 10
-5z m415 2 c0 -8 -19 -13 -24 -6 -3 5 1 9 9 9 8 0 15 -2 15 -3z m3437 -16 c-3
-8 -6 -5 -6 6 -1 11 2 17 5 13 3 -3 4 -12 1 -19z m-2482 -86 c47 -30 85 -56
85 -58 0 -6 2 -7 -127 74 -57 35 -103 66 -103 69 0 5 5 2 145 -85z m3905 85
c0 -2 -10 -12 -22 -23 l-23 -19 19 23 c18 21 26 27 26 19z m-475 -27 c-3 -5
-12 -10 -18 -10 -7 0 -6 4 3 10 19 12 23 12 15 0z m-3119 -35 c14 -34 18 -52
9 -44 -9 9 -35 79 -30 79 3 0 13 -16 21 -35z m2200 -10 c-3 -8 -15 -15 -26
-15 -12 0 -25 -10 -31 -22 -9 -22 -9 -22 -4 2 2 14 5 31 5 38 0 6 11 12 25 12
14 0 25 6 26 13 0 9 2 9 6 -1 3 -7 2 -19 -1 -27z m851 3 c-3 -8 -6 -5 -6 6 -1
11 2 17 5 13 3 -3 4 -12 1 -19z m24 -1 c-10 -9 -11 -8 -5 6 3 10 9 15 12 12 3
-3 0 -11 -7 -18z m479 20 c0 -2 -15 -16 -32 -33 l-33 -29 29 33 c28 30 36 37
36 29z m-1579 -34 c-12 -20 -14 -14 -5 12 4 9 9 14 11 11 3 -2 0 -13 -6 -23z
m-3469 -118 c24 -35 14 -24 -67 65 l-59 65 53 -50 c29 -27 62 -63 73 -80z
m3828 111 c0 -2 -16 -13 -35 -25 -19 -11 -35 -18 -35 -16 0 5 61 45 68 45 1 0
2 -2 2 -4z m-3147 -186 c1 -25 6 -46 11 -47 5 0 13 -8 18 -17 5 -9 15 -13 21
-10 7 4 9 4 5 -1 -7 -7 24 -37 47 -46 36 -14 175 -104 174 -113 0 -6 -3 -5 -6
2 -4 10 -8 10 -21 0 -10 -7 -14 -8 -10 -4 5 5 -22 27 -60 49 -37 23 -68 44
-70 49 -2 4 -10 8 -18 8 -8 0 -14 5 -14 10 0 6 -6 10 -14 10 -7 0 -24 10 -38
23 -13 12 -33 24 -43 25 -19 4 -44 29 -45 45 0 5 6 7 13 4 6 -2 11 -9 10 -15
-1 -5 4 -13 12 -16 17 -6 20 39 8 109 l-7 40 -7 -35 c-4 -25 -6 -15 -6 35 l-1
70 20 -65 c11 -36 21 -85 21 -110z m3827 150 c-6 -11 -16 -20 -22 -20 -6 0 -3
9 7 20 10 11 20 20 22 20 2 0 -1 -9 -7 -20z m-2971 -45 c0 -5 -6 1 -14 15 -8
14 -14 30 -14 35 0 6 6 -1 14 -15 8 -14 14 -29 14 -35z m3450 52 c-2 -1 -13
-9 -24 -17 -19 -14 -19 -14 -6 3 7 9 18 17 24 17 6 0 8 -1 6 -3z m-1548 -30
c-10 -9 -11 -8 -5 6 3 10 9 15 12 12 3 -3 0 -11 -7 -18z m293 -4 c-10 -7 -23
-13 -28 -13 -6 0 -3 5 7 11 9 6 15 14 12 20 -3 5 1 6 11 2 16 -6 15 -7 -2 -20z
m-2372 -43 c2 -19 8 -39 13 -43 6 -4 1 -7 -9 -5 -13 2 -25 -6 -34 -22 -13 -23
-13 -23 -9 -2 8 33 -2 27 -19 -14 -9 -20 -16 -70 -17 -112 -1 -53 -3 -66 -9
-47 -14 53 -3 129 26 181 15 27 28 57 29 67 1 9 5 17 9 17 4 0 5 8 1 18 -4 12
-3 14 5 7 6 -6 13 -26 14 -45z m3098 30 c-6 -11 -13 -20 -16 -20 -2 0 0 9 6
20 6 11 13 20 16 20 2 0 0 -9 -6 -20z m-3965 -21 c11 -17 -1 -21 -15 -4 -8 9
-8 15 -2 15 6 0 14 -5 17 -11z m3922 -14 c-9 -8 -19 -15 -23 -15 -4 0 -16 -10
-28 -23 -25 -27 -101 -87 -111 -87 -3 0 4 13 17 29 13 15 26 27 29 25 3 -2 32
19 65 46 32 27 61 47 63 45 2 -2 -4 -11 -12 -20z m-2828 -80 c0 -5 -11 10 -24
35 -13 25 -24 50 -24 55 0 6 11 -10 24 -35 13 -25 24 -49 24 -55z m-983 -2 c2
-11 -6 -7 -22 12 -13 15 -24 25 -24 20 0 -11 -30 15 -42 38 -7 13 5 8 38 -17
26 -20 49 -44 50 -53z m4261 81 c-3 -3 -12 -4 -19 -1 -8 3 -5 6 6 6 11 1 17
-2 13 -5z m43 3 c0 -2 -17 -19 -37 -38 l-38 -34 34 38 c33 34 41 42 41 34z
m-1565 -154 c-94 -176 -208 -352 -288 -440 -10 -12 -18 -26 -16 -31 6 -14 399
88 426 110 7 6 18 25 23 42 l10 31 -5 -34 c-5 -36 -8 -35 50 -17 6 2 27 10 47
20 50 21 60 20 23 -3 -73 -44 -463 -159 -595 -175 -25 -3 -37 -3 -28 0 19 6
133 154 193 250 20 32 46 72 57 88 22 31 81 137 125 223 15 29 29 51 31 48 2
-2 -22 -52 -53 -112z m-3260 72 c23 -24 48 -55 44 -55 -3 0 -25 21 -49 47 -25
26 -36 40 -25 32 11 -7 24 -19 30 -24z m562 20 c0 -8 -4 -12 -9 -9 -5 3 -6 10
-3 15 9 13 12 11 12 -6z m670 -57 c-3 -8 -6 -5 -6 6 -1 11 2 17 5 13 3 -3 4
-12 1 -19z m81 -14 c-3 -14 -5 -12 -10 9 -3 19 -2 25 4 19 6 -6 8 -18 6 -28z
m212 15 c0 -6 -4 -7 -10 -4 -5 3 -10 11 -10 16 0 6 5 7 10 4 6 -3 10 -11 10
-16z m1988 -8 c-5 -1 -1 -13 9 -24 17 -21 17 -21 0 -7 -16 12 -20 12 -29 -1
-8 -11 -9 -10 -4 4 3 10 6 27 6 38 0 16 2 18 14 7 8 -7 10 -15 4 -17z m1157
-9 c6 -4 -8 -23 -35 -47 -25 -22 -35 -28 -23 -14 19 20 20 28 10 39 -10 12 -9
12 4 2 13 -10 19 -9 28 2 9 11 9 15 -1 19 -7 3 -8 6 -3 6 6 0 15 -3 20 -7z
m-4442 -135 c5 3 7 1 3 -5 -3 -6 11 -20 34 -33 22 -13 40 -27 40 -31 0 -5 6
-6 13 -2 6 4 9 4 5 -1 -4 -4 19 -28 52 -52 33 -25 60 -47 60 -50 0 -3 -17 7
-37 23 -92 68 -249 189 -260 200 -7 7 -23 21 -35 31 -13 10 -30 27 -38 38 -8
11 23 -13 69 -53 46 -39 88 -69 94 -65z m1387 -22 c0 -9 97 -160 142 -222 21
-29 36 -53 34 -53 -7 0 -146 189 -153 208 -4 10 -30 60 -60 113 -64 116 -71
144 -8 37 25 -43 45 -80 45 -83z m-1485 136 c3 -5 2 -12 -3 -15 -5 -3 -9 1 -9
9 0 17 3 19 12 6z m3986 -14 c-10 -9 -11 -8 -5 6 3 10 9 15 12 12 3 -3 0 -11
-7 -18z m-564 -34 c-3 -10 -5 -2 -5 17 0 19 2 27 5 18 2 -10 2 -26 0 -35z
m527 12 c-39 -30 -167 -105 -179 -105 -8 0 -15 -4 -17 -8 -1 -5 -33 -26 -70
-46 -38 -21 -68 -42 -68 -47 0 -4 -6 -6 -13 -4 -6 3 -45 -11 -85 -30 -82 -39
-90 -41 -73 -22 6 8 40 26 76 42 38 16 62 32 58 38 -3 6 -1 7 6 3 6 -4 44 10
84 32 156 85 194 106 242 137 50 32 76 39 39 10z m513 10 c0 -8 -4 -12 -9 -9
-5 3 -6 10 -3 15 9 13 12 11 12 -6z m-1110 -17 c-3 -8 -6 -5 -6 6 -1 11 2 17
5 13 3 -3 4 -12 1 -19z m-2150 -10 c-3 -8 -6 -5 -6 6 -1 11 2 17 5 13 3 -3 4
-12 1 -19z m16 -49 c5 -20 -3 -35 -43 -79 -27 -29 -46 -58 -43 -63 3 -6 1 -7
-6 -3 -13 9 -3 26 53 86 42 46 37 54 -8 13 l-30 -28 32 41 c18 23 32 48 32 55
0 18 6 8 13 -22z m2204 -1 c-3 -7 -5 -2 -5 12 0 14 2 19 5 13 2 -7 2 -19 0
-25z m1013 18 c0 -2 -33 -30 -72 -62 -97 -76 -107 -83 -85 -58 9 11 14 24 10
29 -5 4 -3 5 4 1 6 -3 40 16 75 43 66 52 68 53 68 47z m-1090 -70 c6 -5 15 -4
25 4 13 11 14 10 8 -6 -6 -17 -5 -18 12 -4 17 14 17 14 8 -5 -14 -26 -53 -61
-61 -55 -3 3 -17 -11 -31 -30 -13 -19 -21 -26 -17 -15 4 11 15 53 24 95 11 48
18 66 20 50 2 -14 8 -29 12 -34z m47 32 c-3 -8 -6 -5 -6 6 -1 11 2 17 5 13 3
-3 4 -12 1 -19z m-2275 -43 c9 -20 9 -20 -6 -1 -9 11 -16 27 -15 35 0 14 1 14
6 1 3 -8 10 -24 15 -35z m-115 -105 c7 0 13 -5 13 -11 0 -8 5 -7 15 1 13 11
13 15 3 23 -10 6 -8 7 4 3 24 -7 60 40 53 68 -5 17 -4 18 4 6 16 -23 13 -32
-28 -77 l-39 -43 -54 22 c-47 19 -79 36 -190 95 -16 8 -28 19 -28 24 0 5 53
-18 117 -51 65 -33 123 -60 130 -60z m240 58 c-3 -8 -6 -5 -6 6 -1 11 2 17 5
13 3 -3 4 -12 1 -19z m2448 -8 c-3 -5 -12 -10 -18 -10 -7 0 -6 4 3 10 19 12
23 12 15 0z m-2438 -32 c-3 -8 -6 -5 -6 6 -1 11 2 17 5 13 3 -3 4 -12 1 -19z
m2093 18 c0 -2 -8 -10 -17 -17 -16 -13 -17 -12 -4 4 13 16 21 21 21 13z m880
-10 c0 -2 -11 -11 -24 -20 -19 -12 -27 -13 -32 -3 -4 6 -4 9 1 5 4 -4 17 -1
29 7 21 16 26 18 26 11z m-3136 -27 c-18 -20 -18 -21 1 -35 10 -8 22 -14 27
-14 4 0 8 -4 8 -9 0 -5 -18 -2 -39 6 l-39 15 26 29 c14 16 28 29 30 29 3 0 -3
-9 -14 -21z m173 -21 c-3 -8 -6 -5 -6 6 -1 11 2 17 5 13 3 -3 4 -12 1 -19z
m2903 8 c0 -2 -8 -10 -17 -17 -16 -13 -17 -12 -4 4 13 16 21 21 21 13z m-3804
-32 c1 -9 0 -13 -4 -10 -3 4 -7 14 -8 22 -1 9 0 13 4 10 3 -4 7 -14 8 -22z
m939 -62 c13 -12 220 -68 336 -92 50 -10 96 -23 101 -28 7 -7 -3 -7 -31 -1
-23 5 -56 11 -74 14 -17 3 -59 12 -92 21 -33 8 -73 17 -88 20 -36 7 -163 46
-252 78 -77 27 -64 36 16 10 27 -9 53 -13 57 -9 4 4 2 10 -4 12 -7 2 -9 14 -6
26 5 19 6 18 16 -10 6 -18 16 -36 21 -41z m-885 22 c0 -2 -9 0 -20 6 -11 6
-20 13 -20 16 0 2 9 0 20 -6 11 -6 20 -13 20 -16z m3680 22 c0 -7 -119 -80
-195 -120 -38 -20 -61 -31 -51 -24 11 7 27 20 36 29 10 9 34 22 54 29 32 10
35 14 24 28 -10 14 -10 15 1 5 15 -13 44 -6 35 8 -3 5 -2 8 3 7 17 -4 53 14
47 24 -4 6 -3 8 2 5 6 -3 16 -2 24 4 17 10 20 11 20 5z m-3633 -36 c2 -17 -1
-18 -18 -10 -10 6 -19 13 -19 16 0 3 4 3 9 -1 5 -3 12 -1 16 5 9 14 11 13 12
-10z m1233 -81 c15 -28 5 -23 -15 7 -9 15 -12 23 -6 20 6 -4 16 -16 21 -27z
m2130 -43 c0 -2 -7 -7 -16 -10 -8 -3 -12 -2 -9 4 6 10 25 14 25 6z m-1083 -12
c-3 -3 -12 -4 -19 -1 -8 3 -5 6 6 6 11 1 17 -2 13 -5z m-90 -10 c-3 -3 -12 -4
-19 -1 -8 3 -5 6 6 6 11 1 17 -2 13 -5z m1049 -6 c3 -4 -1 -5 -10 -4 -8 1 -18
5 -22 8 -3 4 1 5 10 4 8 -1 18 -5 22 -8z m-1789 -4 c-3 -3 -12 -4 -19 -1 -8 3
-5 6 6 6 11 1 17 -2 13 -5z m598 -4 c-3 -5 -36 -9 -73 -8 l-67 2 70 6 c39 4
71 7 73 8 2 1 0 -2 -3 -8z m72 4 c-3 -3 -12 -4 -19 -1 -8 3 -5 6 6 6 11 1 17
-2 13 -5z m1182 2 c-15 -13 -49 -25 -49 -17 0 5 8 12 18 14 24 6 36 8 31 3z
m-1619 -13 c0 -5 -26 -7 -57 -5 -101 5 -111 9 -25 11 45 0 82 -2 82 -6z m115
-1 c-8 -8 -95 -10 -99 -3 -3 4 20 7 50 7 30 0 52 -2 49 -4z m39 0 c3 -5 -1 -9
-9 -9 -8 0 -12 4 -9 9 3 4 7 8 9 8 2 0 6 -4 9 -8z m61 -1 c-3 -2 -16 -6 -28
-8 -15 -2 -18 0 -9 5 14 9 45 12 37 3z m-1404 -86 c35 -14 71 -29 79 -34 8 -4
41 -16 73 -26 31 -10 55 -20 53 -23 -7 -7 -160 47 -226 80 -70 34 -62 35 21 3z
m2599 5 c-8 -5 -19 -10 -25 -10 -5 0 -3 5 5 10 8 5 20 10 25 10 6 0 3 -5 -5
-10z m-95 -40 c-33 -16 -69 -29 -80 -29 -11 0 12 13 50 29 90 37 107 37 30 0z
m-131 -45 c-17 -8 -44 -16 -60 -20 -16 -3 -6 4 21 14 57 22 86 26 39 6z
m-2119 -15 c19 -8 19 -9 -2 -9 -12 -1 -25 4 -28 9 -7 12 2 12 30 0z m180 -50
c13 -5 14 -9 5 -9 -8 0 -24 4 -35 9 -13 5 -14 9 -5 9 8 0 24 -4 35 -9z m1742
4 c-3 -3 -12 -4 -19 -1 -8 3 -5 6 6 6 11 1 17 -2 13 -5z m-1683 -16 c-3 -4
-12 -8 -20 -8 -8 0 -13 4 -10 8 3 5 12 9 20 9 8 0 13 -4 10 -9z m53 -3 c4 -4
2 -5 -4 -1 -7 4 -13 2 -13 -3 0 -6 -8 -11 -17 -10 -11 0 -13 3 -5 6 6 2 10 8
7 13 -7 11 22 7 32 -5z m43 11 c0 -2 -7 -7 -16 -10 -8 -3 -12 -2 -9 4 6 10 25
14 25 6z m44 -4 c2 -4 -4 -8 -14 -8 -10 0 -16 4 -14 8 3 4 9 8 14 8 5 0 11 -4
14 -8z m1351 -3 c3 -3 -6 -5 -19 -5 -14 1 -28 4 -31 7 -3 3 6 5 19 5 14 -1 28
-4 31 -7z m47 -4 c14 0 20 -15 6 -15 -9 0 -22 8 -29 17 -12 15 -12 16 1 8 8
-6 18 -10 22 -10z m53 -3 c-3 -3 -11 0 -18 7 -9 10 -8 11 6 5 10 -3 15 -9 12
-12z m-1502 -19 c-7 -2 -19 -2 -25 0 -7 3 -2 5 12 5 14 0 19 -2 13 -5z m1420
0 c-7 -2 -19 -2 -25 0 -7 3 -2 5 12 5 14 0 19 -2 13 -5z m-1376 -9 c-3 -3 -12
-4 -19 -1 -8 3 -5 6 6 6 11 1 17 -2 13 -5z m1320 0 c-3 -3 -12 -4 -19 -1 -8 3
-5 6 6 6 11 1 17 -2 13 -5z m-1083 -12 c3 -5 -1 -9 -9 -9 -8 0 -12 4 -9 9 3 4
7 8 9 8 2 0 6 -4 9 -8z m-127 -8 c-3 -3 -12 -4 -19 -1 -8 3 -5 6 6 6 11 1 17
-2 13 -5z m1100 0 c-3 -3 -12 -4 -19 -1 -8 3 -5 6 6 6 11 1 17 -2 13 -5z
m-960 -20 c-3 -3 -12 -4 -19 -1 -8 3 -5 6 6 6 11 1 17 -2 13 -5z m832 2 c-9
-9 -78 -13 -73 -5 3 5 21 9 41 9 20 0 34 -2 32 -4z m-310 -22 c2 -2 -40 -3
-95 -2 -71 1 -86 3 -54 7 44 6 141 3 149 -5z m-202 0 c-3 -3 -12 -4 -19 -1 -8
3 -5 6 6 6 11 1 17 -2 13 -5z m286 -1 c-13 -2 -35 -2 -50 0 -16 2 -5 4 22 4
28 0 40 -2 28 -4z"/>
<path d="M2597 6343 c-4 -3 -7 -11 -7 -17 0 -6 5 -5 12 2 6 6 9 14 7 17 -3 3
-9 2 -12 -2z"/>
<path d="M550 4464 c0 -3 7 -12 15 -21 20 -19 32 -9 15 12 -12 15 -30 20 -30
9z"/>
<path d="M890 2270 c0 -5 5 -10 11 -10 5 0 7 5 4 10 -3 6 -8 10 -11 10 -2 0
-4 -4 -4 -10z"/>
<path d="M6426 2528 c-18 -25 -21 -48 -7 -48 10 0 34 60 27 67 -2 2 -11 -6
-20 -19z"/>
<path d="M899 2033 l-34 -36 38 28 c20 15 37 31 37 36 0 14 -4 11 -41 -28z"/>
<path d="M4708 1233 c6 -2 18 -2 25 0 6 3 1 5 -13 5 -14 0 -19 -2 -12 -5z"/>
<path d="M2387 1091 c-3 -14 -1 -18 9 -14 8 3 14 11 14 19 0 21 -17 17 -23 -5z"/>
<path d="M4602 765 c9 -20 14 -23 25 -13 13 10 12 14 -3 25 -27 20 -35 16 -22
-12z"/>
<path d="M4580 750 c0 -19 3 -21 12 -12 9 9 9 15 0 24 -9 9 -12 7 -12 -12z"/>
</g>
</svg>
