<?xml version="1.0" standalone="no"?>
<!DOCTYPE svg PUBLIC "-//W3C//DTD SVG 20010904//EN"
 "http://www.w3.org/TR/2001/REC-SVG-20010904/DTD/svg10.dtd">
<svg version="1.0" xmlns="http://www.w3.org/2000/svg"
 width="1280.000000pt" height="1280.000000pt" viewBox="0 0 1280.000000 1280.000000"
 preserveAspectRatio="xMidYMid meet">

<g transform="translate(0.000000,1280.000000) scale(0.100000,-0.100000)"
fill="#000000" stroke="none">
<path d="M6105 12664 c-27 -2 -115 -8 -195 -14 -400 -29 -821 -104 -1213 -215
-732 -207 -1441 -557 -2038 -1006 -141 -105 -202 -153 -314 -248 -313 -263
-692 -664 -942 -996 -603 -801 -1004 -1716 -1172 -2670 -73 -415 -95 -671 -95
-1115 0 -443 22 -701 94 -1110 219 -1244 821 -2398 1725 -3306 191 -191 255
-250 440 -406 718 -604 1620 -1056 2547 -1277 830 -198 1718 -224 2553 -75
1141 203 2163 695 3050 1468 192 168 495 479 676 696 158 189 363 471 485 668
21 34 53 84 69 110 52 81 143 246 223 404 896 1768 896 3888 2 5653 -316 623
-706 1154 -1211 1650 -96 94 -205 198 -244 230 -38 33 -79 68 -90 78 -11 11
-60 51 -110 91 -511 412 -1037 718 -1658 965 -533 213 -1106 348 -1727 407
-154 14 -737 27 -855 18z m575 -554 c688 -35 1378 -191 1952 -440 142 -62 164
-73 309 -145 461 -229 889 -518 1254 -845 109 -98 426 -418 517 -524 623 -720
1045 -1558 1257 -2496 52 -234 94 -517 117 -796 20 -240 14 -776 -10 -999 -61
-569 -193 -1094 -403 -1610 -67 -165 -249 -531 -346 -697 -91 -154 -248 -391
-326 -493 -26 -33 -54 -71 -62 -85 -20 -31 -183 -229 -264 -320 -123 -138
-302 -319 -443 -447 -53 -48 -99 -90 -102 -93 -5 -5 -121 -99 -210 -171 -66
-52 -94 -73 -179 -135 -36 -26 -70 -51 -75 -56 -6 -5 -59 -39 -117 -77 -574
-371 -1117 -610 -1754 -770 -709 -178 -1466 -216 -2200 -110 -1056 153 -2038
595 -2854 1287 -24 20 -53 45 -65 55 -73 61 -273 255 -399 387 -146 154 -159
169 -220 244 -18 21 -53 64 -78 95 -197 241 -421 579 -576 868 -349 651 -555
1318 -645 2083 -20 173 -23 241 -23 605 1 478 15 653 91 1064 110 598 351
1247 665 1791 97 169 314 491 416 620 6 8 33 42 59 75 44 55 124 150 211 250
105 120 370 380 523 511 1106 954 2537 1447 3980 1374z"/>
<path d="M6210 12094 c-297 -14 -623 -51 -870 -99 -74 -14 -143 -28 -152 -31
-16 -5 -18 -20 -18 -124 l0 -119 43 -5 c48 -6 640 -25 1117 -36 347 -8 385
-13 438 -63 l23 -22 47 50 c25 28 85 91 134 142 48 50 88 95 88 98 0 15 -99
97 -152 125 -129 69 -179 79 -411 83 -117 3 -246 3 -287 1z"/>
<path d="M6900 12076 c0 -2 26 -19 57 -37 32 -18 76 -52 99 -75 l42 -42 52 53
c29 29 50 57 46 63 -3 5 -63 15 -133 21 -71 7 -136 15 -145 17 -10 3 -18 3
-18 0z"/>
<path d="M7184 11937 c-49 -51 -178 -185 -286 -298 -109 -114 -194 -209 -191
-213 4 -4 1 -5 -7 -2 -10 4 -29 -12 -54 -47 -85 -115 -105 -199 -108 -468 -3
-273 2 -488 12 -464 7 17 9 14 9 -12 1 -32 3 -33 41 -33 29 0 40 4 40 15 0 13
24 15 160 15 136 0 160 -2 160 -15 0 -13 24 -15 160 -15 136 0 160 -2 160 -15
0 -12 -16 -15 -80 -15 -77 0 -80 -1 -80 -23 0 -22 3 -23 75 -22 43 0 79 5 83
11 4 6 30 13 57 16 28 3 44 3 38 1 -7 -3 -13 -8 -13 -13 0 -13 43 -20 57 -9 6
6 16 8 21 6 4 -3 27 3 51 14 30 13 41 23 37 34 -3 9 0 15 9 15 8 0 15 -5 15
-11 0 -18 76 32 126 82 l48 49 -24 22 c-14 13 -28 22 -33 20 -5 -1 -6 1 -3 6
7 12 -148 165 -158 155 -4 -4 -4 0 0 10 6 16 -10 25 -19 10 -2 -5 -2 -2 -1 5
5 16 -56 83 -68 76 -4 -3 -5 -10 -2 -16 4 -6 2 -8 -4 -4 -6 3 -27 -5 -48 -19
-20 -14 -54 -28 -75 -31 -21 -4 -37 -10 -34 -14 3 -4 -56 -8 -130 -9 -75 -1
-143 -5 -152 -8 -11 -4 -14 -3 -9 5 4 7 2 12 -5 12 -9 0 -10 30 -6 118 7 156
42 270 99 325 22 21 36 42 32 49 -4 6 -3 8 3 5 6 -4 66 51 135 121 191 195
208 213 201 225 -3 5 -2 7 4 4 9 -6 293 273 293 288 0 4 -20 26 -45 50 -44 41
-51 43 -163 65 -64 12 -139 26 -165 31 -26 5 -54 9 -61 9 -7 0 -53 -42 -102
-93z m-267 -1209 c-3 -7 -5 -2 -5 12 0 14 2 19 5 13 2 -7 2 -19 0 -25z m-360
-215 c-3 -10 -5 -2 -5 17 0 19 2 27 5 18 2 -10 2 -26 0 -35z m1134 -6 c-10 -9
-11 -8 -5 6 3 10 9 15 12 12 3 -3 0 -11 -7 -18z m-285 -125 c-7 -7 -20 -10
-29 -6 -26 10 -20 19 13 19 24 0 27 -2 16 -13z m80 8 c15 -6 25 -13 22 -15 -3
-3 -20 1 -39 9 -38 17 -25 21 17 6z m-71 -40 c-3 -5 -12 -10 -18 -10 -7 0 -6
4 3 10 19 12 23 12 15 0z m65 6 c0 -2 -9 -6 -20 -9 -11 -3 -18 -1 -14 4 5 9
34 13 34 5z"/>
<path d="M5031 11925 l-84 -21 -26 -80 c-31 -96 -76 -177 -126 -227 -20 -20
-34 -41 -30 -47 4 -6 3 -10 -2 -9 -4 1 -12 1 -17 0 -9 -1 303 -311 314 -311
11 0 80 76 75 82 -4 3 2 5 12 5 10 -1 17 4 15 11 -1 8 2 11 8 7 7 -4 21 2 33
12 39 34 72 51 148 75 73 23 80 23 512 22 240 -1 439 -3 442 -6 3 -2 5 -210 5
-461 1 -346 4 -458 13 -464 16 -10 45 -49 31 -40 -7 4 -15 -1 -19 -11 -7 -16
-8 -15 -16 3 -7 15 -8 12 -4 -13 3 -20 1 -31 -5 -27 -13 8 -12 -16 1 -35 10
-13 10 -13 6 0 -4 12 3 15 37 12 39 -4 40 -3 21 13 -11 9 -14 13 -7 10 8 -4
20 1 28 11 14 18 15 17 11 -9 -4 -26 -2 -28 27 -25 30 3 31 4 28 51 -2 26 1
47 6 47 6 0 12 132 15 313 6 327 13 392 56 489 28 61 89 141 159 204 55 51 55
51 36 72 -38 41 -68 45 -409 53 -350 8 -879 25 -1082 35 l-122 6 -3 137 -3
137 -84 -21z m1387 -1426 c-2 -6 -8 -10 -13 -10 -5 0 -11 4 -13 10 -2 6 4 11
13 11 9 0 15 -5 13 -11z"/>
<path d="M7740 11937 c0 -12 234 -231 243 -229 7 2 9 1 5 -3 -4 -4 -1 -12 6
-19 7 -6 35 -33 63 -59 l50 -48 96 92 c54 50 97 94 97 98 0 9 -218 80 -380
125 -146 40 -180 48 -180 43z"/>
<path d="M4760 11850 c-167 -51 -308 -101 -465 -165 l-130 -53 -130 -131
c-138 -140 -172 -187 -206 -290 -21 -62 -22 -77 -16 -300 9 -354 27 -592 45
-599 23 -8 846 28 856 38 4 5 24 6 42 3 19 -3 48 0 66 8 46 19 118 68 118 81
0 6 -9 3 -21 -8 -17 -16 -22 -16 -29 -4 -12 19 -8 33 11 38 12 3 12 2 -1 -7
-21 -14 -6 -25 18 -12 11 6 22 8 25 5 9 -10 58 40 52 54 -2 7 -1 10 4 7 5 -3
12 -1 15 4 7 11 -43 53 -54 46 -5 -3 -12 0 -16 6 -5 8 -3 9 7 4 12 -8 12 -6 0
8 -7 9 -17 14 -22 11 -5 -3 -9 -2 -8 3 4 23 -2 35 -16 29 -8 -3 -14 0 -12 6 1
7 -3 12 -10 13 -6 0 -15 4 -20 9 -5 6 -2 6 7 1 8 -4 2 6 -14 23 -16 17 -34 30
-40 29 -6 -1 -10 3 -9 9 1 6 -20 32 -47 59 l-48 48 -30 -22 c-17 -12 -45 -24
-62 -27 -21 -5 -27 -10 -19 -15 7 -4 1 -7 -17 -6 -56 2 -105 -3 -101 -10 3 -5
-16 -8 -41 -9 -26 0 -75 -2 -110 -3 -35 -2 -66 0 -70 4 -4 4 -7 84 -7 178 0
164 1 174 26 228 19 39 40 66 75 91 73 54 428 419 460 473 26 45 78 175 72
180 -2 2 -59 -14 -128 -35z m-123 -1466 c-3 -3 -12 -4 -19 -1 -8 3 -5 6 6 6
11 1 17 -2 13 -5z m203 -3 c-8 -5 -26 -11 -40 -15 -21 -5 -20 -3 5 9 32 15 60
20 35 6z m-87 -8 c-13 -2 -35 -2 -50 0 -16 2 -5 4 22 4 28 0 40 -2 28 -4z"/>
<path d="M7749 11831 c-2 -5 -64 -70 -136 -145 -73 -74 -133 -139 -133 -144 0
-17 220 -233 230 -227 5 3 7 0 5 -8 -6 -15 28 -51 44 -46 5 2 77 67 160 144
l150 139 -151 146 c-83 80 -154 146 -158 148 -5 2 -10 -1 -11 -7z"/>
<path d="M8250 11647 c-124 -119 -343 -325 -406 -381 -24 -21 -44 -44 -44 -50
0 -6 58 -68 128 -138 71 -71 127 -128 125 -128 -2 0 9 -11 24 -24 l28 -25 32
31 c18 17 31 36 30 42 -1 5 3 10 10 11 15 0 28 14 28 28 0 7 5 12 10 12 19 0
35 16 29 27 -4 6 -2 8 3 5 13 -8 36 17 25 27 -4 4 0 6 8 4 8 -2 14 3 13 10 -2
6 0 11 5 10 4 -1 93 85 197 191 105 107 209 212 233 234 23 22 42 43 42 47 0
11 -383 170 -407 170 -4 0 -55 -46 -113 -103z m-135 -696 c3 -5 2 -12 -3 -15
-5 -3 -9 1 -9 9 0 17 3 19 12 6z"/>
<path d="M8817 11554 c-3 -3 24 -35 60 -72 74 -76 137 -167 154 -220 7 -23 13
-160 16 -369 5 -295 3 -337 -12 -385 -25 -78 -96 -194 -164 -268 -33 -36 -60
-69 -61 -73 0 -11 105 -57 131 -57 11 0 18 3 16 8 -3 4 47 7 111 7 l117 0 3
621 c2 490 -1 624 -10 632 -18 13 -274 147 -319 166 -20 8 -39 13 -42 10z m53
-1389 c-7 -9 -15 -13 -19 -10 -3 3 1 10 9 15 21 14 24 12 10 -5z"/>
<path d="M3935 11529 c-22 -12 -100 -53 -172 -91 l-133 -71 0 -629 0 -629 218
5 c362 9 1022 21 1112 20 64 -1 74 0 40 6 l-45 6 40 6 c22 3 4 4 -40 2 -44 -2
-71 -1 -60 2 48 12 51 14 35 24 -19 12 -8 14 63 10 29 -1 47 2 47 9 0 7 29 11
80 11 62 0 80 3 80 14 0 8 5 16 12 18 9 3 9 6 0 12 -7 4 -12 2 -12 -3 0 -6
-20 -11 -45 -11 -35 0 -43 3 -39 14 10 26 84 24 122 -3 17 -13 32 -18 32 -12
0 6 4 11 8 11 5 0 7 -12 5 -27 -3 -20 1 -32 15 -40 17 -10 19 -8 20 17 0 17
-9 36 -24 51 -13 12 -24 17 -24 11 0 -7 -5 -12 -11 -12 -6 0 -9 7 -5 15 3 10
-8 30 -31 53 -20 20 -33 30 -31 22 4 -12 -3 -15 -32 -15 -21 0 -36 3 -33 8 2
4 13 5 23 2 11 -4 20 1 24 11 8 21 -2 33 -13 15 -5 -8 -11 -9 -15 -3 -3 6 -1
12 6 14 8 3 2 15 -15 34 -15 16 -27 23 -27 16 0 -6 -5 -12 -11 -12 -6 0 -9 6
-6 13 2 7 -4 23 -14 35 l-18 23 -59 -60 c-45 -45 -56 -63 -48 -73 8 -9 6 -9
-6 1 -9 7 -22 10 -29 6 -8 -6 -7 -10 2 -17 11 -8 10 -9 -2 -5 -9 3 -38 -5 -64
-18 -26 -12 -56 -20 -66 -18 -11 3 -19 1 -19 -5 0 -6 -31 -9 -77 -8 -76 1
-243 -5 -671 -24 -118 -6 -217 -8 -220 -6 -4 2 -8 33 -10 68 -2 34 -7 113 -13
173 -5 61 -12 230 -16 376 -6 256 -5 268 16 339 35 113 67 168 147 251 41 41
71 79 67 82 -9 10 -13 9 -58 -14z m1107 -1111 c-7 -7 -12 -8 -12 -2 0 14 12
26 19 19 2 -3 -1 -11 -7 -17z m-28 -23 c-4 -8 -8 -15 -10 -15 -2 0 -4 7 -4 15
0 8 4 15 10 15 5 0 7 -7 4 -15z m-24 -25 c0 -5 -5 -10 -11 -10 -5 0 -7 5 -4
10 3 6 8 10 11 10 2 0 4 -4 4 -10z m20 -30 c0 -5 -5 -10 -11 -10 -5 0 -7 5 -4
10 3 6 8 10 11 10 2 0 4 -4 4 -10z m-153 -49 c-28 -18 -28 -18 -6 -24 13 -4
21 -9 18 -11 -3 -3 -20 0 -37 6 l-32 12 32 18 c44 23 60 23 25 -1z m375 -1
c12 -11 18 -20 12 -20 -11 1 -44 25 -44 34 0 11 10 7 32 -14z m-565 -26 c-3
-3 -12 -4 -19 -1 -8 3 -5 6 6 6 11 1 17 -2 13 -5z m78 -4 c-18 -5 -23 -8 -11
-9 11 0 17 -4 13 -7 -3 -4 -13 -4 -22 0 -24 9 -8 26 23 25 l27 -1 -30 -8z m62
-6 c-3 -3 -12 -4 -19 -1 -8 3 -5 6 6 6 11 1 17 -2 13 -5z m61 -71 c-10 -2 -28
-2 -40 0 -13 2 -5 4 17 4 22 1 32 -1 23 -4z m-505 -50 c-24 -2 -62 -2 -85 0
-24 2 -5 4 42 4 47 0 66 -2 43 -4z"/>
<path d="M8642 11377 c-73 -74 -129 -137 -125 -142 5 -4 3 -5 -4 -1 -7 4 -19
-3 -28 -18 -15 -23 -14 -27 16 -76 31 -50 32 -57 45 -233 22 -301 28 -269 -71
-374 -46 -50 -82 -93 -80 -97 3 -3 2 -4 -2 -1 -10 8 -173 -157 -166 -168 3 -6
2 -7 -4 -4 -5 3 -29 -14 -53 -38 -24 -25 -39 -45 -34 -45 6 0 19 9 29 20 10
11 20 18 23 15 7 -7 -41 -44 -58 -45 -19 -1 -74 -56 -67 -67 3 -5 -39 -7 -96
-5 -56 2 -99 1 -96 -2 10 -10 191 -14 217 -5 13 5 22 5 22 -1 0 -6 -7 -10 -15
-10 -8 0 -15 -7 -15 -15 0 -11 11 -15 40 -15 22 0 40 -4 40 -10 0 -5 20 -10
44 -10 26 0 48 -6 56 -15 7 -8 23 -15 36 -15 19 0 24 -5 24 -25 0 -22 4 -25
40 -25 53 0 56 -27 3 -32 -43 -4 -59 -28 -18 -28 14 0 35 5 46 11 18 9 19 7
13 -15 -4 -16 -2 -26 5 -26 6 0 8 7 5 15 -4 11 -2 13 9 9 10 -4 22 7 38 35 12
23 27 37 33 34 8 -5 8 -3 0 8 -6 8 -11 25 -12 39 -1 18 1 21 8 11 4 -8 6 -20
4 -26 -3 -7 2 -15 10 -18 10 -4 13 -1 10 7 -3 8 9 22 28 34 19 12 48 36 64 54
17 18 83 83 148 143 122 114 188 203 227 305 17 45 19 78 19 333 -1 340 -7
400 -50 470 -28 47 -158 197 -171 197 -2 0 -64 -60 -137 -133z m-247 -967 c3
-6 -1 -7 -9 -4 -18 7 -21 14 -7 14 6 0 13 -4 16 -10z m-5 -54 c0 -3 -4 -8 -10
-11 -5 -3 -10 -1 -10 4 0 6 5 11 10 11 6 0 10 -2 10 -4z m-103 -48 c-3 -8 -6
-5 -6 6 -1 11 2 17 5 13 3 -3 4 -12 1 -19z m-44 -63 c-3 -9 -8 -14 -10 -11 -3
3 -2 9 2 15 9 16 15 13 8 -4z m-28 -5 c-3 -5 -11 -10 -16 -10 -6 0 -7 5 -4 10
3 6 11 10 16 10 6 0 7 -4 4 -10z m459 -99 c-10 -10 -21 -16 -24 -14 -3 3 4 11
14 19 28 20 33 17 10 -5z m-544 1 c0 -4 -13 -16 -30 -25 -16 -10 -30 -14 -30
-8 0 5 9 13 20 16 11 3 20 11 20 16 0 5 5 9 10 9 6 0 10 -4 10 -8z m490 -35
c-14 -8 -27 -12 -30 -10 -7 6 23 23 40 23 8 0 4 -6 -10 -13z m-476 -13 c3 -8
2 -12 -4 -9 -6 3 -10 10 -10 16 0 14 7 11 14 -7z m276 -98 c0 -3 -4 -8 -10
-11 -5 -3 -10 -1 -10 4 0 6 5 11 10 11 6 0 10 -2 10 -4z m30 -36 c0 -5 -4 -10
-10 -10 -5 0 -10 5 -10 10 0 6 5 10 10 10 6 0 10 -4 10 -10z m-6 -55 c-6 -16
-24 -21 -24 -7 0 11 11 22 21 22 5 0 6 -7 3 -15z"/>
<path d="M4554 11350 l-150 -149 207 -206 c115 -115 213 -204 219 -200 6 4 9
2 8 -3 -2 -5 17 -31 41 -56 42 -46 44 -47 65 -29 21 18 21 18 3 -3 -17 -21
-16 -22 69 -103 47 -44 91 -78 97 -74 6 3 7 1 3 -5 -9 -15 30 -53 47 -46 18 6
42 -21 27 -31 -11 -7 38 -52 52 -48 4 2 5 -4 2 -12 -4 -8 -1 -15 5 -15 10 0
15 14 12 33 0 4 4 7 9 7 6 0 8 -11 4 -26 -7 -29 31 -78 54 -69 10 3 12 0 9
-10 -4 -9 5 -22 22 -35 36 -25 45 -25 31 0 -6 11 -16 17 -25 14 -8 -4 -15 -1
-15 6 0 6 5 8 10 5 6 -3 10 1 10 9 0 9 5 16 11 16 6 0 9 -7 5 -15 -4 -10 1
-15 14 -15 13 0 18 -5 14 -15 -4 -8 -1 -15 5 -15 6 0 11 7 11 16 0 8 4 13 9
10 5 -3 47 35 95 85 78 83 108 120 72 90 -10 -9 -15 -8 -19 2 -4 10 2 13 18
11 13 -1 31 6 41 17 10 11 12 19 6 19 -7 0 -12 -5 -12 -12 0 -6 -3 -8 -6 -5
-13 13 19 38 40 31 20 -6 20 -5 4 12 -14 14 -20 15 -32 4 -10 -7 -16 -8 -16
-2 0 6 5 12 11 14 6 2 -176 191 -405 419 -229 229 -416 414 -416 411 0 -2 -14
13 -32 34 -17 22 -44 49 -58 61 l-26 21 -150 -148z m1066 -786 c0 -8 -19 -13
-24 -6 -3 5 1 9 9 9 8 0 15 -2 15 -3z m-510 -14 c0 -5 -2 -10 -4 -10 -3 0 -8
5 -11 10 -3 6 -1 10 4 10 6 0 11 -4 11 -10z m159 -102 c0 -31 -1 -31 -10 -10
-5 13 -7 28 -3 33 10 16 14 9 13 -23z m277 23 c10 8 14 8 14 0 0 -6 -5 -11
-11 -11 -5 0 -8 -4 -4 -9 3 -5 1 -12 -5 -16 -5 -3 -10 -2 -10 4 0 5 -2 15 -3
23 -2 7 -2 9 1 5 2 -4 10 -3 18 4z m34 -26 c0 -8 -16 -26 -81 -95 l-57 -59 2
41 c3 47 28 72 64 63 18 -4 26 1 40 25 15 26 32 40 32 25z m-240 -59 c0 -3 -4
-8 -10 -11 -5 -3 -10 -1 -10 4 0 6 5 11 10 11 6 0 10 -2 10 -4z m-15 -37 c11
-17 -1 -21 -15 -4 -8 9 -8 15 -2 15 6 0 14 -5 17 -11z m105 -39 c0 -5 -4 -10
-9 -10 -6 0 -13 5 -16 10 -3 6 1 10 9 10 9 0 16 -4 16 -10z"/>
<path d="M5473 10373 c-4 -10 -11 -21 -17 -25 -6 -4 -8 -9 -5 -12 5 -6 59 37
59 48 0 14 -31 5 -37 -11z"/>
<path d="M7286 11349 l-147 -152 123 -126 c67 -69 165 -169 217 -221 52 -52
137 -141 189 -197 52 -57 99 -100 105 -96 5 3 7 1 4 -4 -4 -6 2 -18 13 -28 17
-15 22 -16 37 -4 16 13 17 12 4 -3 -11 -14 -11 -21 -1 -33 7 -8 17 -12 23 -8
5 3 7 2 4 -4 -9 -14 100 -116 114 -107 8 5 9 3 5 -5 -9 -14 22 -53 36 -45 4 3
7 2 6 -3 -2 -5 13 -27 32 -50 l36 -41 117 117 c64 65 114 121 110 126 -5 4 -3
5 3 2 6 -3 26 9 44 28 l34 35 -29 30 c-22 23 -31 27 -38 18 -6 -9 -7 -8 -4 3
7 22 -126 154 -144 144 -10 -6 -11 -5 -3 4 8 8 -50 73 -221 246 -128 129 -229
238 -226 241 3 4 -3 4 -14 0 -11 -4 -16 -4 -12 0 10 10 -64 85 -76 77 -6 -3
-7 -2 -4 4 8 13 -77 96 -88 86 -4 -5 -5 -3 -2 3 9 15 -49 78 -63 69 -5 -3 -7
0 -4 9 3 8 -3 19 -14 25 -18 9 -37 -7 -166 -140z m444 -744 c19 -19 32 -35 29
-35 -3 0 -20 16 -39 35 -19 19 -32 35 -29 35 3 0 20 -16 39 -35z m521 -202
c-12 -20 -14 -14 -5 12 4 9 9 14 11 11 3 -2 0 -13 -6 -23z m-46 -43 c-3 -5
-11 -10 -16 -10 -6 0 -7 5 -4 10 3 6 11 10 16 10 6 0 7 -4 4 -10z m-129 -52
c5 -7 3 -8 -6 -3 -7 4 -16 2 -21 -6 -4 -7 -11 -10 -16 -6 -4 5 -1 12 7 17 20
13 27 12 36 -2z m38 -2 c-10 -8 -21 -12 -24 -10 -5 6 21 24 34 24 6 0 1 -6
-10 -14z m26 -10 c0 -3 -15 -14 -32 -26 l-33 -22 30 26 c31 27 35 29 35 22z"/>
<path d="M5453 11390 c-35 -4 -90 -18 -124 -31 -68 -27 -195 -119 -191 -138 1
-7 -2 -10 -7 -6 -6 3 -14 -3 -20 -13 -8 -16 11 -40 134 -162 143 -142 145
-143 172 -130 72 33 160 50 260 50 127 0 146 -7 161 -58 31 -103 18 -277 -24
-324 -10 -10 -14 -21 -11 -25 4 -4 14 2 23 13 16 20 8 -2 -9 -24 -8 -10 -12
-10 -18 -1 -6 10 -11 10 -23 0 -9 -8 -16 -19 -16 -25 0 -6 4 -4 10 4 5 8 12
11 17 7 9 -10 -18 -28 -30 -20 -7 4 -97 -82 -97 -94 0 -2 16 8 35 23 19 14 35
21 35 16 0 -6 -10 -16 -22 -23 -19 -10 -20 -12 -4 -21 9 -5 13 -14 10 -20 -5
-7 -12 -5 -20 7 -16 21 -27 16 -18 -9 9 -23 244 -24 244 -1 0 11 -11 15 -40
15 -29 0 -40 4 -40 15 0 12 20 15 119 15 86 0 121 4 125 13 5 10 7 10 12 0 10
-22 64 -16 72 8 8 20 9 19 21 -8 l14 -28 28 59 28 60 1 426 0 427 -187 6
c-229 8 -536 7 -620 -3z m434 -592 c-3 -8 -6 -5 -6 6 -1 11 2 17 5 13 3 -3 4
-12 1 -19z m14 -85 c-12 -20 -14 -14 -5 12 4 9 9 14 11 11 3 -2 0 -13 -6 -23z
m-66 -192 c-3 -6 -16 -16 -28 -22 -20 -10 -20 -9 3 14 25 24 38 28 25 8z m265
-31 c0 -5 -5 -10 -11 -10 -5 0 -7 5 -4 10 3 6 8 10 11 10 2 0 4 -4 4 -10z m95
1 c-3 -5 -1 -12 5 -16 5 -3 10 -14 10 -23 0 -11 -6 -6 -15 12 -18 34 -18 36
-4 36 5 0 8 -4 4 -9z m-443 -53 c-8 -8 -9 -5 -5 11 3 13 1 21 -6 21 -7 0 -9 5
-5 12 5 8 11 5 17 -10 7 -16 7 -26 -1 -34z"/>
<path d="M9238 10706 l3 -633 -178 -6 c-190 -5 -222 0 -270 45 -23 22 -59 18
-50 -5 6 -15 -31 -43 -52 -38 -9 1 -12 -3 -8 -13 3 -8 1 -18 -5 -22 -7 -5 -8
-2 -3 7 4 8 -15 -8 -44 -36 -28 -27 -51 -55 -51 -62 0 -6 -5 -15 -12 -19 -7
-5 -8 -2 -3 7 4 8 -8 -2 -28 -20 -21 -19 -36 -42 -34 -50 1 -9 -4 -16 -10 -16
-7 0 -13 -4 -12 -10 0 -5 6 -9 14 -7 7 1 12 -4 11 -12 -1 -15 69 -76 88 -76 6
0 5 4 -3 9 -8 5 -9 11 -3 15 6 3 13 2 16 -3 10 -15 -4 -38 -31 -50 -21 -10
-31 -8 -61 10 l-37 21 30 -25 c17 -15 25 -26 18 -27 -6 0 -15 5 -18 10 -3 6
-11 10 -17 10 -7 0 -7 -4 0 -13 8 -10 6 -13 -8 -14 -17 -2 -96 -33 -133 -54
-10 -5 -23 -7 -29 -3 -6 4 -8 3 -5 -3 7 -11 -12 -20 -97 -48 -27 -9 -70 -24
-95 -35 -157 -64 -430 -170 -440 -170 -7 0 -9 4 -6 10 3 5 0 7 -8 4 -8 -3 -22
3 -31 12 -14 14 -15 19 -4 26 10 7 8 8 -5 4 -20 -6 -129 43 -121 56 3 4 -2 5
-10 2 -9 -3 -16 -1 -16 5 0 6 -7 8 -15 5 -8 -4 -15 -2 -15 3 0 5 -6 10 -12 10
-7 0 -56 16 -108 36 -122 45 -343 112 -440 131 -314 63 -706 63 -951 0 -31 -8
-61 -14 -66 -13 -4 1 -21 -4 -38 -11 -16 -7 -42 -13 -57 -14 -14 0 -24 -3 -22
-5 6 -6 -196 -80 -210 -77 -6 2 -7 1 -3 -2 5 -2 -10 -13 -33 -23 -23 -10 -47
-16 -54 -12 -6 3 -8 3 -4 -2 10 -11 -29 -38 -42 -30 -6 3 -10 1 -10 -5 0 -6
-8 -13 -17 -17 -10 -3 -30 -15 -45 -25 -16 -11 -33 -16 -38 -13 -6 4 -9 1 -8
-6 2 -7 -21 -26 -50 -42 l-53 -29 -67 27 c-37 15 -80 33 -97 40 -62 28 -363
144 -425 165 -67 22 -211 88 -220 100 -3 4 -12 7 -20 8 -21 1 -41 7 -70 21
-24 11 -23 11 8 5 21 -4 32 -2 32 6 0 6 -5 8 -10 5 -6 -4 -17 -2 -24 4 -7 6
-20 9 -27 6 -8 -3 -31 1 -53 9 -32 11 -35 14 -17 19 12 3 21 1 21 -4 0 -5 5
-9 10 -9 6 0 10 14 10 30 0 28 2 30 40 30 29 0 40 4 40 15 0 8 -7 15 -16 15
-14 0 -15 2 -3 17 13 15 14 15 17 0 5 -24 21 -21 44 8 16 21 28 25 69 25 37 0
49 4 49 15 0 8 4 15 9 15 12 0 71 59 71 71 0 13 -10 12 165 19 l160 7 -177 -1
c-98 -1 -170 2 -160 6 9 4 89 8 177 9 l160 2 -120 8 c-66 5 -121 14 -123 19
-2 6 -16 10 -30 10 -19 0 -23 -3 -14 -9 23 -14 -6 -18 -108 -12 l-95 6 85 6
c47 4 -137 4 -408 1 l-492 -5 0 637 c0 350 -2 636 -5 636 -13 0 -239 -140
-373 -232 l-63 -43 1 -409 c0 -226 -2 -408 -4 -405 -2 2 -14 29 -25 59 -20 52
-21 75 -21 383 0 180 -3 327 -8 327 -10 0 -204 -151 -341 -267 -335 -283 -752
-741 -966 -1063 -17 -25 -36 -51 -43 -59 -7 -7 -11 -20 -8 -28 3 -8 2 -11 -3
-8 -12 7 -44 -39 -153 -220 -87 -144 -118 -199 -118 -211 0 -4 47 -4 105 -1
l105 6 0 -25 c0 -20 -5 -24 -32 -25 -18 -1 -37 -2 -43 -4 -5 -1 -46 -3 -91 -3
l-81 -2 -82 -166 c-45 -91 -81 -169 -79 -174 3 -8 75 41 180 122 l37 28 247 0
c238 0 248 -1 283 -22 l36 -23 -274 -3 c-264 -2 -274 -3 -305 -24 -17 -13 -75
-55 -128 -94 l-97 -71 127 -126 c129 -128 181 -177 186 -177 2 0 29 13 62 29
74 37 182 53 282 41 40 -4 74 -9 76 -11 15 -20 28 -131 23 -198 -7 -107 -44
-182 -140 -281 -39 -42 -116 -125 -170 -185 -55 -61 -120 -132 -146 -160 -164
-171 -207 -311 -227 -719 -7 -156 4 -263 36 -347 23 -61 91 -155 109 -151 7 1
10 -2 6 -8 -10 -17 45 -61 64 -51 36 20 173 170 165 183 -4 7 -3 10 1 5 5 -4
32 16 61 44 l52 51 -18 32 c-63 108 -78 464 -24 568 26 49 95 118 167 165 38
26 64 49 60 55 -3 6 -2 8 4 5 12 -8 109 80 105 94 -1 6 1 8 6 5 14 -8 55 41
47 55 -5 7 -4 10 2 6 16 -10 34 18 27 39 -4 14 -3 16 4 5 7 -10 17 -3 41 32
17 25 31 48 31 52 0 3 12 23 26 45 15 22 24 46 20 55 -3 9 -2 13 4 10 5 -3 16
11 25 31 12 30 13 40 3 53 -11 14 -11 14 3 4 13 -11 18 -4 38 51 21 60 22 77
21 349 0 164 3 288 9 291 5 3 19 -2 31 -12 21 -17 21 -20 18 -302 l-3 -285
-33 -82 c-18 -46 -30 -88 -26 -94 4 -7 3 -9 -3 -6 -8 5 -43 -50 -48 -73 0 -3
-8 -17 -18 -31 -10 -15 -15 -34 -11 -45 4 -14 3 -15 -4 -6 -7 10 -14 5 -31
-23 -17 -30 -18 -36 -6 -31 10 3 14 2 10 -5 -8 -13 24 -51 37 -43 4 3 7 0 6
-8 -2 -8 5 -12 19 -11 13 2 30 -7 41 -22 14 -18 25 -23 38 -18 18 7 18 6 2
-11 -23 -23 -24 -43 -1 -25 15 12 16 12 11 -2 -6 -15 36 -68 48 -61 2 1 4 -1
5 -5 1 -13 42 -53 53 -53 6 0 4 5 -4 10 -13 8 -12 10 4 10 15 0 16 3 6 15 -7
9 -10 19 -6 22 4 4 10 3 14 -2 12 -16 32 -16 26 0 -4 8 -10 12 -15 9 -5 -3 -9
-1 -9 5 0 7 -8 7 -27 0 -18 -7 -29 -6 -37 1 -8 9 -7 11 4 10 35 -5 50 1 50 20
0 11 5 20 10 20 6 0 10 9 10 20 0 11 -7 20 -15 20 -12 0 -15 16 -15 80 0 64 3
80 15 80 12 0 15 -14 15 -62 0 -35 3 -88 7 -118 l7 -55 8 45 c4 25 12 82 16
126 5 46 16 91 25 105 11 15 16 40 15 69 -1 43 -2 44 -5 8 -6 -52 -23 -48 -23
6 0 28 6 48 16 57 15 13 16 41 10 298 -4 157 -8 289 -9 294 -4 19 19 16 44 -6
20 -17 26 -33 28 -72 2 -27 5 -54 8 -59 4 -5 1 -6 -5 -2 -8 5 -11 -70 -10
-276 2 -268 2 -273 7 -101 3 100 9 185 14 189 4 4 7 -5 7 -19 0 -35 11 -34 49
4 34 34 39 49 16 49 -11 0 -15 11 -15 40 0 43 4 45 65 41 l30 -2 -35 23 c-32
21 -33 23 -12 26 24 4 31 22 7 22 -8 0 -15 4 -15 9 0 4 -12 7 -27 5 -18 -2
-20 -1 -8 3 11 3 23 9 26 14 3 6 16 -1 30 -14 13 -14 34 -28 47 -32 13 -3 49
-24 80 -44 31 -21 72 -46 89 -56 23 -14 29 -22 20 -28 -8 -5 -4 -6 9 -3 15 5
43 -10 102 -51 69 -50 277 -186 330 -218 9 -5 82 -53 162 -105 80 -53 171
-111 203 -130 90 -54 89 -50 71 -160 -18 -115 -29 -400 -20 -493 l8 -67 2522
0 2523 0 7 53 c15 126 -5 481 -34 602 -12 52 -12 65 1 65 10 0 93 52 207 129
29 20 71 47 92 61 97 62 347 222 364 233 11 7 31 23 45 36 15 13 46 32 71 44
42 19 90 49 115 72 24 21 85 49 92 42 4 -5 2 -12 -6 -16 -10 -6 -9 -10 4 -15
23 -8 37 -7 55 4 13 9 13 11 0 19 -8 6 -11 13 -7 17 15 15 46 -41 47 -83 0
-24 5 -43 10 -43 6 0 10 -18 10 -40 0 -29 4 -40 15 -40 10 0 15 10 15 28 l0
27 15 -29 c17 -32 20 -106 5 -106 -17 0 -11 -26 10 -45 15 -14 20 -31 20 -69
0 -61 17 -51 23 14 4 41 4 41 3 -8 -1 -28 2 -52 7 -52 13 0 9 564 -5 578 -8 8
-8 12 -1 12 6 0 13 8 16 19 2 10 19 23 37 29 25 9 30 9 22 -1 -6 -6 -9 -30 -7
-52 2 -22 5 -200 6 -395 2 -195 5 -347 7 -337 7 35 32 -3 32 -49 0 -37 -3 -44
-20 -44 -20 0 -20 -6 -18 -242 l3 -243 2 203 3 202 25 0 c25 0 25 -2 25 -80 0
-61 3 -80 14 -80 16 0 31 -142 22 -206 -5 -28 -4 -34 3 -19 5 11 11 56 12 100
2 76 2 77 9 30 4 -27 3 -77 -1 -110 -5 -33 -9 -66 -9 -72 0 -7 -7 -13 -15 -13
-12 0 -14 -7 -9 -27 4 -15 8 -67 8 -115 1 -49 4 -79 7 -66 3 14 9 -5 14 -52
l8 -75 9 45 c4 25 7 56 5 70 -3 17 -5 12 -7 -15 l-3 -40 -7 50 c-4 28 -5 102
-1 165 l6 115 6 -80 c5 -58 6 -48 3 38 -2 73 0 117 6 117 6 0 10 13 10 30 0
94 76 269 152 347 25 26 37 46 33 54 -5 8 -4 10 3 5 24 -14 11 2 -45 59 -32
32 -58 61 -58 64 0 3 -5 14 -11 25 -8 14 -13 15 -19 6 -4 -7 -2 -17 6 -22 11
-8 10 -9 -3 -4 -10 3 -18 1 -18 -4 0 -6 -4 -10 -9 -10 -7 0 -8 15 -2 55 1 6 6
3 12 -5 8 -12 9 -10 5 10 -3 14 -6 29 -6 33 0 5 -4 6 -8 3 -4 -2 -8 3 -8 12
-1 9 -6 52 -12 95 -7 43 -13 97 -13 120 l-2 42 -6 -35 c-4 -19 -6 21 -6 90 0
69 -4 187 -8 262 -7 133 -7 137 14 157 13 12 25 18 28 15 6 -6 22 -310 22
-419 0 -45 2 -55 9 -40 7 15 8 11 4 -16 -3 -20 -1 -78 5 -128 13 -104 44 -179
98 -238 19 -21 32 -32 28 -26 -4 8 -1 11 9 7 8 -3 12 -12 10 -19 -3 -7 5 -20
17 -29 22 -15 25 -14 51 11 16 15 26 33 23 41 -3 7 0 10 6 7 11 -7 56 44 51
58 -1 5 2 6 7 3 9 -6 64 47 139 134 l30 34 -23 46 c-43 85 -58 165 -52 275 14
233 112 434 301 619 79 78 208 173 245 181 l29 6 -60 107 c-84 149 -173 293
-197 319 -12 12 -21 26 -21 31 0 17 -264 376 -310 422 -3 3 -19 23 -35 45
-179 240 -613 656 -960 920 l-90 68 -5 -359 -5 -359 -27 -65 -27 -65 -3 449
-3 449 -60 42 c-110 77 -352 225 -367 225 -2 0 -2 -285 0 -634z m-325 -663
c-7 -2 -19 -2 -25 0 -7 3 -2 5 12 5 14 0 19 -2 13 -5z m-4480 -10 c-29 -2 -78
-2 -110 0 -32 2 -8 3 52 3 61 0 87 -1 58 -3z m100 0 c-7 -2 -19 -2 -25 0 -7 3
-2 5 12 5 14 0 19 -2 13 -5z m-310 -10 c-13 -2 -33 -2 -45 0 -13 2 -3 4 22 4
25 0 35 -2 23 -4z m4654 1 c-3 -3 -12 -4 -19 -1 -8 3 -5 6 6 6 11 1 17 -2 13
-5z m-4510 -11 c-20 -2 -52 -2 -70 0 -17 2 0 4 38 4 39 0 53 -2 32 -4z m140 0
c-8 -7 -77 -6 -85 2 -3 3 16 5 43 5 27 0 45 -3 42 -7z m4208 -4 c-5 -7 -54 -4
-61 4 -3 3 11 4 30 4 19 -1 33 -4 31 -8z m-4284 -48 c7 12 9 11 9 -1 0 -13 1
-13 10 0 7 11 10 11 10 2 0 -7 5 -10 10 -7 6 3 10 -3 10 -14 0 -18 -6 -21 -40
-21 -41 0 -45 5 -33 36 5 13 8 14 11 5 4 -11 6 -11 13 0z m4129 -54 c0 -2 -12
-14 -27 -28 l-26 -24 19 27 c16 23 34 36 34 25z m-5 -50 c0 -13 -6 -31 -13
-39 -10 -13 -10 -17 3 -22 8 -3 15 -10 15 -16 0 -5 -12 0 -26 12 -25 22 -25
23 -5 32 12 5 21 14 21 20 0 6 -5 5 -12 -2 -24 -24 -31 -12 -8 13 13 14 24 25
25 25 0 0 1 -11 0 -23z m245 -26 c23 -6 23 -8 6 -14 -11 -4 -22 -4 -25 2 -3 5
-15 11 -26 14 l-20 5 20 0 c11 0 31 -3 45 -7z m-4745 -11 c8 -13 -5 -13 -25 0
-13 8 -13 10 2 10 9 0 20 -4 23 -10z m4712 -16 c-3 -3 -12 -4 -19 -1 -8 3 -5
6 6 6 11 1 17 -2 13 -5z m-101 -24 c22 0 16 -14 -11 -27 -14 -6 -25 -7 -25 -2
0 5 5 9 11 9 6 0 8 10 5 23 -3 12 -3 16 0 10 3 -7 12 -13 20 -13z m-4529 4
c-3 -3 -12 -4 -19 -1 -8 3 -5 6 6 6 11 1 17 -2 13 -5z m4580 0 c-3 -3 -12 -4
-19 -1 -8 3 -5 6 6 6 11 1 17 -2 13 -5z m-5951 -1421 c-2 -3 -14 1 -27 7 -20
11 -21 10 -16 -10 4 -16 3 -20 -5 -12 -6 6 -8 18 -5 26 5 13 11 14 32 4 14 -6
23 -13 21 -15z m7316 -25 c-7 -7 -12 -8 -12 -2 0 14 12 26 19 19 2 -3 -1 -11
-7 -17z m-96 -33 c-40 -27 -46 -29 -46 -17 0 10 51 41 69 42 8 0 -3 -11 -23
-25z m-7379 -57 c-3 -8 -6 -5 -6 6 -1 11 2 17 5 13 3 -3 4 -12 1 -19z m7373
12 c0 -5 -9 -10 -21 -10 -11 0 -17 5 -14 10 3 6 13 10 21 10 8 0 14 -4 14 -10z
m357 -12 c-3 -8 -6 -5 -6 6 -1 11 2 17 5 13 3 -3 4 -12 1 -19z m-7623 -84 c3
-8 2 -12 -4 -9 -6 3 -10 10 -10 16 0 14 7 11 14 -7z m7633 -136 c-2 -13 -4 -5
-4 17 -1 22 1 32 4 23 2 -10 2 -28 0 -40z m-7885 0 c-7 -7 -12 -8 -12 -2 0 14
12 26 19 19 2 -3 -1 -11 -7 -17z m7895 -100 c-3 -8 -6 -5 -6 6 -1 11 2 17 5
13 3 -3 4 -12 1 -19z m20 0 c-3 -8 -6 -5 -6 6 -1 11 2 17 5 13 3 -3 4 -12 1
-19z m143 -94 c0 -8 -19 -13 -24 -6 -3 5 1 9 9 9 8 0 15 -2 15 -3z m20 -25
c-7 -11 -14 -18 -17 -15 -3 3 0 12 7 21 18 21 23 19 10 -6z m120 -74 c0 -5 -5
-3 -10 5 -5 8 -10 20 -10 25 0 6 5 3 10 -5 5 -8 10 -19 10 -25z m-8483 -37
c-3 -8 -6 -5 -6 6 -1 11 2 17 5 13 3 -3 4 -12 1 -19z m34 -5 c-12 -20 -14 -14
-5 12 4 9 9 14 11 11 3 -2 0 -13 -6 -23z m376 -14 c-5 -4 -7 -20 -4 -35 3 -16
2 -47 -3 -69 -7 -38 -8 -37 -9 21 0 34 2 76 6 95 5 27 8 30 13 14 4 -11 3 -23
-3 -26z m-192 21 c3 -6 -1 -7 -9 -4 -18 7 -21 14 -7 14 6 0 13 -4 16 -10z m0
-110 c3 -6 -1 -7 -9 -4 -18 7 -21 14 -7 14 6 0 13 -4 16 -10z m96 -71 c6 -3
-2 -20 -19 -39 l-30 -32 2 30 c1 17 5 34 9 39 5 4 5 0 1 -10 -3 -10 -1 -17 5
-17 12 0 13 4 13 65 1 39 1 39 5 5 3 -19 9 -38 14 -41z m-96 40 c11 -16 1 -19
-13 -3 -7 8 -8 14 -3 14 5 0 13 -5 16 -11z m8038 -56 c-3 -7 -9 -13 -13 -13
-4 0 -10 6 -13 13 -3 7 3 13 13 13 10 0 16 -6 13 -13z m11 -28 c-9 -14 -20
-22 -25 -20 -4 3 -1 14 9 25 25 27 35 24 16 -5z m-32 -72 c-10 -28 -10 -28 -8
9 0 21 5 33 10 28 4 -4 4 -21 -2 -37z m-8475 30 c-4 -3 -1 -13 6 -22 11 -14
10 -14 -5 -2 -16 12 -16 31 -1 31 4 0 3 -3 0 -7z m583 -33 c0 -5 -5 -10 -11
-10 -5 0 -7 5 -4 10 3 6 8 10 11 10 2 0 4 -4 4 -10z m7849 -103 l-1 -42 -8 48
c-10 55 -20 72 -21 36 l-1 -24 -8 25 c-15 47 -10 56 15 27 19 -21 25 -39 24
-70z m18 41 c-3 -8 -6 -5 -6 6 -1 11 2 17 5 13 3 -3 4 -12 1 -19z m-50 -360
c-2 -13 -4 -3 -4 22 0 25 2 35 4 23 2 -13 2 -33 0 -45z"/>
<path d="M4328 11123 c-19 -41 -23 -69 -26 -195 l-4 -148 37 0 c115 0 335 52
335 79 0 8 -304 311 -313 311 -4 0 -17 -21 -29 -47z"/>
<path d="M7082 11137 c-38 -40 -74 -169 -76 -267 l-1 -85 55 -3 c120 -7 313
39 293 71 -4 6 0 8 9 4 36 -13 25 10 -28 64 -32 32 -62 55 -67 52 -6 -3 -7 -1
-3 5 9 15 -31 55 -46 46 -7 -4 -8 -3 -4 4 3 6 -19 38 -51 72 l-58 62 -23 -25z"/>
<path d="M8282 11007 l-143 -143 87 -88 c67 -68 89 -85 96 -74 8 10 9 9 5 -4
-7 -20 56 -93 72 -84 5 4 13 1 17 -5 4 -8 3 -9 -4 -5 -19 12 -14 -9 7 -28 16
-15 19 -15 31 -1 10 12 10 18 -1 33 -13 15 -12 16 2 4 15 -11 20 -9 38 14 24
31 24 36 7 269 -10 147 -15 176 -36 213 -13 23 -26 42 -29 42 -4 0 -70 -64
-149 -143z"/>
<path d="M5565 10904 c-54 -11 -94 -28 -88 -37 3 -6 1 -7 -5 -4 -14 9 -43 -3
-36 -14 3 -5 10 -6 16 -3 7 4 8 2 4 -4 -7 -12 50 -59 66 -54 5 1 7 -2 3 -8 -9
-15 29 -52 47 -45 9 4 19 2 23 -4 4 -7 -1 -8 -12 -5 -10 4 18 -30 62 -74 l80
-81 28 27 c15 14 32 43 38 65 14 54 15 165 0 210 l-13 37 -96 -1 c-53 -1 -106
-3 -117 -5z m222 -76 c-3 -8 -6 -5 -6 6 -1 11 2 17 5 13 3 -3 4 -12 1 -19z
m10 -50 c-3 -8 -6 -5 -6 6 -1 11 2 17 5 13 3 -3 4 -12 1 -19z m-167 -78 c0 -5
-2 -10 -4 -10 -3 0 -8 5 -11 10 -3 6 -1 10 4 10 6 0 11 -4 11 -10z m36 -37
c-7 -7 -26 7 -26 19 0 6 6 6 15 -2 9 -7 13 -15 11 -17z m64 -38 c-7 -8 -17
-15 -22 -15 -6 0 -5 7 2 15 7 8 17 15 22 15 6 0 5 -7 -2 -15z m20 -15 c-13
-11 -25 -20 -28 -20 -3 0 3 9 13 20 10 11 23 20 28 20 6 0 0 -9 -13 -20z"/>
<path d="M6477 10433 c8 -76 13 -80 13 -10 0 31 -4 58 -9 62 -6 3 -7 -18 -4
-52z"/>
<path d="M7741 10455 c-19 -21 -21 -28 -11 -40 8 -10 9 -15 2 -15 -6 0 -14 5
-18 11 -4 6 -9 7 -13 2 -3 -5 -28 -24 -55 -42 -31 -22 -44 -36 -36 -41 8 -5 7
-9 -5 -13 -9 -4 -13 -3 -10 3 8 13 -15 13 -35 0 -10 -6 -11 -10 -2 -10 6 0 12
-4 12 -9 0 -5 -19 -8 -42 -6 l-43 3 30 -13 c20 -10 24 -14 12 -15 -10 0 -27 4
-37 10 -12 7 -30 5 -57 -4 -21 -8 -33 -15 -26 -15 6 -1 23 3 37 9 19 7 33 5
53 -6 l28 -16 -27 6 c-14 3 -37 2 -50 -3 -19 -7 -15 -8 22 -8 25 0 59 8 77 18
40 23 43 23 43 5 0 -8 -10 -17 -22 -19 l-23 -4 23 -2 c15 -1 25 7 31 22 9 22
41 34 41 15 0 -4 9 -8 20 -8 11 0 20 -4 20 -9 0 -5 3 -17 6 -25 5 -14 -1 -16
-35 -12 -25 2 -44 -1 -51 -9 -6 -7 -24 -11 -40 -10 -17 1 -32 0 -34 -4 -3 -3
29 -6 69 -6 40 0 71 3 69 7 -3 5 21 8 54 8 46 0 63 -4 77 -20 19 -21 45 -27
45 -11 0 5 11 4 24 -2 16 -8 21 -14 13 -19 -7 -4 6 -8 28 -7 42 0 123 13 131
21 10 11 -9 39 -23 34 -8 -4 -11 -1 -8 5 7 11 -22 49 -37 49 -5 0 -7 -4 -4 -8
6 -10 -30 -9 -40 0 -3 4 -1 14 4 24 10 18 11 18 -119 157 l-44 47 -24 -25z
m60 -22 c30 -33 30 -35 3 -10 -17 15 -33 25 -36 22 -2 -3 -5 2 -5 10 0 8 1 15
2 15 0 0 17 -17 36 -37z m-47 -9 c3 -8 2 -12 -4 -9 -6 3 -10 10 -10 16 0 14 7
11 14 -7z m31 -4 c3 -5 1 -10 -4 -10 -6 0 -11 5 -11 10 0 6 2 10 4 10 3 0 8
-4 11 -10z m-109 -57 c0 -12 -8 -18 -24 -18 l-23 0 22 18 c11 9 22 17 23 17 1
0 2 -8 2 -17z m344 -183 c0 -5 -8 -10 -17 -10 -15 0 -16 2 -3 10 19 12 20 12
20 0z m-80 -10 c0 -5 -2 -10 -4 -10 -3 0 -8 5 -11 10 -3 6 -1 10 4 10 6 0 11
-4 11 -10z"/>
<path d="M5160 10460 c0 -5 5 -10 10 -10 6 0 10 5 10 10 0 6 -4 10 -10 10 -5
0 -10 -4 -10 -10z"/>
<path d="M6267 10414 c-12 -32 -14 -52 -7 -69 14 -36 22 -30 14 10 -4 21 -1
48 6 65 7 17 11 33 8 35 -2 2 -11 -16 -21 -41z"/>
<path d="M6168 10422 c-4 -12 -2 -20 3 -16 5 3 9 0 9 -5 0 -6 -5 -11 -11 -11
-5 0 -7 -5 -3 -11 12 -19 25 17 16 42 l-9 23 -5 -22z"/>
<path d="M5633 10391 c-10 -15 -9 -22 2 -31 8 -7 15 -17 15 -23 0 -6 -10 -1
-22 10 l-23 21 -25 -32 c-13 -17 -18 -26 -10 -20 8 5 35 10 60 9 49 -1 54 8
36 63 -9 27 -18 28 -33 3z"/>
<path d="M6280 10383 c0 -13 5 -23 11 -23 6 0 9 -9 6 -20 -3 -11 -2 -20 3 -20
17 0 16 38 -1 61 l-19 24 0 -22z"/>
<path d="M6960 10375 c-6 -7 -24 -11 -40 -10 -17 1 -32 0 -34 -4 -3 -3 29 -6
69 -6 40 0 71 3 69 7 -3 5 3 8 12 8 30 0 8 11 -29 14 -21 2 -41 -2 -47 -9z"/>
<path d="M6084 10368 c-4 -7 -3 -8 4 -4 7 4 12 2 12 -3 0 -6 9 -11 20 -11 11
0 20 7 20 15 0 18 -45 21 -56 3z"/>
<path d="M6552 10340 c0 -14 2 -19 5 -12 2 6 2 18 0 25 -3 6 -5 1 -5 -13z"/>
<path d="M6215 10322 c-17 -25 -17 -26 -1 -12 18 14 18 13 11 -10 -9 -31 -9
-31 -31 -34 -10 -2 -20 -8 -22 -14 -5 -15 14 -16 23 -2 5 8 11 7 21 -1 15 -12
15 -12 19 29 2 15 6 37 10 50 10 30 -6 27 -30 -6z"/>
<path d="M6087 10303 c3 -7 9 -13 15 -13 5 0 6 -5 3 -10 -4 -6 -11 -8 -16 -5
-5 3 -6 -1 -3 -9 8 -21 8 -21 40 22 24 32 25 35 4 17 -19 -17 -22 -17 -17 -3
4 12 1 16 -12 15 -11 -1 -17 -7 -14 -14z"/>
<path d="M6978 10313 c12 -2 32 -2 45 0 12 2 2 4 -23 4 -25 0 -35 -2 -22 -4z"/>
<path d="M7318 10313 c7 -3 16 -2 19 1 4 3 -2 6 -13 5 -11 0 -14 -3 -6 -6z"/>
<path d="M5577 10293 c-11 -11 -17 -13 -17 -5 0 7 -5 12 -11 12 -6 0 -8 -7 -5
-16 4 -9 1 -24 -6 -33 -7 -9 3 -2 22 14 19 17 37 31 39 33 2 1 2 4 0 7 -3 2
-13 -3 -22 -12z"/>
<path d="M5494 10242 c-40 -48 -47 -62 -35 -62 6 0 11 7 11 15 0 8 4 15 8 15
9 0 56 60 50 65 -2 2 -17 -13 -34 -33z"/>
<path d="M7935 10269 c-11 -17 1 -21 15 -4 8 9 8 15 2 15 -6 0 -14 -5 -17 -11z"/>
<path d="M5580 10255 c-8 -9 -8 -15 -2 -15 12 0 26 19 19 26 -2 2 -10 -2 -17
-11z"/>
<path d="M7351 10250 c-7 -4 1 -7 18 -8 17 0 31 1 31 3 0 7 -39 12 -49 5z"/>
<path d="M7298 10243 c7 -3 16 -2 19 1 4 3 -2 6 -13 5 -11 0 -14 -3 -6 -6z"/>
<path d="M6005 10230 c-3 -5 0 -12 6 -16 8 -4 9 -3 5 4 -9 14 3 15 23 3 12 -8
11 -13 -10 -31 l-24 -21 28 17 c17 10 26 23 22 32 -4 10 0 12 12 8 10 -4 14
-4 10 1 -11 11 -66 13 -72 3z"/>
<path d="M5330 10201 c0 -10 19 -25 25 -20 1 2 -3 10 -11 17 -8 7 -14 8 -14 3z"/>
<path d="M5490 10190 c0 -5 4 -10 9 -10 6 0 13 5 16 10 3 6 -1 10 -9 10 -9 0
-16 -4 -16 -10z"/>
<path d="M6145 10191 c4 -8 2 -17 -6 -22 -9 -6 -10 -9 -2 -9 19 0 27 21 13 33
-10 9 -11 9 -5 -2z"/>
<path d="M5276 10162 c-2 -4 4 -8 14 -8 10 0 16 4 14 8 -3 4 -9 8 -14 8 -5 0
-11 -4 -14 -8z"/>
<path d="M5148 10153 c6 -2 18 -2 25 0 6 3 1 5 -13 5 -14 0 -19 -2 -12 -5z"/>
<path d="M5208 10153 c7 -3 16 -2 19 1 4 3 -2 6 -13 5 -11 0 -14 -3 -6 -6z"/>
<path d="M5410 10145 c-10 -12 -10 -15 1 -15 8 0 2 -11 -14 -25 -15 -14 -24
-25 -18 -25 15 0 68 49 54 50 -7 0 -10 7 -7 15 4 8 4 15 1 15 -2 0 -10 -7 -17
-15z"/>
<path d="M5926 10152 c-2 -4 4 -8 14 -8 10 0 16 4 14 8 -3 4 -9 8 -14 8 -5 0
-11 -4 -14 -8z"/>
<path d="M5970 10156 c0 -2 7 -7 16 -10 8 -3 12 -2 9 4 -6 10 -25 14 -25 6z"/>
<path d="M7128 10153 c7 -3 16 -2 19 1 4 3 -2 6 -13 5 -11 0 -14 -3 -6 -6z"/>
<path d="M7438 10148 c6 -6 18 -8 28 -6 14 3 12 5 -9 10 -19 3 -25 2 -19 -4z"/>
<path d="M6618 10143 c7 -3 16 -2 19 1 4 3 -2 6 -13 5 -11 0 -14 -3 -6 -6z"/>
<path d="M7568 10143 c6 -2 18 -2 25 0 6 3 1 5 -13 5 -14 0 -19 -2 -12 -5z"/>
<path d="M5147 10133 c18 -2 50 -2 70 0 21 2 7 4 -32 4 -38 0 -55 -2 -38 -4z"/>
<path d="M6078 10128 c9 -9 9 -15 -1 -27 -11 -14 -10 -14 6 -2 13 10 15 17 6
27 -6 8 -14 14 -17 14 -3 0 -1 -5 6 -12z"/>
<path d="M7128 10133 c7 -3 16 -2 19 1 4 3 -2 6 -13 5 -11 0 -14 -3 -6 -6z"/>
<path d="M5944 10109 c-19 -22 -19 -22 4 -8 12 8 22 17 22 21 0 12 -6 9 -26
-13z"/>
<path d="M6568 10123 c7 -3 16 -2 19 1 4 3 -2 6 -13 5 -11 0 -14 -3 -6 -6z"/>
<path d="M8709 10083 c-13 -16 -12 -17 4 -4 9 7 17 15 17 17 0 8 -8 3 -21 -13z"/>
<path d="M7803 10083 c9 -2 23 -2 30 0 6 3 -1 5 -18 5 -16 0 -22 -2 -12 -5z"/>
<path d="M5890 10076 c0 -2 7 -7 16 -10 8 -3 12 -2 9 4 -6 10 -25 14 -25 6z"/>
<path d="M4738 10063 c12 -2 32 -2 45 0 12 2 2 4 -23 4 -25 0 -35 -2 -22 -4z"/>
<path d="M4850 10059 c25 -4 61 -7 80 -7 29 1 26 2 -15 8 -69 11 -126 10 -65
-1z"/>
<path d="M5847 10059 c7 -7 15 -10 18 -7 3 3 -2 9 -12 12 -14 6 -15 5 -6 -5z"/>
<path d="M5058 10023 c12 -2 32 -2 45 0 12 2 2 4 -23 4 -25 0 -35 -2 -22 -4z"/>
<path d="M5980 10010 c-9 -6 -10 -10 -3 -10 6 0 15 5 18 10 8 12 4 12 -15 0z"/>
<path d="M4720 9984 c0 -14 3 -14 15 -4 8 7 15 14 15 16 0 2 -7 4 -15 4 -8 0
-15 -7 -15 -16z"/>
<path d="M8050 9996 c0 -2 7 -9 15 -16 12 -10 15 -10 15 4 0 9 -7 16 -15 16
-8 0 -15 -2 -15 -4z"/>
<path d="M4560 9904 c0 -14 3 -14 15 -4 8 7 15 14 15 16 0 2 -7 4 -15 4 -8 0
-15 -7 -15 -16z"/>
<path d="M5730 9916 c0 -2 7 -7 16 -10 8 -3 12 -2 9 4 -6 10 -25 14 -25 6z"/>
<path d="M8210 9916 c0 -2 7 -9 15 -16 12 -10 15 -10 15 4 0 9 -7 16 -15 16
-8 0 -15 -2 -15 -4z"/>
<path d="M5699 9863 c-13 -16 -12 -17 4 -4 9 7 17 15 17 17 0 8 -8 3 -21 -13z"/>
<path d="M8327 9833 c-4 -3 -7 -11 -7 -17 0 -6 4 -5 9 3 6 9 11 10 15 2 9 -14
-2 -33 -15 -26 -5 4 -9 2 -9 -3 0 -22 14 -18 42 10 16 16 27 33 23 36 -3 4
-10 0 -14 -7 -6 -9 -11 -10 -15 -2 -8 12 -19 14 -29 4z"/>
<path d="M8414 9778 c-5 -8 -2 -9 9 -5 10 3 17 2 17 -3 0 -6 5 -10 11 -10 8 0
8 5 -1 15 -15 18 -26 19 -36 3z"/>
<path d="M4300 9750 c0 -6 11 -8 28 -4 39 10 40 14 4 14 -18 0 -32 -5 -32 -10z"/>
<path d="M8256 9748 c3 -4 0 -17 -6 -29 -9 -16 -9 -24 0 -33 8 -8 10 -7 4 7
-4 12 -2 16 7 14 8 -2 11 -2 7 0 -13 8 -9 25 5 20 7 -3 13 2 13 12 0 9 -8 17
-17 17 -10 0 -15 -4 -13 -8z"/>
<path d="M8385 9715 c0 -13 2 -26 5 -29 3 -3 6 5 5 19 0 13 -2 26 -5 29 -3 3
-6 -5 -5 -19z"/>
<path d="M8351 9706 c-9 -10 -8 -15 2 -19 8 -3 13 3 13 14 0 23 0 23 -15 5z"/>
<path d="M8328 9673 c7 -3 16 -2 19 1 4 3 -2 6 -13 5 -11 0 -14 -3 -6 -6z"/>
<path d="M4538 9643 c7 -3 16 -2 19 1 4 3 -2 6 -13 5 -11 0 -14 -3 -6 -6z"/>
<path d="M7540 9466 c0 -2 7 -7 16 -10 8 -3 12 -2 9 4 -6 10 -25 14 -25 6z"/>
<path d="M11373 9045 c-28 -12 -53 -27 -56 -32 -3 -5 60 -74 139 -153 l145
-145 -34 75 c-54 120 -129 270 -137 275 -3 2 -29 -7 -57 -20z"/>
<path d="M11220 8933 c-83 -71 -230 -247 -230 -274 0 -5 214 -224 476 -487
262 -262 474 -468 471 -457 -3 11 -21 81 -41 155 -46 179 -111 381 -180 565
l-56 150 -193 193 c-105 105 -194 192 -198 192 -3 0 -25 -17 -49 -37z"/>
<path d="M1176 8598 c-46 -109 -147 -393 -144 -403 6 -25 492 -514 504 -507 6
4 31 30 55 58 24 28 89 99 143 158 l99 107 -43 44 c-24 24 -48 41 -53 38 -6
-3 -7 -2 -4 4 5 8 -118 136 -188 195 -11 9 -92 88 -180 177 -88 88 -164 161
-168 161 -4 0 -14 -15 -21 -32z"/>
<path d="M10945 8571 c-74 -144 -80 -435 -11 -526 15 -19 18 -18 78 46 99 103
216 233 217 242 1 4 -2 8 -6 9 -5 1 -22 18 -39 38 -37 43 -213 220 -219 220
-3 0 -11 -13 -20 -29z"/>
<path d="M1690 8381 c-34 -11 -87 -39 -94 -50 -7 -10 212 -227 225 -223 5 1 8
-1 6 -5 -1 -5 8 -18 20 -30 l22 -22 19 27 c46 66 65 190 41 275 l-10 37 -102
-1 c-56 0 -113 -4 -127 -8z"/>
<path d="M11231 8253 c-18 -21 -60 -67 -94 -103 -34 -36 -89 -95 -122 -131
-33 -36 -109 -119 -170 -184 -60 -66 -109 -125 -109 -132 1 -7 -2 -11 -6 -8
-11 7 -210 -210 -210 -229 0 -6 7 -2 15 8 8 11 15 15 15 9 0 -12 -31 -41 -36
-33 -2 3 -14 -17 -29 -43 -14 -27 -21 -46 -16 -43 5 3 7 -3 4 -14 -3 -11 -9
-17 -14 -14 -5 3 -10 -3 -10 -13 -1 -10 -4 -29 -6 -43 -6 -33 -6 -63 0 -200 3
-71 2 -84 -2 -33 -10 136 -21 105 -20 -58 1 -85 4 -144 6 -131 2 12 9 22 15
22 6 0 7 -9 3 -22 -13 -39 -10 -240 4 -281 7 -21 15 -36 17 -34 3 2 0 16 -6
31 -6 17 -6 40 -1 64 l10 37 0 -45 c-1 -75 6 -104 37 -150 16 -25 32 -46 37
-48 4 -2 7 -8 7 -13 0 -17 59 -74 67 -66 4 5 1 13 -7 18 -12 8 -10 10 8 6 23
-5 64 33 58 56 -1 7 -1 9 1 5 10 -18 24 -6 17 14 -6 20 -5 21 8 10 12 -10 18
-9 28 2 6 9 9 20 5 25 -4 7 0 8 10 5 12 -5 16 -2 13 12 -2 14 2 18 16 16 13
-3 17 1 13 11 -3 9 4 23 16 34 l22 18 -20 -25 c-11 -14 1 -6 27 18 l45 44 -19
51 c-18 46 -20 74 -18 257 3 251 3 249 13 243 4 -2 7 5 7 15 0 11 7 25 15 32
9 7 14 19 11 27 -3 8 -2 12 3 8 5 -3 20 9 32 27 13 18 31 40 40 49 10 8 138
132 286 276 147 143 289 280 315 305 l47 45 -166 167 c-91 91 -169 166 -173
166 -4 0 -22 -17 -39 -37z m-527 -605 c-3 -7 -17 -22 -32 -32 -27 -19 -27 -19
2 12 32 35 38 38 30 20z m-157 -230 c-3 -8 -6 -5 -6 6 -1 11 2 17 5 13 3 -3 4
-12 1 -19z m-30 -20 c-3 -7 -5 -2 -5 12 0 14 2 19 5 13 2 -7 2 -19 0 -25z
m-50 -180 c-3 -7 -5 -2 -5 12 0 14 2 19 5 13 2 -7 2 -19 0 -25z m-9 -43 c0
-16 -2 -15 -8 5 -11 34 -11 60 0 35 5 -11 8 -29 8 -40z m19 -317 c-3 -8 -6 -5
-6 6 -1 11 2 17 5 13 3 -3 4 -12 1 -19z m-18 -123 c-5 -44 -11 -84 -14 -90 -6
-13 5 134 12 158 10 35 10 12 2 -68z m22 -26 l-11 -34 5 34 c3 18 6 48 7 65
l1 31 4 -31 c2 -18 -1 -47 -6 -65z m336 -61 c-3 -7 -5 -2 -5 12 0 14 2 19 5
13 2 -7 2 -19 0 -25z m-281 -168 c6 0 1 25 -12 67 -5 17 -5 17 6 0 7 -10 15
-31 20 -46 6 -23 4 -27 -12 -28 -12 -1 -22 6 -25 18 -3 10 -9 19 -14 19 -5 0
-9 12 -9 28 1 25 2 23 21 -15 11 -24 22 -43 25 -43z"/>
<path d="M2860 8270 c0 -5 5 -10 10 -10 6 0 10 5 10 10 0 6 -4 10 -10 10 -5 0
-10 -4 -10 -10z"/>
<path d="M2892 8258 c-14 -14 -16 -48 -3 -48 14 0 21 28 8 34 -7 4 1 3 18 0
16 -3 28 -4 25 -2 -3 2 -12 9 -21 16 -12 9 -18 9 -27 0z"/>
<path d="M9897 8238 c7 -8 10 -18 6 -21 -3 -4 -1 -7 6 -7 17 0 10 32 -9 38
-12 4 -13 3 -3 -10z"/>
<path d="M9960 8211 c0 -25 6 -27 13 -6 4 8 2 17 -3 20 -6 4 -10 -3 -10 -14z"/>
<path d="M9805 8180 c-3 -5 -1 -10 4 -10 6 0 11 5 11 10 0 6 -2 10 -4 10 -3 0
-8 -4 -11 -10z"/>
<path d="M967 7998 c-20 -73 -37 -137 -37 -141 0 -12 103 47 168 96 l53 40
-68 69 c-37 37 -70 68 -73 68 -3 0 -22 -60 -43 -132z"/>
<path d="M3052 8100 c0 -14 2 -19 5 -12 2 6 2 18 0 25 -3 6 -5 1 -5 -13z"/>
<path d="M3152 8100 c0 -14 2 -19 5 -12 2 6 2 18 0 25 -3 6 -5 1 -5 -13z"/>
<path d="M2800 8064 c0 -14 3 -14 15 -4 8 7 15 14 15 16 0 2 -7 4 -15 4 -8 0
-15 -7 -15 -16z"/>
<path d="M9970 8076 c0 -2 7 -9 15 -16 12 -10 15 -10 15 4 0 9 -7 16 -15 16
-8 0 -15 -2 -15 -4z"/>
<path d="M2713 7960 c0 -25 2 -35 4 -22 2 12 2 32 0 45 -2 12 -4 2 -4 -23z"/>
<path d="M1144 7927 c-50 -42 -106 -78 -174 -112 -30 -15 -57 -29 -58 -30 -6
-6 -41 -169 -42 -192 0 -23 2 -23 114 -23 l114 0 6 -62 c3 -35 8 -220 11 -413
9 -543 24 -1081 31 -1099 3 -9 11 -16 18 -16 6 0 78 67 159 148 l148 148 -49
50 c-55 55 -127 170 -142 224 -35 128 -36 360 -4 609 24 185 87 340 177 438
l40 44 -23 24 c-13 13 -27 22 -32 19 -5 -3 -7 -1 -6 4 2 5 -54 68 -123 140
l-127 131 -38 -32z"/>
<path d="M10050 7916 c0 -2 7 -9 15 -16 12 -10 15 -10 15 4 0 9 -7 16 -15 16
-8 0 -15 -2 -15 -4z"/>
<path d="M11487 7767 c-154 -148 -158 -153 -140 -170 11 -9 23 -14 27 -10 4 5
6 3 4 -3 -3 -10 188 -200 235 -233 18 -13 30 -3 163 130 79 79 144 149 144
155 0 8 -266 284 -274 284 0 0 -72 -69 -159 -153z"/>
<path d="M2712 7740 c0 -14 2 -19 5 -12 2 6 2 18 0 25 -3 6 -5 1 -5 -13z"/>
<path d="M2691 7694 c0 -11 3 -14 6 -6 3 7 2 16 -1 19 -3 4 -6 -2 -5 -13z"/>
<path d="M2616 7649 c-3 -17 -6 -53 -6 -80 0 -26 -4 -51 -10 -54 -5 -3 -10
-14 -10 -23 1 -12 5 -9 15 9 8 14 17 60 21 102 7 78 2 103 -10 46z"/>
<path d="M2711 7664 c0 -11 3 -14 6 -6 3 7 2 16 -1 19 -3 4 -6 -2 -5 -13z"/>
<path d="M10151 7664 c0 -11 3 -14 6 -6 3 7 2 16 -1 19 -3 4 -6 -2 -5 -13z"/>
<path d="M11810 7444 l-144 -146 59 -56 c155 -147 269 -252 275 -252 4 0 17
11 29 24 l22 23 -15 119 c-22 165 -68 434 -76 434 -3 0 -71 -66 -150 -146z"/>
<path d="M2141 7496 c-48 -49 -71 -78 -66 -86 5 -9 4 -11 -4 -6 -12 8 -111
-59 -111 -75 0 -6 -4 -7 -10 -4 -5 3 -10 0 -10 -7 1 -21 68 -88 84 -82 8 3 17
1 21 -5 3 -7 0 -8 -9 -5 -29 11 -16 -10 39 -66 42 -41 57 -52 64 -42 7 11 9
11 14 -2 4 -9 3 -15 -1 -15 -25 4 -20 -6 18 -41 30 -28 47 -37 55 -30 8 7 12
5 12 -5 0 -8 -4 -12 -9 -9 -19 12 -6 -13 21 -39 33 -31 43 -34 34 -10 -4 11
-3 14 6 9 7 -5 10 -15 7 -23 -8 -19 12 -45 28 -36 6 3 8 2 3 -2 -11 -12 23
-45 40 -38 9 4 13 0 11 -9 -3 -15 68 -105 77 -96 2 2 -8 18 -24 35 -27 30 -28
34 -15 59 10 18 14 63 14 140 l0 114 25 0 c23 0 25 4 25 40 0 29 -4 40 -15 40
-13 0 -20 25 -16 52 0 4 -10 15 -24 24 -14 9 -25 21 -25 28 0 6 4 4 10 -4 5
-8 12 -11 15 -8 4 4 18 2 32 -3 13 -5 31 -6 38 -2 10 6 -2 23 -45 65 -33 32
-62 53 -66 47 -4 -6 -13 -4 -25 7 -14 13 -16 20 -7 25 17 10 -8 40 -28 32 -10
-4 -12 0 -8 11 3 9 2 16 -4 16 -6 0 -12 -5 -14 -12 -3 -9 -6 -9 -12 0 -4 7 -2
12 3 12 6 0 11 5 11 11 0 6 -9 8 -22 4 -18 -5 -20 -4 -8 4 13 9 12 13 -4 28
-14 13 -17 13 -10 3 5 -9 0 -6 -11 7 -12 13 -23 23 -25 23 -3 0 -38 -34 -79
-74z m4 -26 c-10 -11 -21 -18 -23 -15 -3 3 3 12 14 20 27 20 30 18 9 -5z m120
10 c3 -5 1 -10 -4 -10 -6 0 -11 5 -11 10 0 6 2 10 4 10 3 0 8 -4 11 -10z m100
-100 c10 -11 16 -20 13 -20 -3 0 -13 9 -23 20 -10 11 -16 20 -13 20 3 0 13 -9
23 -20z m58 -29 c-4 -3 -11 -10 -16 -16 -5 -5 -5 0 -2 13 4 13 2 22 -4 22 -6
0 -11 5 -11 12 0 6 9 3 20 -7 11 -10 17 -21 13 -24z m-78 11 c-3 -3 -11 0 -18
7 -9 10 -8 11 6 5 10 -3 15 -9 12 -12z m140 -70 c-3 -4 -9 -2 -13 4 -4 6 -15
13 -24 17 -10 3 -18 11 -18 17 0 6 14 2 31 -10 16 -12 27 -25 24 -28z m-490
18 c3 -6 -1 -7 -9 -4 -18 7 -21 14 -7 14 6 0 13 -4 16 -10z m402 -92 c-2 -13
-4 -3 -4 22 0 25 2 35 4 23 2 -13 2 -33 0 -45z m-317 -43 c0 -5 -5 -3 -10 5
-5 8 -10 20 -10 25 0 6 5 3 10 -5 5 -8 10 -19 10 -25z m220 -155 c0 -5 -2 -10
-4 -10 -3 0 -8 5 -11 10 -3 6 -1 10 4 10 6 0 11 -4 11 -10z m-35 -20 c3 -5 1
-10 -4 -10 -6 0 -11 5 -11 10 0 6 2 10 4 10 3 0 8 -4 11 -10z m58 -61 c-9 -9
-12 -7 -10 9 1 14 5 18 11 12 7 -7 6 -14 -1 -21z m37 11 c0 -5 -5 -10 -11 -10
-5 0 -7 5 -4 10 3 6 8 10 11 10 2 0 4 -4 4 -10z m31 -23 c-1 -12 -15 -9 -19 4
-3 6 1 10 8 8 6 -3 11 -8 11 -12z m-27 -22 c3 -8 1 -15 -3 -15 -5 0 -11 7 -15
15 -3 8 -1 15 3 15 5 0 11 -7 15 -15z"/>
<path d="M11170 7457 c-83 -81 -115 -119 -116 -137 0 -19 25 -51 104 -132 58
-59 110 -104 116 -101 6 3 8 3 4 -2 -8 -9 6 -25 262 -293 118 -124 162 -177
185 -225 l30 -62 3 -696 2 -696 77 -7 c42 -4 80 -3 84 1 11 11 63 256 88 415
26 162 48 360 61 533 11 153 12 592 2 720 l-7 81 -170 159 c-93 87 -237 222
-320 300 -205 194 -274 255 -282 255 -5 0 -60 -51 -123 -113z"/>
<path d="M2340 7545 c0 -3 12 -18 26 -33 l26 -27 -18 33 c-16 28 -34 42 -34
27z"/>
<path d="M2706 7525 c-9 -26 -7 -32 5 -12 6 10 9 21 6 23 -2 3 -7 -2 -11 -11z"/>
<path d="M846 7493 c-16 -76 -48 -297 -67 -458 -39 -341 -37 -905 5 -1253 l13
-103 68 -69 c38 -38 73 -66 79 -63 6 3 8 3 4 -2 -4 -4 5 -19 20 -33 15 -14 90
-86 168 -161 77 -75 189 -182 248 -239 58 -57 111 -100 116 -97 5 3 8 0 5 -7
-3 -7 3 -18 13 -24 15 -10 38 9 167 132 l150 143 -80 77 c-44 42 -186 179
-315 304 -129 125 -256 245 -282 266 -29 24 -51 53 -58 74 -11 34 -39 1010
-40 1373 l0 167 -104 0 -104 0 -6 -27z"/>
<path d="M2691 7458 c-1 -12 -6 -16 -18 -11 -15 5 -14 3 2 -10 17 -13 20 -14
23 -1 2 8 1 20 -1 27 -3 7 -6 5 -6 -5z"/>
<path d="M2360 7420 c0 -5 5 -10 10 -10 6 0 10 5 10 10 0 6 -4 10 -10 10 -5 0
-10 -4 -10 -10z"/>
<path d="M2624 7379 c-3 -6 -2 -15 3 -20 5 -5 9 -1 9 11 0 23 -2 24 -12 9z"/>
<path d="M2666 7375 c-3 -8 -1 -15 4 -15 6 0 10 7 10 15 0 8 -2 15 -4 15 -2 0
-6 -7 -10 -15z"/>
<path d="M2608 7343 c6 -2 12 -9 12 -15 0 -6 -7 -8 -14 -5 -11 4 -13 1 -9 -10
5 -12 3 -14 -8 -8 -8 5 -3 -4 10 -18 14 -15 27 -27 29 -27 3 0 -3 9 -13 20
-22 25 -9 26 19 3 21 -18 21 -18 4 3 -20 23 -24 39 -7 28 8 -4 8 0 0 15 -7 11
-17 21 -24 20 -9 0 -9 -2 1 -6z"/>
<path d="M11035 7320 c3 -5 8 -10 11 -10 2 0 4 5 4 10 0 6 -5 10 -11 10 -5 0
-7 -4 -4 -10z"/>
<path d="M1845 7243 c-64 -81 -67 -91 -66 -271 0 -140 4 -177 22 -239 12 -40
27 -73 34 -73 17 0 37 25 27 35 -4 5 -1 5 6 1 6 -4 12 -2 12 4 0 6 5 8 10 5 6
-3 10 -2 10 2 0 5 59 69 131 142 l131 133 -20 21 c-11 12 -25 32 -31 45 -11
20 -15 21 -29 10 -13 -11 -15 -11 -10 2 4 11 -20 43 -69 95 -41 44 -72 72 -69
62 4 -11 2 -16 -5 -12 -6 4 -8 13 -5 20 4 11 -32 55 -45 55 -2 0 -17 -17 -34
-37z m215 -167 c0 -2 -7 -9 -15 -16 -13 -11 -14 -10 -9 4 5 14 24 23 24 12z
m37 -128 c2 -17 0 -19 -7 -8 -5 8 -6 18 -4 22 8 12 10 10 11 -14z"/>
<path d="M2497 7273 c-13 -13 -7 -25 7 -14 10 8 16 9 21 1 3 -5 1 -10 -6 -10
-7 0 -9 -8 -6 -21 5 -20 5 -20 -14 -3 -16 15 -19 15 -19 2 0 -20 21 -28 49
-21 17 4 19 8 10 19 -17 21 -3 29 16 10 9 -9 13 -21 10 -26 -4 -6 1 -22 10
-36 13 -20 19 -23 31 -13 8 6 14 16 14 21 0 6 -7 5 -15 -2 -9 -7 -19 -10 -22
-6 -4 4 -1 11 7 16 12 8 8 17 -25 49 -39 40 -55 47 -68 34z m93 -67 c0 -3 -4
-8 -10 -11 -5 -3 -10 -1 -10 4 0 6 5 11 10 11 6 0 10 -2 10 -4z"/>
<path d="M10276 7264 c-9 -25 -7 -64 4 -64 6 0 10 18 10 40 0 43 -4 50 -14 24z"/>
<path d="M10975 7270 c-3 -5 -3 -15 1 -22 4 -7 3 -8 -4 -4 -15 9 -74 -83 -68
-107 2 -9 0 -15 -5 -11 -12 7 -11 -358 0 -409 5 -21 12 -41 15 -44 5 -6 130
117 280 275 59 62 59 62 40 84 -49 56 -239 248 -246 248 -4 0 -10 -4 -13 -10z"/>
<path d="M2660 7230 c0 -5 5 -10 11 -10 5 0 7 5 4 10 -3 6 -8 10 -11 10 -2 0
-4 -4 -4 -10z"/>
<path d="M2695 7230 c3 -5 8 -10 11 -10 2 0 4 5 4 10 0 6 -5 10 -11 10 -5 0
-7 -4 -4 -10z"/>
<path d="M2717 7169 c7 -7 15 -10 18 -7 3 3 -2 9 -12 12 -14 6 -15 5 -6 -5z"/>
<path d="M2611 7143 c-22 -23 -22 -25 -3 -19 11 4 23 2 27 -5 6 -8 10 -7 17 2
7 11 11 11 15 2 2 -7 9 -13 15 -13 6 0 5 6 -2 15 -7 9 -21 13 -31 10 -11 -4
-19 -2 -19 3 0 6 5 12 12 14 7 3 8 7 3 10 -6 3 -21 -6 -34 -19z"/>
<path d="M2560 7141 c0 -25 6 -27 13 -6 4 8 2 17 -3 20 -6 4 -10 -3 -10 -14z"/>
<path d="M2682 7080 c-7 -11 -8 -20 -3 -20 9 0 24 30 18 36 -1 2 -8 -6 -15
-16z"/>
<path d="M2730 7056 c0 -2 7 -7 16 -10 8 -3 12 -2 9 4 -6 10 -25 14 -25 6z"/>
<path d="M11249 6931 c-24 -24 -35 -38 -25 -30 11 8 -58 -62 -152 -155 -95
-93 -171 -171 -169 -172 2 -2 -41 -49 -95 -104 -56 -58 -96 -106 -92 -112 4
-6 3 -8 -3 -5 -6 4 -71 -57 -144 -134 -74 -78 -152 -159 -174 -180 -22 -21
-35 -39 -29 -39 6 0 17 7 24 15 16 19 37 19 56 0 13 -13 12 -14 -13 -9 -24 5
-35 -1 -61 -28 -27 -27 -35 -30 -42 -18 -5 8 -10 10 -10 4 0 -6 10 -20 23 -32
24 -23 43 -30 32 -12 -3 6 -2 10 4 10 15 0 26 -23 13 -28 -7 -2 -10 -8 -7 -12
3 -5 12 -7 20 -3 11 4 13 1 9 -11 -3 -9 -1 -16 5 -16 6 0 11 5 11 11 0 8 5 8
15 -1 20 -17 19 -34 -2 -26 -13 5 -11 0 7 -21 52 -58 70 -72 88 -67 11 4 13 3
5 -3 -16 -11 41 -78 58 -67 7 4 9 3 6 -2 -3 -6 -2 -16 3 -24 8 -12 12 -12 22
-2 7 7 13 18 13 25 0 7 9 11 19 9 13 -3 17 1 13 12 -3 8 -1 18 5 22 7 5 8 2 3
-7 -8 -12 -6 -12 8 0 9 7 14 18 10 24 -3 5 -2 7 4 4 13 -8 86 67 76 78 -5 4
-3 5 3 2 14 -8 87 66 77 78 -5 4 -3 5 3 2 6 -3 55 39 109 94 80 81 96 102 85
111 -12 8 -11 9 4 4 22 -8 79 40 69 58 -3 6 -2 8 2 3 5 -4 19 3 32 15 24 22
32 45 11 32 -7 -4 -8 -3 -4 5 4 6 11 9 16 6 5 -3 99 86 209 197 109 112 202
205 205 208 2 3 -66 79 -153 170 l-158 164 -44 -43z m-409 -476 c-7 -8 -16
-15 -21 -15 -5 0 -1 8 9 18 20 22 31 19 12 -3z m-64 -43 c-17 -16 -18 -16 -5
5 7 12 15 20 18 17 3 -2 -3 -12 -13 -22z m-26 -42 c0 -5 -5 -10 -11 -10 -5 0
-7 5 -4 10 3 6 8 10 11 10 2 0 4 -4 4 -10z m-62 -54 c-7 -8 -15 -12 -17 -11
-5 6 10 25 20 25 5 0 4 -6 -3 -14z m-53 -55 c-3 -6 -11 -11 -16 -11 -5 0 -4 6
3 14 14 16 24 13 13 -3z m30 -11 c3 -5 1 -10 -4 -10 -6 0 -11 5 -11 10 0 6 2
10 4 10 3 0 8 -4 11 -10z m-75 -44 c0 -3 -4 -8 -10 -11 -5 -3 -10 -1 -10 4 0
6 5 11 10 11 6 0 10 -2 10 -4z m40 -10 c0 -3 -4 -8 -10 -11 -5 -3 -10 -1 -10
4 0 6 5 11 10 11 6 0 10 -2 10 -4z m-70 -36 c0 -5 -2 -10 -4 -10 -3 0 -8 5
-11 10 -3 6 -1 10 4 10 6 0 11 -4 11 -10z m-30 -7 c-1 -14 -30 -47 -36 -41 -3
3 3 16 13 27 19 23 23 25 23 14z m-42 -111 l-1 -47 -7 50 c-6 47 -7 49 -17 25
-11 -24 -12 -24 -12 -3 -1 21 16 35 32 26 4 -2 6 -25 5 -51z m522 15 c0 -2
-10 -12 -22 -23 l-23 -19 19 23 c18 21 26 27 26 19z m-580 -101 c0 -26 5 -46
13 -49 6 -2 8 -8 4 -13 -5 -5 -22 6 -39 25 -23 26 -32 31 -39 20 -4 -7 -11
-11 -14 -7 -8 8 46 68 63 68 8 0 12 -15 12 -44z m510 30 c0 -2 -8 -10 -17 -17
-16 -13 -17 -12 -4 4 13 16 21 21 21 13z m-442 -149 c10 -3 7 -5 -9 -6 -23 -1
-25 2 -20 32 5 31 6 31 9 5 2 -15 11 -29 20 -31z m162 -83 c0 -8 -19 -13 -24
-6 -3 5 1 9 9 9 8 0 15 -2 15 -3z m-75 -32 c-3 -3 -11 0 -18 7 -9 10 -8 11 6
5 10 -3 15 -9 12 -12z"/>
<path d="M12046 6961 c-4 -7 -5 -15 -2 -18 9 -9 19 4 14 18 -4 11 -6 11 -12 0z"/>
<path d="M2470 6920 c0 -31 -3 -38 -15 -34 -8 4 -15 2 -15 -4 0 -5 6 -12 14
-15 8 -3 16 -16 18 -29 3 -13 5 10 6 50 1 39 -1 72 -3 72 -3 0 -5 -18 -5 -40z"/>
<path d="M2170 6907 c-26 -32 -28 -37 -9 -22 l24 20 -18 -22 c-11 -12 -25 -19
-34 -16 -10 4 -14 0 -11 -13 2 -14 -2 -18 -15 -16 -13 2 -17 -2 -15 -15 2 -10
-3 -18 -12 -18 -8 -1 -14 -6 -13 -13 2 -6 -4 -9 -13 -5 -11 4 -15 0 -12 -13 2
-14 -2 -18 -16 -16 -13 3 -17 -1 -13 -11 7 -18 -23 -46 -41 -40 -9 3 -12 -1
-10 -13 2 -11 -3 -19 -12 -19 -8 -1 -14 -7 -12 -14 1 -7 -2 -10 -7 -7 -10 7
-33 -18 -26 -27 3 -4 2 -5 -2 -2 -10 8 -53 -37 -46 -48 3 -6 1 -7 -4 -4 -13 8
-36 -17 -25 -28 4 -5 1 -5 -6 -1 -14 8 -50 -31 -44 -47 1 -5 -1 -6 -6 -3 -12
7 -84 -68 -75 -79 5 -4 3 -5 -3 -2 -13 8 -67 -46 -57 -57 5 -4 1 -6 -7 -4 -8
2 -14 -3 -12 -10 1 -8 -2 -11 -7 -8 -12 8 -33 -18 -23 -29 4 -5 2 -5 -4 -2 -6
3 -93 -77 -194 -178 -206 -206 -195 -181 -110 -261 25 -23 88 -83 140 -133 95
-90 118 -107 105 -73 -4 12 -3 14 5 6 8 -8 114 92 403 384 216 217 409 411
430 430 20 19 37 40 37 46 0 6 -4 4 -10 -4 -5 -8 -12 -11 -16 -7 -4 4 0 15 9
25 13 12 20 14 25 6 5 -8 20 1 44 26 22 23 32 41 25 43 -9 3 -9 8 1 18 10 11
12 11 12 -1 0 -7 3 -10 6 -7 11 11 -16 36 -32 30 -9 -3 -12 0 -9 9 3 8 -1 21
-10 28 -18 15 -47 -3 -43 -28 2 -9 -5 -18 -14 -20 -15 -3 -18 4 -18 37 0 23 5
41 10 41 21 0 25 -2 22 -12 -1 -5 2 -7 8 -3 22 13 -9 35 -36 25 -29 -12 -54
-3 -54 18 0 13 3 12 14 -4 15 -19 15 -19 33 0 16 17 16 18 1 13 -9 -3 -22 1
-30 10 -11 15 -11 16 5 10 16 -6 16 -3 -3 24 -12 16 -25 27 -29 23 -3 -4 0 -9
7 -11 6 -3 12 -9 12 -14 0 -5 -9 -4 -20 3 -12 8 -18 19 -15 30 7 21 -10 32
-33 19 -14 -7 -18 -6 -18 9 0 11 6 16 16 13 8 -3 3 6 -12 20 -15 14 -25 27
-22 30 2 2 -2 9 -9 15 -11 9 -21 3 -47 -31z m44 12 c-3 -5 -10 -7 -15 -3 -5 3
-7 10 -3 15 3 5 10 7 15 3 5 -3 7 -10 3 -15z m62 -97 c0 -10 -8 -18 -18 -18
-22 0 -22 1 -2 20 19 20 20 20 20 -2z m41 -224 c-2 -24 -4 -5 -4 42 0 47 2 66
4 43 2 -24 2 -62 0 -85z m131 64 c-2 -11 3 -16 16 -15 13 1 15 -2 7 -10 -7 -7
-15 -6 -26 3 -8 7 -18 10 -21 8 -3 -3 6 -15 20 -26 l26 -20 -25 -18 c-13 -10
-22 -21 -19 -26 9 -14 -7 -9 -22 7 -15 14 -11 20 10 16 5 -1 4 5 -3 13 -8 9
-10 24 -5 38 4 13 7 30 6 38 -1 10 1 11 4 3 8 -19 24 -15 17 4 -4 11 -3 14 6
9 6 -4 10 -15 9 -24z m-81 -113 c-14 -8 -22 -8 -30 0 -8 8 -3 11 19 11 25 -1
27 -2 11 -11z m-27 -29 c0 -5 -10 -10 -22 -10 -19 0 -20 2 -8 10 19 13 30 13
30 0z m30 -16 c0 -9 -41 -44 -51 -44 -15 0 -21 22 -9 33 10 9 12 8 7 -5 -9
-24 5 -23 23 2 14 19 30 27 30 14z m-101 -50 c-15 -18 -22 -13 -13 10 3 9 10
13 16 10 5 -3 4 -12 -3 -20z m41 -14 c0 -5 -4 -10 -10 -10 -5 0 -10 5 -10 10
0 6 5 10 10 10 6 0 10 -4 10 -10z m-50 -38 c0 -11 -62 -74 -67 -68 -3 3 10 20
29 40 37 38 38 39 38 28z m-80 -42 c0 -5 -5 -10 -11 -10 -5 0 -7 5 -4 10 3 6
8 10 11 10 2 0 4 -4 4 -10z m-82 -54 c-7 -8 -15 -12 -17 -11 -5 6 10 25 20 25
5 0 4 -6 -3 -14z m56 -21 c-7 -16 -24 -21 -24 -6 0 8 7 13 27 20 1 1 0 -6 -3
-14z m-34 -25 c0 -5 -4 -10 -10 -10 -5 0 -10 5 -10 10 0 6 5 10 10 10 6 0 10
-4 10 -10z m-50 -54 c0 -3 -4 -8 -10 -11 -5 -3 -10 -1 -10 4 0 6 5 11 10 11 6
0 10 -2 10 -4z m-55 -53 l-28 -28 23 33 c12 18 24 31 27 28 3 -2 -7 -17 -22
-33z m-55 -52 c0 -5 -7 -12 -16 -15 -14 -5 -15 -4 -4 9 14 17 20 19 20 6z
m-189 -194 c-10 -9 -11 -8 -5 6 3 10 9 15 12 12 3 -3 0 -11 -7 -18z"/>
<path d="M2410 6615 c0 -8 7 -15 16 -15 14 0 14 3 4 15 -7 8 -14 15 -16 15 -2
0 -4 -7 -4 -15z"/>
<path d="M2886 6907 c3 -10 9 -15 12 -12 3 3 0 11 -7 18 -10 9 -11 8 -5 -6z"/>
<path d="M2420 6852 c0 -5 7 -13 16 -16 10 -4 14 -1 12 6 -5 15 -28 23 -28 10z"/>
<path d="M2462 6791 c7 -11 16 -17 20 -15 5 3 2 12 -6 20 -21 20 -28 17 -14
-5z"/>
<path d="M2510 6780 c0 -5 5 -10 11 -10 5 0 7 5 4 10 -3 6 -8 10 -11 10 -2 0
-4 -4 -4 -10z"/>
<path d="M10331 6720 c-1 -36 -4 -76 -6 -90 -5 -22 -4 -22 4 -5 8 16 10 11 10
-24 1 -24 3 -42 6 -39 7 7 6 41 -3 138 l-9 85 -2 -65z"/>
<path d="M2481 6744 c13 -16 29 -19 29 -5 0 5 -9 11 -21 14 -16 4 -18 3 -8 -9z"/>
<path d="M2530 6750 c0 -5 5 -10 11 -10 5 0 7 5 4 10 -3 6 -8 10 -11 10 -2 0
-4 -4 -4 -10z"/>
<path d="M1989 6723 c-13 -16 -12 -17 4 -4 9 7 17 15 17 17 0 8 -8 3 -21 -13z"/>
<path d="M2528 6703 c-9 -11 -8 -13 3 -11 8 2 13 -3 11 -12 -2 -8 0 -11 5 -7
4 5 8 12 8 15 0 4 3 12 7 18 10 16 -20 13 -34 -3z"/>
<path d="M10368 6635 c2 -19 6 -35 8 -35 2 0 4 16 4 35 0 19 -4 35 -8 35 -4 0
-6 -16 -4 -35z"/>
<path d="M2611 6593 c7 -10 14 -19 15 -21 1 -2 4 4 8 13 3 9 2 13 -4 10 -6 -3
-10 -1 -10 4 0 6 -5 11 -11 11 -8 0 -7 -6 2 -17z"/>
<path d="M11572 6537 c-40 -40 -70 -76 -67 -80 3 -4 2 -5 -2 -2 -10 8 -83 -67
-76 -78 3 -6 1 -7 -5 -3 -6 3 -26 -12 -45 -34 l-35 -41 77 -102 c103 -138 127
-194 142 -337 18 -177 7 -450 -24 -571 -35 -133 -83 -232 -147 -302 l-53 -58
159 -160 159 -159 55 53 c30 29 71 65 91 79 33 24 38 36 73 163 21 75 36 138
34 140 -7 7 -64 13 -130 14 l-68 1 0 713 c0 683 -1 714 -20 755 -41 90 -38 90
-118 9z"/>
<path d="M2529 6563 c-13 -15 -12 -15 9 -4 23 12 28 21 13 21 -5 0 -15 -7 -22
-17z"/>
<path d="M5982 6547 c-90 -95 -117 -416 -51 -614 25 -78 69 -128 101 -118 33
11 47 24 69 67 70 137 72 475 3 611 -39 77 -83 96 -122 54z"/>
<path d="M6907 6538 c-36 -48 -43 -65 -62 -148 -20 -93 -23 -278 -5 -377 16
-87 56 -173 89 -189 71 -36 128 63 152 260 35 288 -78 582 -174 454z"/>
<path d="M10313 6520 c0 -25 2 -35 4 -22 2 12 2 32 0 45 -2 12 -4 2 -4 -23z"/>
<path d="M2505 6530 c3 -5 8 -10 11 -10 2 0 4 5 4 10 0 6 -5 10 -11 10 -5 0
-7 -4 -4 -10z"/>
<path d="M2570 6529 c0 -5 -5 -7 -10 -4 -6 4 -5 -5 2 -19 6 -14 16 -26 22 -26
6 0 5 5 -2 12 -14 14 -16 32 -2 23 6 -3 7 1 4 9 -7 18 -14 21 -14 5z"/>
<path d="M2459 6493 l-24 -28 26 23 c23 20 27 21 39 7 7 -8 17 -15 23 -15 5 0
0 9 -13 20 -13 11 -24 20 -25 20 -1 0 -12 -12 -26 -27z"/>
<path d="M2682 6490 c0 -19 2 -27 5 -17 2 9 2 25 0 35 -3 9 -5 1 -5 -18z"/>
<path d="M2651 6494 c0 -11 3 -14 6 -6 3 7 2 16 -1 19 -3 4 -6 -2 -5 -13z"/>
<path d="M10410 6491 c0 -11 -4 -23 -10 -26 -5 -3 -10 -12 -10 -18 0 -7 8 -3
16 8 14 19 16 19 28 3 23 -31 26 -19 5 17 -24 40 -29 43 -29 16z"/>
<path d="M2700 6491 c0 -6 4 -13 10 -16 6 -3 7 1 4 9 -7 18 -14 21 -14 7z"/>
<path d="M2465 6470 c-10 -12 -25 -18 -33 -15 -8 3 -12 0 -10 -7 8 -23 26 -19
48 12 24 34 22 40 -5 10z"/>
<path d="M2561 6454 c0 -11 3 -14 6 -6 3 7 2 16 -1 19 -3 4 -6 -2 -5 -13z"/>
<path d="M2582 6430 c0 -19 2 -27 5 -17 2 9 2 25 0 35 -3 9 -5 1 -5 -18z"/>
<path d="M10413 6443 c-16 -31 -15 -83 1 -83 9 0 12 -7 9 -20 -3 -11 -10 -17
-15 -14 -12 8 -6 -85 6 -105 6 -10 5 -12 -2 -7 -8 5 -11 -2 -8 -23 2 -22 -1
-31 -16 -35 -12 -3 -17 -9 -13 -16 6 -9 9 -9 15 0 4 6 11 11 15 10 17 -5 139
126 126 135 -6 3 -11 14 -11 23 1 16 1 16 11 0 16 -28 30 -21 17 7 -6 14 -17
24 -24 21 -7 -3 -20 5 -31 16 -10 11 -26 23 -36 27 -17 6 -17 9 -4 20 13 10
18 8 32 -18 8 -17 20 -31 25 -31 5 0 -3 18 -17 40 -22 33 -28 37 -37 24 -12
-15 -46 -10 -46 7 0 14 18 11 23 -3 2 -7 8 -10 12 -6 4 4 0 16 -8 28 -14 21
-16 21 -24 3z m52 -153 c2 -21 -10 -27 -19 -11 -7 11 4 44 12 36 3 -3 6 -14 7
-25z m34 -11 c-10 -6 -11 -9 -1 -9 16 0 16 -17 -1 -23 -9 -3 -13 2 -11 16 1
12 3 26 3 30 1 5 6 5 12 1 8 -4 7 -9 -2 -15z m-54 -50 c4 -6 14 -8 22 -5 8 3
11 1 8 -4 -8 -14 -18 -13 -41 5 -10 8 -14 15 -7 15 6 0 15 -5 18 -11z m-10
-46 c-9 -8 -18 -13 -21 -10 -8 8 19 36 29 30 4 -2 0 -11 -8 -20z"/>
<path d="M2381 6416 c-19 -20 -19 -24 -5 -44 8 -12 12 -27 8 -34 -5 -7 -3 -8
5 -3 7 4 11 15 8 25 -7 28 11 51 36 45 25 -6 56 10 43 22 -5 4 -11 2 -13 -4
-5 -15 -33 -18 -33 -4 0 20 -29 18 -49 -3z m19 -11 c-7 -8 -16 -15 -21 -15 -5
0 -1 9 8 20 9 11 19 17 21 15 3 -3 -1 -11 -8 -20z"/>
<path d="M2601 6414 c0 -11 3 -14 6 -6 3 7 2 16 -1 19 -3 4 -6 -2 -5 -13z"/>
<path d="M2334 6367 c-6 -7 -8 -19 -6 -26 3 -10 0 -12 -11 -8 -9 3 -19 2 -21
-2 -10 -15 6 -20 27 -9 16 8 23 7 34 -8 15 -21 17 -34 4 -34 -5 0 -12 8 -14
18 -4 15 -5 14 -6 -2 -1 -20 -1 -20 -17 0 -15 18 -15 18 -9 -4 6 -20 4 -22
-19 -18 -14 3 -31 8 -38 12 -9 5 -8 2 1 -10 8 -9 21 -14 29 -11 9 3 12 0 9 -8
-3 -8 10 -29 29 -46 19 -18 34 -37 34 -43 0 -6 15 -29 33 -51 17 -23 31 -48
29 -57 -2 -9 0 -11 5 -5 5 6 12 13 17 17 4 4 -4 18 -19 32 -26 25 -23 31 13
27 6 -1 12 3 12 9 0 6 -10 10 -22 8 -23 -3 -26 2 -31 70 -1 12 -7 20 -13 18
-7 -3 -10 3 -7 15 3 10 9 19 14 19 5 0 9 11 9 25 0 14 -6 25 -13 25 -8 0 -22
10 -33 22 -16 18 -17 21 -2 15 12 -4 15 -2 11 9 -6 17 -14 17 -29 1z m-10
-128 c-3 -5 -10 -7 -15 -3 -5 3 -7 10 -3 15 3 5 10 7 15 3 5 -3 7 -10 3 -15z
m71 -67 c-7 -7 -45 29 -45 41 0 6 11 0 25 -13 14 -13 23 -26 20 -28z m3 -37
c-3 -3 -9 2 -12 12 -6 14 -5 15 5 6 7 -7 10 -15 7 -18z"/>
<path d="M2430 6280 c0 -22 5 -40 10 -40 6 0 10 18 10 40 0 22 -4 40 -10 40
-5 0 -10 -18 -10 -40z"/>
<path d="M10313 6280 c0 -25 2 -35 4 -22 2 12 2 32 0 45 -2 12 -4 2 -4 -23z"/>
<path d="M2270 6305 c0 -2 9 -9 20 -15 16 -9 18 -8 14 5 -5 13 -34 22 -34 10z"/>
<path d="M11147 6100 c-103 -106 -154 -165 -151 -175 4 -8 11 -12 17 -8 6 3 7
1 3 -5 -4 -6 1 -26 10 -43 28 -55 54 -141 64 -212 18 -124 -25 -293 -99 -385
-17 -22 -27 -42 -24 -46 4 -4 -1 -4 -12 0 -11 4 -17 4 -13 0 4 -4 -9 -22 -28
-38 -21 -19 -33 -37 -29 -45 3 -9 0 -13 -7 -11 -13 5 -84 -70 -80 -84 1 -5 -1
-7 -6 -4 -13 8 -96 -80 -88 -93 5 -7 1 -8 -9 -5 -12 5 -16 2 -13 -12 2 -14 -2
-18 -15 -16 -13 2 -17 -2 -15 -15 2 -10 -3 -18 -12 -18 -8 -1 -14 -6 -13 -13
2 -6 -4 -9 -12 -6 -8 4 -15 2 -15 -4 0 -6 5 -12 12 -14 7 -3 5 -7 -6 -11 -10
-4 -15 -3 -11 3 9 14 -9 12 -23 -2 -15 -15 -16 -31 0 -22 7 4 8 3 4 -4 -4 -6
-13 -9 -20 -6 -8 3 -25 -9 -38 -26 l-25 -32 3 51 c1 28 -1 49 -5 47 -4 -3 -6
5 -5 17 1 12 3 26 3 30 1 5 8 1 17 -7 17 -17 40 -10 64 18 14 18 2 39 -33 58
-16 8 -23 7 -34 -8 -7 -10 -13 -13 -13 -7 0 7 5 15 10 18 6 3 10 9 10 13 0 15
-101 83 -112 76 -6 -4 -8 -3 -5 3 4 6 -4 19 -16 30 -40 36 -66 43 -31 9 8 -9
11 -16 6 -16 -6 0 -20 15 -31 34 -12 19 -32 41 -45 50 -22 14 -25 14 -30 -1
-4 -9 -4 -18 -1 -21 3 -3 5 0 5 6 0 7 4 12 9 12 11 0 9 -39 -3 -58 -4 -7 -12
-10 -17 -6 -6 3 -9 -9 -7 -30 1 -27 7 -36 20 -36 10 0 18 -7 18 -15 0 -18 -27
-20 -33 -2 -2 6 -6 -5 -9 -26 -3 -27 -1 -36 8 -33 18 7 50 -19 36 -28 -7 -4
-12 -3 -12 3 0 5 -18 7 -40 5 -22 -3 -48 0 -58 5 -9 6 -11 11 -4 11 8 0 12 18
10 63 l-1 62 -6 -60 c-6 -59 -6 -60 -36 -57 l-30 2 25 -15 25 -16 -25 7 c-14
4 -27 9 -30 13 -8 10 -50 9 -50 0 0 -5 5 -9 11 -9 5 0 7 -4 4 -10 -3 -5 -1
-10 5 -10 7 0 10 7 7 15 -5 12 -2 12 18 3 13 -6 22 -15 18 -21 -3 -5 -9 -4
-14 4 -6 11 -9 10 -15 -4 -3 -9 -11 -14 -18 -10 -6 4 -17 8 -25 8 -17 0 -28
25 -11 25 6 0 8 -4 5 -10 -3 -5 -1 -10 4 -10 13 0 14 10 2 29 -5 7 -11 9 -14
4 -4 -5 -23 -11 -44 -12 -70 -3 -91 -8 -108 -25 -18 -17 -39 -12 -32 8 5 12
-61 63 -78 61 -26 -4 -67 -28 -136 -79 -121 -92 -293 -168 -442 -197 -34 -7
-63 -13 -65 -14 -1 -1 37 -42 86 -91 102 -102 157 -174 213 -278 l40 -74 -133
-6 c-73 -3 -204 -9 -290 -12 l-157 -6 -6 -32 c-91 -443 -241 -984 -392 -1416
-271 -773 -617 -1428 -980 -1857 -31 -35 -53 -66 -51 -68 12 -12 431 89 649
156 167 51 473 169 689 265 448 200 860 463 1283 817 l117 98 0 124 c0 122 0
124 27 144 57 46 148 58 253 35 29 -6 39 2 151 127 99 108 182 209 178 213
-23 19 -111 61 -167 81 l-72 25 -395 0 -396 0 6 -92 7 -93 -273 -169 c-336
-208 -474 -294 -629 -391 -66 -42 -124 -73 -129 -70 -5 3 -15 28 -22 55 l-13
50 -64 0 c-54 0 -63 2 -58 16 3 9 6 20 6 25 0 5 20 9 45 9 29 0 45 4 45 13 0
6 -7 57 -15 112 l-16 100 149 585 c116 457 151 584 163 581 8 -2 30 -8 50 -14
52 -15 85 -3 98 35 6 17 9 33 6 36 -2 3 3 11 12 18 14 10 23 9 47 -3 17 -9 42
-13 62 -10 18 3 49 1 69 -4 29 -8 42 -7 62 6 14 10 27 25 30 34 3 13 12 16 34
13 22 -3 31 0 36 16 8 20 10 19 52 -18 23 -21 40 -44 36 -49 -3 -6 -1 -11 4
-11 6 0 10 -3 10 -7 -1 -5 -1 -10 1 -13 1 -3 3 -16 6 -30 2 -14 17 -63 33
-110 16 -47 36 -107 45 -135 15 -50 15 -49 15 115 l-1 165 31 3 30 3 4 -333
c3 -183 6 -338 7 -344 5 -16 248 -24 756 -24 l441 0 70 98 c38 53 107 153 152
222 l83 125 -279 3 c-153 1 -394 -1 -535 -5 l-257 -8 -1 204 c0 112 -3 207 -5
211 -3 4 10 19 29 33 l33 26 -1 -206 c-1 -131 2 -207 9 -209 5 -2 242 0 525 4
l515 7 48 79 c26 44 47 83 47 88 0 4 -17 6 -37 3 -21 -3 -200 -12 -398 -20
-198 -8 -401 -17 -451 -20 l-91 -6 -7 103 c-4 57 -9 115 -12 129 -5 24 -2 27
28 31 l33 3 -4 -48 c-1 -27 0 -73 4 -103 l6 -54 96 0 c89 0 303 9 696 29 114
6 162 12 172 22 8 8 39 65 70 128 l57 113 -113 114 c-98 99 -115 112 -129 100
-48 -42 -164 -72 -321 -82 -72 -5 -108 -3 -113 4 -3 6 -9 66 -12 134 -7 145
10 251 50 303 23 30 24 33 8 51 -16 18 -16 18 3 2 19 -16 22 -15 55 13 115
100 407 400 440 454 49 78 73 139 97 247 24 112 25 555 0 631 -21 64 -96 189
-110 180 -6 -3 -7 -1 -3 5 3 6 -4 21 -16 34 -13 13 -33 35 -44 50 l-21 27
-156 -159z m-853 -975 c-4 -8 -8 -15 -10 -15 -2 0 -4 7 -4 15 0 8 4 15 10 15
5 0 7 -7 4 -15z m33 -67 c-3 -8 -6 -5 -6 6 -1 11 2 17 5 13 3 -3 4 -12 1 -19z
m53 7 c0 -2 -10 -10 -22 -16 -21 -11 -22 -11 -9 4 13 16 31 23 31 12z m60 -45
c13 -11 19 -20 13 -20 -5 0 -18 9 -28 20 -10 11 -16 20 -13 20 3 0 15 -9 28
-20z m-15 -29 c-6 -5 -25 10 -25 20 0 5 6 4 14 -3 8 -7 12 -15 11 -17z m-111
-106 c-4 -8 -8 -15 -10 -15 -2 0 -4 7 -4 15 0 8 4 15 10 15 5 0 7 -7 4 -15z
m306 -69 c0 -2 -7 -7 -16 -10 -8 -3 -12 -2 -9 4 6 10 25 14 25 6z m-62 -41
c-3 -3 -9 2 -12 12 -6 14 -5 15 5 6 7 -7 10 -15 7 -18z m172 -291 c0 -8 -19
-13 -24 -6 -3 5 1 9 9 9 8 0 15 -2 15 -3z m-679 -637 c-4 -4 -18 -3 -32 2 -23
9 -22 9 8 8 18 -1 28 -6 24 -10z m-248 -50 c-4 -6 0 -8 11 -4 11 4 15 3 11 -4
-4 -6 -13 -8 -21 -5 -17 7 -18 -6 -2 -22 9 -9 9 -12 0 -12 -13 0 -14 2 -16 41
-1 18 2 25 11 22 7 -3 10 -10 6 -16z m67 19 c0 -2 -8 -10 -17 -17 -16 -13 -17
-12 -4 4 13 16 21 21 21 13z m-74 -104 c-4 -3 -11 0 -16 8 -15 24 -11 33 6 15
9 -9 13 -19 10 -23z m-191 -2 c-3 -5 -12 -10 -18 -10 -7 0 -6 4 3 10 19 12 23
12 15 0z m171 -15 c9 -8 11 -15 5 -15 -5 0 -13 5 -17 11 -4 8 -9 7 -15 -2 -7
-11 -9 -10 -9 4 0 21 16 22 36 2z m-153 -20 c-3 -9 -8 -14 -10 -11 -3 3 -2 9
2 15 9 16 15 13 8 -4z m-26 -37 c-3 -8 -6 -5 -6 6 -1 11 2 17 5 13 3 -3 4 -12
1 -19z m60 -50 c-3 -7 -5 -2 -5 12 0 14 2 19 5 13 2 -7 2 -19 0 -25z m-27 8
c0 -3 -4 -8 -10 -11 -5 -3 -10 -1 -10 4 0 6 5 11 10 11 6 0 10 -2 10 -4z m7
-48 c-3 -7 -5 -2 -5 12 0 14 2 19 5 13 2 -7 2 -19 0 -25z m14 -35 c-12 -20
-14 -14 -5 12 4 9 9 14 11 11 3 -2 0 -13 -6 -23z m229 -689 c0 -2 -9 0 -20 6
-11 6 -20 13 -20 16 0 2 9 0 20 -6 11 -6 20 -13 20 -16z m-1332 -1029 c9 -9
32 -122 32 -160 0 -47 -23 -143 -47 -193 -17 -35 -192 -226 -200 -218 -12 12
21 84 54 118 l37 38 -23 24 c-17 18 -20 30 -15 50 l7 27 32 -31 33 -32 16 24
c24 33 56 143 56 190 0 67 -20 128 -41 128 -19 0 -27 29 -12 44 8 7 62 1 71
-9z"/>
<path d="M2185 6216 c-11 -19 -22 -33 -26 -31 -10 7 -56 -50 -51 -64 3 -8 -1
-11 -9 -8 -8 3 -50 -30 -100 -80 l-87 -85 20 -34 c11 -19 24 -31 29 -28 5 3 6
-3 2 -12 -4 -11 -2 -15 4 -11 6 4 14 0 17 -9 9 -24 7 -31 -5 -14 -8 11 -8 9
-2 -10 4 -14 8 -117 8 -230 0 -180 -2 -209 -18 -239 -10 -18 -14 -30 -8 -27 7
4 8 1 5 -8 -3 -9 -10 -14 -14 -11 -4 3 -18 -12 -30 -32 -12 -20 -64 -77 -116
-126 -51 -49 -91 -94 -87 -100 4 -6 1 -7 -6 -2 -14 8 -54 -29 -43 -41 4 -4 2
-4 -4 -1 -12 7 -57 -35 -49 -46 3 -4 2 -5 -2 -2 -8 6 -128 -107 -125 -118 1
-5 -1 -6 -5 -4 -5 3 -65 -50 -135 -117 l-128 -121 150 -152 c82 -84 153 -153
158 -153 16 0 444 439 437 449 -3 6 0 9 8 5 13 -5 54 43 49 58 -1 4 6 4 15 1
12 -5 15 -2 10 10 -4 12 -2 14 10 10 13 -5 15 -2 10 11 -4 9 -3 15 2 11 13 -7
97 83 93 100 -1 8 2 16 8 20 6 4 7 -1 4 -12 -5 -13 1 -11 21 9 25 24 27 29 14
45 -13 17 -13 17 4 4 16 -13 22 -11 50 18 27 27 30 33 17 42 -12 8 -11 9 6 5
15 -5 29 3 52 29 36 38 40 50 16 41 -14 -5 -15 -4 -4 9 7 8 16 13 20 10 15 -9
22 29 31 150 4 66 11 138 14 160 3 22 2 58 -4 80 -9 36 -9 34 -6 -25 3 -45 2
-57 -4 -40 -13 35 -13 98 -1 105 6 3 14 -4 18 -16 10 -25 7 232 -3 298 -4 28
-14 49 -31 62 -29 23 -32 36 -4 21 11 -6 20 -7 20 -1 0 5 -7 11 -15 15 -8 3
-15 10 -15 16 0 6 5 8 10 5 6 -4 5 5 -2 19 -14 32 -21 33 -38 1 -7 -14 -15
-23 -17 -21 -3 2 3 16 13 30 9 15 14 30 10 34 -4 3 -11 0 -16 -8 -7 -10 -9 -4
-7 22 2 20 0 35 -5 32 -4 -3 -8 -2 -8 3 0 4 -9 23 -21 42 -15 26 -23 31 -29
21 -5 -8 -18 -14 -29 -15 -16 -1 -18 1 -9 12 9 11 13 12 19 1 6 -9 9 -7 9 8 0
11 -10 30 -23 42 l-24 22 -18 -34z m30 -24 c-3 -3 -11 0 -18 7 -9 10 -8 11 6
5 10 -3 15 -9 12 -12z m-60 -32 c-3 -5 -12 -10 -18 -10 -7 0 -6 4 3 10 19 12
23 12 15 0z m115 -65 c7 -8 9 -15 6 -15 -4 0 -14 7 -22 15 -9 8 -11 15 -6 15
5 0 15 -7 22 -15z m80 -149 c0 -3 -4 -8 -10 -11 -5 -3 -10 -1 -10 4 0 6 5 11
10 11 6 0 10 -2 10 -4z m58 -106 c0 -25 -3 -35 -5 -22 -2 12 -10 22 -18 22
-16 0 -25 88 -10 94 16 6 34 -45 33 -94z m10 -75 c-3 -3 -9 2 -12 12 -6 14 -5
15 5 6 7 -7 10 -15 7 -18z m-5 -80 c4 -34 3 -42 -3 -25 -8 25 -13 87 -6 79 2
-2 6 -26 9 -54z m-422 -362 c-12 -20 -14 -14 -5 12 4 9 9 14 11 11 3 -2 0 -13
-6 -23z m354 -103 c0 -37 -10 -26 -19 20 -5 28 -4 32 6 22 7 -7 13 -26 13 -42z
m28 -10 c3 -11 1 -18 -4 -14 -5 3 -9 12 -9 20 0 20 7 17 13 -6z m-38 -90 c-3
-5 -12 -10 -18 -10 -7 0 -6 4 3 10 19 12 23 12 15 0z"/>
<path d="M10011 6224 c0 -11 3 -14 6 -6 3 7 2 16 -1 19 -3 4 -6 -2 -5 -13z"/>
<path d="M10031 6204 c0 -11 3 -14 6 -6 3 7 2 16 -1 19 -3 4 -6 -2 -5 -13z"/>
<path d="M10325 6150 c-7 -11 34 -55 42 -46 4 3 -1 14 -10 24 -10 10 -14 22
-10 25 3 4 1 7 -5 7 -6 0 -13 -4 -17 -10z"/>
<path d="M10161 6114 c0 -11 3 -14 6 -6 3 7 2 16 -1 19 -3 4 -6 -2 -5 -13z"/>
<path d="M2460 6110 c0 -5 5 -10 10 -10 6 0 10 5 10 10 0 6 -4 10 -10 10 -5 0
-10 -4 -10 -10z"/>
<path d="M10325 6094 c3 -13 -1 -27 -12 -35 -15 -12 -16 -12 -10 3 4 12 2 15
-9 11 -18 -7 -18 -19 1 -27 8 -3 25 5 39 19 16 16 20 25 11 25 -7 0 -16 6 -19
13 -3 6 -4 3 -1 -9z"/>
<path d="M10245 6069 c-6 -8 -4 -10 5 -4 10 6 12 4 6 -11 -6 -15 -5 -17 5 -6
9 9 10 15 2 23 -8 8 -13 7 -18 -2z"/>
<path d="M2442 6020 c9 -14 14 -16 20 -7 6 9 8 8 8 -2 0 -8 2 -12 5 -9 3 3 2
13 -1 22 -5 14 -9 15 -15 4 -7 -10 -9 -10 -9 0 0 6 -5 12 -10 12 -6 0 -5 -8 2
-20z"/>
<path d="M10266 6017 c3 -10 9 -15 12 -12 3 3 0 11 -7 18 -10 9 -11 8 -5 -6z"/>
<path d="M10197 6004 c-4 -4 -2 -13 4 -21 9 -10 8 -18 -2 -30 -12 -17 -12 -17
4 -2 13 11 15 22 9 38 -4 12 -11 19 -15 15z"/>
<path d="M2471 5974 c0 -11 3 -14 6 -6 3 7 2 16 -1 19 -3 4 -6 -2 -5 -13z"/>
<path d="M10230 5951 c0 -6 4 -13 10 -16 6 -3 7 1 4 9 -7 18 -14 21 -14 7z"/>
<path d="M1863 5897 c4 -10 3 -15 -2 -12 -6 3 -14 -3 -20 -12 -6 -10 -11 -15
-11 -11 0 6 -270 -260 -270 -267 0 -2 41 -40 90 -84 50 -45 88 -81 86 -81 -3
0 18 -21 47 -47 28 -27 58 -56 65 -66 18 -24 29 -14 63 57 29 60 29 63 29 239
0 104 -4 176 -9 173 -5 -4 -7 2 -4 12 2 11 -1 25 -9 33 -7 8 -14 21 -16 29 -2
8 -13 24 -24 35 -19 18 -20 18 -15 2z"/>
<path d="M2471 5884 c0 -11 3 -14 6 -6 3 7 2 16 -1 19 -3 4 -6 -2 -5 -13z"/>
<path d="M10266 5884 c-9 -24 -7 -28 9 -14 17 14 20 30 6 30 -5 0 -12 -7 -15
-16z"/>
<path d="M10907 5855 c-20 -19 -36 -40 -35 -47 2 -6 -4 -12 -12 -13 -8 -1 -14
-6 -12 -13 1 -7 -1 -11 -6 -9 -13 4 -54 -41 -48 -52 4 -6 1 -9 -6 -6 -7 3 -40
-22 -72 -55 -50 -49 -57 -60 -42 -66 10 -4 23 -1 29 6 10 10 8 12 -7 6 -16 -5
-17 -4 -6 9 15 18 19 16 25 -14 2 -12 0 -19 -5 -16 -5 3 -11 1 -14 -3 -5 -9
62 -81 77 -82 4 0 7 -3 6 -6 -2 -10 53 -64 61 -59 3 2 12 -1 20 -7 12 -8 11
-8 -5 -3 -12 3 5 -19 39 -54 l60 -60 22 32 c71 106 87 256 43 407 -13 43 -60
140 -68 140 -3 0 -23 -16 -44 -35z"/>
<path d="M2811 5854 c0 -11 3 -14 6 -6 3 7 2 16 -1 19 -3 4 -6 -2 -5 -13z"/>
<path d="M2831 5854 c0 -11 3 -14 6 -6 3 7 2 16 -1 19 -3 4 -6 -2 -5 -13z"/>
<path d="M10295 5849 c4 -6 13 -8 20 -5 8 3 19 -3 27 -11 11 -14 11 -16 -2
-11 -12 4 -15 -2 -16 -27 0 -31 1 -32 22 -23 33 15 36 33 8 59 -25 24 -71 38
-59 18z m60 -56 c-9 -8 -18 -13 -21 -10 -8 8 19 36 29 30 4 -2 0 -11 -8 -20z"/>
<path d="M2482 5780 c0 -14 2 -19 5 -12 2 6 2 18 0 25 -3 6 -5 1 -5 -13z"/>
<path d="M10380 5782 c-9 -10 -12 -40 -11 -98 2 -84 2 -84 -23 -84 -24 0 -26
-4 -26 -40 0 -29 4 -40 15 -40 11 0 15 -11 15 -40 0 -38 -2 -40 -30 -40 l-30
0 0 -76 c0 -58 4 -80 16 -88 16 -12 9 -50 -8 -40 -6 4 -5 10 3 15 19 12 2 24
-34 24 -19 1 -31 6 -30 13 2 7 -4 9 -15 5 -16 -6 -16 -5 -1 13 16 19 22 54 9
54 -4 0 -13 -7 -20 -15 -11 -13 -10 -14 6 -8 17 6 17 5 5 -11 -8 -9 -21 -14
-29 -11 -24 9 6 -24 48 -51 19 -13 45 -31 58 -40 13 -10 22 -12 20 -7 -2 6 0
11 5 12 21 3 27 0 27 -14 0 -8 -5 -15 -10 -15 -6 0 -5 -6 2 -14 13 -14 33 -12
24 3 -3 3 3 7 13 7 10 0 18 -6 18 -12 0 -7 -6 -10 -14 -7 -25 10 -13 -15 21
-41 19 -14 41 -23 49 -20 8 3 18 1 22 -5 3 -7 0 -8 -9 -5 -31 12 -15 -6 55
-60 39 -31 75 -53 80 -50 5 3 9 -1 9 -10 0 -8 7 -13 15 -12 21 3 186 182 177
191 -4 5 -2 6 3 2 6 -3 33 17 60 45 39 41 47 53 38 67 -6 9 -16 15 -23 13 -6
-1 -9 1 -6 6 8 13 -40 55 -53 48 -6 -4 -9 -1 -6 6 3 7 -21 38 -52 68 -30 30
-53 50 -50 45 3 -6 -3 -11 -13 -11 -15 0 -16 3 -8 14 9 10 3 21 -27 50 -21 20
-34 31 -30 23 6 -10 4 -12 -4 -7 -6 4 -18 2 -26 -4 -8 -7 -15 -9 -15 -5 0 4 8
14 18 21 15 12 10 20 -59 89 -71 72 -77 76 -93 60 -9 -10 -20 -15 -23 -11 -4
3 2 12 12 20 18 13 18 16 -16 53 -30 33 -37 37 -49 25z m51 -42 c15 -14 14
-17 -6 -32 -21 -16 -22 -16 -19 10 1 14 -2 35 -7 46 -9 18 -8 19 3 6 7 -8 20
-22 29 -30z m81 -82 c16 -15 16 -17 -10 -34 l-27 -17 20 23 c17 20 17 22 3 17
-12 -4 -15 -2 -12 7 3 8 1 17 -5 21 -6 3 -11 11 -11 18 0 6 5 4 13 -4 6 -9 20
-22 29 -31z m-88 -43 c-6 -16 -24 -21 -24 -7 0 11 11 22 21 22 5 0 6 -7 3 -15z
m176 -49 c0 -1 -8 -2 -18 -2 -11 0 -18 9 -18 23 l-2 24 19 -22 c10 -12 19 -23
19 -23z m70 -61 c0 -1 -6 -7 -13 -13 -10 -8 -13 -6 -13 7 0 11 6 17 13 14 7
-3 13 -6 13 -8z m-380 -245 c0 -5 -4 -10 -9 -10 -6 0 -13 5 -16 10 -3 6 1 10
9 10 9 0 16 -4 16 -10z m360 -256 c0 -8 -19 -13 -24 -6 -3 5 1 9 9 9 8 0 15
-2 15 -3z"/>
<path d="M2573 5720 c0 -25 2 -35 4 -22 2 12 2 32 0 45 -2 12 -4 2 -4 -23z"/>
<path d="M2603 5720 c0 -25 2 -35 4 -22 2 12 2 32 0 45 -2 12 -4 2 -4 -23z"/>
<path d="M4684 5705 c-90 -19 -192 -63 -249 -106 -77 -59 -134 -156 -135 -229
0 -13 2 -13 11 0 9 12 10 12 5 -4 -8 -23 11 -86 25 -86 6 0 7 -5 4 -11 -4 -5
1 -19 11 -30 14 -15 20 -17 27 -7 6 9 7 8 3 -4 -3 -11 5 -26 24 -42 47 -39
139 -88 151 -80 7 4 9 3 5 -4 -12 -20 161 -52 285 -52 123 0 192 8 184 20 -3
5 4 6 16 3 12 -4 32 3 51 17 17 12 27 17 23 10 -11 -18 28 -4 100 35 67 37
148 113 141 132 -3 7 0 15 6 19 7 5 8 2 3 -6 -5 -8 -4 -11 3 -6 6 3 16 31 22
61 33 160 -103 302 -349 364 -99 25 -269 28 -367 6z m616 -499 c0 -2 -8 -10
-17 -17 -16 -13 -17 -12 -4 4 13 16 21 21 21 13z m-503 -142 c-3 -3 -12 -4
-19 -1 -8 3 -5 6 6 6 11 1 17 -2 13 -5z"/>
<path d="M7916 5704 c-38 -8 -99 -29 -134 -45 -80 -36 -175 -107 -168 -125 3
-8 0 -13 -6 -11 -21 4 -58 -83 -58 -137 0 -50 34 -145 47 -133 3 4 0 15 -8 24
-13 16 -12 17 4 4 10 -8 15 -21 12 -31 -14 -43 211 -181 269 -164 15 4 17 3 8
-4 -24 -16 25 -23 202 -29 123 -4 167 -3 162 6 -4 7 -2 9 7 5 17 -6 127 21
136 33 3 4 15 10 26 12 37 6 143 84 178 130 63 84 72 153 33 236 -44 93 -148
170 -291 215 -94 30 -317 37 -419 14z m81 -10 c-3 -3 -12 -4 -19 -1 -8 3 -5 6
6 6 11 1 17 -2 13 -5z m-341 -159 c17 -16 14 -18 -10 -9 -9 3 -16 10 -16 15 0
13 9 11 26 -6z m49 -353 c-3 -3 -11 0 -18 7 -9 10 -8 11 6 5 10 -3 15 -9 12
-12z"/>
<path d="M2577 5603 c-4 -3 -7 -24 -7 -45 0 -21 -4 -38 -10 -38 -5 0 -10 -18
-10 -40 0 -71 16 -43 26 45 5 47 9 85 8 85 0 0 -4 -3 -7 -7z"/>
<path d="M2603 5560 c0 -25 2 -35 4 -22 2 12 2 32 0 45 -2 12 -4 2 -4 -23z"/>
<path d="M10061 5584 c0 -11 3 -14 6 -6 3 7 2 16 -1 19 -3 4 -6 -2 -5 -13z"/>
<path d="M10270 5560 c0 -22 5 -40 10 -40 6 0 10 18 10 40 0 22 -4 40 -10 40
-5 0 -10 -18 -10 -40z"/>
<path d="M824 5545 c-6 -24 62 -393 88 -479 l12 -38 113 118 113 119 -98 98
c-53 53 -125 122 -159 153 l-62 55 -7 -26z"/>
<path d="M2841 5554 c0 -11 3 -14 6 -6 3 7 2 16 -1 19 -3 4 -6 -2 -5 -13z"/>
<path d="M2861 5534 c0 -11 3 -14 6 -6 3 7 2 16 -1 19 -3 4 -6 -2 -5 -13z"/>
<path d="M2473 5453 c-1 -21 -2 -75 -3 -121 -1 -53 -5 -80 -12 -76 -7 4 -8 -7
-4 -32 3 -25 0 -50 -9 -69 -13 -26 -14 -27 -9 -5 4 19 3 22 -5 10 -6 -8 -11
-22 -11 -31 0 -8 -13 -28 -29 -43 -16 -16 -28 -33 -27 -40 2 -6 1 -7 -2 -3 -6
12 -51 -32 -48 -47 2 -6 1 -7 -2 -3 -2 5 -13 1 -23 -9 -10 -9 -16 -21 -12 -27
3 -6 1 -7 -6 -3 -6 4 -14 0 -17 -9 -9 -22 5 -33 17 -15 9 13 10 12 6 -2 -6
-18 25 -52 37 -41 4 4 4 0 1 -8 -4 -11 4 -21 25 -31 l31 -15 -40 -10 c-39 -10
-42 -10 -84 32 l-44 42 -157 -157 c-129 -129 -154 -159 -142 -169 7 -6 24 -34
35 -62 18 -41 25 -91 38 -265 l15 -214 -26 -35 c-15 -20 -119 -126 -231 -237
-186 -183 -203 -203 -193 -222 23 -44 202 -322 219 -340 17 -19 19 -18 70 40
28 32 140 147 248 254 251 249 283 289 330 414 17 46 21 78 20 152 -1 67 -5
92 -13 87 -6 -3 -8 -3 -4 2 4 4 2 15 -5 24 -10 14 -10 14 4 3 14 -11 17 -9 17
13 0 13 -4 22 -8 20 -5 -3 -3 6 3 20 8 16 20 25 35 25 27 0 27 -4 1 -40 -24
-31 -20 -59 9 -66 15 -4 17 -17 15 -95 -1 -50 -7 -105 -13 -123 -6 -18 -8 -42
-4 -52 4 -14 3 -15 -4 -6 -7 11 -11 8 -16 -13 -4 -14 -4 -31 0 -37 4 -6 3 -8
-3 -5 -6 4 -25 -17 -43 -46 -38 -59 -113 -151 -149 -183 l-24 -21 36 -27 c39
-30 51 -31 230 -28 l117 2 0 240 c0 232 1 240 21 250 11 7 23 9 25 7 3 -3 6
-127 7 -276 l2 -271 -135 -2 c-247 -5 -232 -6 -293 34 l-55 37 -147 -151 -147
-150 41 -38 c52 -49 162 -112 254 -146 81 -31 105 -31 640 -26 l267 2 0 421
c0 370 -2 420 -15 415 -31 -12 -13 6 20 20 51 21 58 19 52 -16 -4 -16 -3 -30
2 -30 4 0 7 -15 5 -32 -1 -18 -4 -199 -5 -403 l-3 -370 26 -3 c25 -3 26 0 38
70 6 40 25 129 41 197 17 68 28 130 25 138 -3 8 -2 12 3 9 5 -3 15 20 23 52
12 49 12 62 1 91 -18 44 -8 53 11 10 8 -20 15 -27 15 -16 1 9 1 19 1 22 0 3 9
25 20 51 24 55 25 64 6 64 -8 0 -18 5 -22 12 -5 8 -2 9 10 5 15 -6 15 -5 -1
16 -9 13 -26 23 -36 23 -11 -1 -21 5 -23 12 -1 7 0 8 3 2 2 -5 12 -10 21 -10
13 0 14 2 4 9 -11 7 -11 9 2 14 10 4 16 1 16 -8 0 -8 4 -15 10 -15 5 0 16 -12
25 -27 15 -27 16 -27 9 -3 -3 14 -10 30 -15 36 -5 7 2 23 19 42 23 25 31 29
42 19 10 -10 12 -9 7 5 -3 9 2 23 12 32 15 14 18 13 30 -5 9 -15 19 -19 35
-15 18 4 26 0 34 -19 14 -30 54 -41 103 -28 26 7 41 7 48 0 7 -7 25 -4 54 7
57 21 75 14 79 -32 2 -29 9 -40 31 -50 24 -12 35 -12 75 1 26 9 47 15 49 14 1
-1 72 -284 159 -627 l156 -625 -21 -110 c-12 -60 -31 -138 -44 -172 l-22 -61
-340 210 c-187 116 -418 259 -514 318 l-175 108 0 65 c-1 36 2 63 7 60 4 -2 7
3 7 11 0 9 -9 16 -20 16 -18 0 -20 -6 -17 -47 1 -27 6 -54 11 -62 7 -10 6 -12
-4 -6 -10 6 -12 4 -7 -8 6 -16 4 -16 -23 -2 -28 14 -30 20 -30 70 l0 55 -32 0
c-18 0 -277 1 -576 2 -298 2 -542 1 -542 -2 1 -9 180 -223 266 -316 l83 -91
113 -7 c147 -9 185 -19 229 -66 43 -45 49 -70 49 -204 l1 -101 55 -45 c31 -25
63 -52 73 -61 28 -26 269 -209 275 -209 3 0 6 66 7 148 l1 147 29 -85 c23 -68
29 -101 29 -171 l0 -87 98 -70 c222 -160 656 -399 888 -490 l51 -21 69 70 68
69 -17 30 c-47 79 -60 140 -61 282 -1 75 2 134 6 132 5 -3 8 4 8 15 0 11 25
67 55 125 30 57 52 106 49 109 -8 7 5 47 15 47 4 0 13 -26 20 -57 7 -32 15
-66 17 -75 4 -12 -1 -16 -15 -15 -11 0 -18 4 -16 7 2 3 0 12 -4 19 -12 19 -51
-80 -73 -189 -23 -110 -20 -214 9 -295 36 -101 33 -101 122 -6 73 79 78 82 84
60 4 -13 7 -27 7 -30 0 -8 -28 -39 -123 -140 -45 -47 -101 -106 -125 -132
l-43 -47 28 -11 c126 -50 329 -124 433 -158 215 -71 731 -193 747 -177 4 3
-16 32 -43 63 -348 406 -712 1123 -979 1928 -120 362 -263 894 -340 1261 l-28
132 -176 6 c-97 3 -227 9 -288 12 l-113 6 38 72 c49 94 132 204 222 293 44 45
67 74 58 77 -7 2 -55 14 -106 25 -186 44 -332 122 -494 264 -57 50 -70 58 -83
47 -8 -7 -15 -27 -15 -44 l0 -31 -19 24 c-12 15 -23 21 -31 16 -9 -6 -12 -4
-8 7 4 8 0 15 -8 15 -7 0 -11 -4 -8 -9 3 -4 -2 -5 -10 -2 -8 3 -34 7 -58 8
-32 1 -42 6 -40 16 1 10 -2 9 -12 -3 -8 -11 -12 -26 -9 -35 4 -15 3 -15 -6 -2
-6 8 -8 24 -6 35 3 11 2 14 -1 7 -3 -6 -10 -9 -15 -6 -6 3 -3 -10 4 -29 l15
-35 -38 16 c-32 14 -35 18 -21 28 12 10 1 11 -54 8 -43 -3 -63 -1 -51 4 19 8
19 9 -1 14 -16 4 -23 15 -26 44 -2 22 -3 16 -1 -13 2 -41 0 -51 -12 -46 -8 3
-14 -1 -14 -8 0 -10 -2 -11 -8 -2 -4 7 -14 -3 -26 -28 -24 -49 -36 -50 -37 -1
-7 280 -11 366 -18 412 -5 35 -7 -14 -4 -140 2 -107 6 -203 9 -212 3 -10 1
-18 -5 -18 -15 0 -22 36 -19 110 4 101 -1 230 -9 229 -42 -7 -53 2 -53 41 0
22 -4 40 -10 40 -5 0 -10 11 -10 25 0 40 -16 29 -17 -12z m21 -78 c5 -22 4
-26 -4 -15 -5 8 -10 24 -10 34 0 26 6 18 14 -19z m-7 -77 c-3 -7 -5 -2 -5 12
0 14 2 19 5 13 2 -7 2 -19 0 -25z m73 1 c0 -5 -4 -9 -10 -9 -5 0 -10 7 -10 16
0 8 5 12 10 9 6 -3 10 -10 10 -16z m4 -80 c9 -92 8 -99 -13 -99 -16 0 -20 9
-23 58 -4 74 0 102 16 102 9 0 15 -21 20 -61z m-87 -1 c-3 -8 -6 -5 -6 6 -1
11 2 17 5 13 3 -3 4 -12 1 -19z m-2 -77 c0 -16 -3 -27 -7 -24 -13 7 -7 53 6
53 1 0 1 -13 1 -29z m-21 -67 c5 -14 4 -15 -9 -4 -17 14 -19 20 -6 20 5 0 12
-7 15 -16z m-17 -30 c-3 -3 -12 -4 -19 -1 -8 3 -5 6 6 6 11 1 17 -2 13 -5z
m130 -36 c-3 -8 -6 -5 -6 6 -1 11 2 17 5 13 3 -3 4 -12 1 -19z m-177 -20 c0
-12 -3 -18 -7 -15 -3 4 -12 2 -20 -4 -10 -9 -13 -8 -13 5 0 10 5 14 10 11 6
-3 13 1 16 9 9 22 14 20 14 -6z m202 -10 c-9 -9 -12 -7 -12 12 0 19 3 21 12
12 9 -9 9 -15 0 -24z m-165 -37 c1 -11 -6 -25 -15 -32 -14 -11 -15 -11 -4 1 6
8 12 18 12 23 0 4 -6 5 -12 1 -9 -5 -9 -2 1 9 17 21 16 21 18 -2z m53 12 c-8
-3 -21 -12 -27 -21 -12 -14 -13 -14 -13 0 0 17 14 26 40 26 13 0 13 0 0 -5z
m10 -17 c0 -2 -7 -7 -16 -10 -8 -3 -12 -2 -9 4 6 10 25 14 25 6z m-80 -86
c-12 -8 -12 -10 -1 -10 8 0 12 -3 8 -6 -9 -9 -28 6 -22 17 4 5 12 9 18 9 7 0
6 -4 -3 -10z m-250 -14 c0 -2 -8 -10 -17 -17 -16 -13 -17 -12 -4 4 13 16 21
21 21 13z m60 -132 c0 -8 -19 -13 -24 -6 -3 5 1 9 9 9 8 0 15 -2 15 -3z m5
-133 c3 -5 2 -12 -3 -15 -5 -3 -9 1 -9 9 0 17 3 19 12 6z m42 -203 c-3 -8 -6
-5 -6 6 -1 11 2 17 5 13 3 -3 4 -12 1 -19z m30 -92 c-3 -7 0 -20 6 -27 10 -11
9 -11 -5 0 -15 11 -15 41 -1 41 3 0 3 -6 0 -14z m-39 -16 c-7 -10 -14 -17 -17
-15 -4 4 18 35 25 35 2 0 -1 -9 -8 -20z m452 -275 c7 -9 8 -15 2 -15 -5 0 -12
7 -16 15 -3 8 -4 15 -2 15 2 0 9 -7 16 -15z m-15 -25 c3 -5 1 -10 -4 -10 -6 0
-11 5 -11 10 0 6 2 10 4 10 3 0 8 -4 11 -10z m-175 -10 c8 -5 11 -10 5 -10 -5
0 -17 5 -25 10 -8 5 -10 10 -5 10 6 0 17 -5 25 -10z m394 -9 c2 -3 -6 -6 -18
-6 -13 0 -23 5 -23 11 0 11 34 7 41 -5z m-107 -6 c0 -8 -4 -12 -9 -9 -5 3 -6
10 -3 15 9 13 12 11 12 -6z m-32 -5 c3 -6 -1 -7 -9 -4 -18 7 -21 14 -7 14 6 0
13 -4 16 -10z m180 -46 c8 3 15 1 15 -4 0 -6 -5 -10 -11 -10 -19 0 -69 34 -69
47 0 7 11 1 25 -13 15 -14 32 -23 40 -20z m91 34 c4 -7 4 -10 -1 -6 -4 4 -13
4 -19 -1 -14 -10 -52 -24 -43 -15 5 5 32 22 54 33 1 1 5 -5 9 -11z m-96 -8 c8
-5 11 -10 5 -10 -5 0 -17 5 -25 10 -8 5 -10 10 -5 10 6 0 17 -5 25 -10z m125
-20 c3 -6 -1 -7 -9 -4 -18 7 -21 14 -7 14 6 0 13 -4 16 -10z m-20 -20 c-3 -5
-14 -10 -23 -9 -14 0 -13 2 3 9 27 11 27 11 20 0z m-91 -19 c4 -5 -3 -7 -14
-4 -23 6 -26 13 -6 13 8 0 17 -4 20 -9z m113 -73 c-2 -13 -4 -3 -4 22 0 25 2
35 4 23 2 -13 2 -33 0 -45z m111 -4 c-4 -3 -12 5 -18 18 -12 22 -12 22 6 6 10
-10 15 -20 12 -24z m154 -106 c-5 -7 -12 -22 -15 -33 -4 -16 -5 -15 -6 6 -1
27 6 39 22 39 6 0 5 -5 -1 -12z m-45 -160 c-3 -7 -5 -2 -5 12 0 14 2 19 5 13
2 -7 2 -19 0 -25z"/>
<path d="M10050 5436 c7 -7 13 -7 20 0 6 6 3 10 -10 10 -13 0 -16 -4 -10 -10z"/>
<path d="M2704 5320 c0 -69 1 -97 3 -62 2 34 2 90 0 125 -2 34 -3 6 -3 -63z"/>
<path d="M10175 5350 c3 -5 8 -10 11 -10 2 0 4 5 4 10 0 6 -5 10 -11 10 -5 0
-7 -4 -4 -10z"/>
<path d="M10040 5325 c7 -8 17 -15 22 -15 6 0 5 7 -2 15 -7 8 -17 15 -22 15
-6 0 -5 -7 2 -15z"/>
<path d="M10110 5285 c14 -16 26 -32 28 -34 1 -2 4 -2 7 1 3 2 -10 18 -28 34
l-32 29 25 -30z"/>
<path d="M9971 5270 c14 -31 19 -36 19 -24 0 6 -7 19 -16 30 -14 18 -14 18 -3
-6z"/>
<path d="M10166 5235 c4 -8 11 -15 16 -15 5 0 7 -14 4 -32 l-6 -33 13 30 c12
27 12 32 -6 48 -24 21 -28 21 -21 2z"/>
<path d="M10125 5230 c3 -5 10 -10 16 -10 5 0 9 5 9 10 0 6 -7 10 -16 10 -8 0
-12 -4 -9 -10z"/>
<path d="M1064 5104 c-65 -69 -121 -127 -123 -129 -2 -2 2 -28 9 -57 11 -48
24 -64 118 -160 58 -60 110 -108 115 -108 10 0 72 57 199 181 43 42 78 74 78
71 0 -3 9 3 19 12 18 17 15 21 -108 140 -69 68 -140 135 -157 149 l-30 26
-120 -125z"/>
<path d="M2441 5194 c0 -11 3 -14 6 -6 3 7 2 16 -1 19 -3 4 -6 -2 -5 -13z"/>
<path d="M10167 5203 c-4 -3 -7 -15 -7 -26 0 -11 -7 -29 -17 -39 -15 -17 -15
-18 0 -18 10 0 20 -1 24 -2 4 -2 7 18 8 45 0 26 0 47 -1 47 0 0 -4 -3 -7 -7z"/>
<path d="M9906 5187 c3 -10 9 -15 12 -12 3 3 0 11 -7 18 -10 9 -11 8 -5 -6z"/>
<path d="M2670 5075 c0 -25 5 -45 10 -45 6 0 10 20 10 45 0 25 -4 45 -10 45
-5 0 -10 -20 -10 -45z"/>
<path d="M9785 5040 c-3 -6 1 -7 9 -4 18 7 21 14 7 14 -6 0 -13 -4 -16 -10z"/>
<path d="M2950 5030 c-9 -6 -10 -10 -3 -10 6 0 15 5 18 10 8 12 4 12 -15 0z"/>
<path d="M9822 5014 c-7 -8 -8 -14 -3 -14 10 0 25 19 20 25 -2 1 -10 -3 -17
-11z"/>
<path d="M2850 4996 c0 -2 7 -7 16 -10 8 -3 12 -2 9 4 -6 10 -25 14 -25 6z"/>
<path d="M9816 4967 c3 -10 9 -15 12 -12 3 3 0 11 -7 18 -10 9 -11 8 -5 -6z"/>
<path d="M9948 4953 c7 -3 16 -2 19 1 4 3 -2 6 -13 5 -11 0 -14 -3 -6 -6z"/>
<path d="M11227 4819 c-37 -39 -64 -76 -60 -82 3 -5 1 -7 -4 -4 -6 4 -46 -26
-90 -67 l-78 -75 25 -23 c13 -13 28 -22 33 -20 5 1 6 -1 3 -6 -3 -5 11 -24 32
-42 20 -18 134 -129 253 -247 l216 -214 63 148 c35 81 74 177 87 213 l24 64
-213 213 c-117 117 -216 213 -219 213 -3 0 -36 -32 -72 -71z"/>
<path d="M10497 4864 c3 -7 9 -14 14 -14 14 0 10 17 -5 23 -10 4 -13 1 -9 -9z"/>
<path d="M1005 4735 c4 -11 14 -42 22 -70 87 -290 388 -955 468 -1035 l20 -20
155 155 155 155 -161 163 c-484 490 -666 670 -659 652z"/>
<path d="M11747 4632 c-26 -26 -47 -52 -47 -58 0 -12 48 -60 53 -53 10 11 54
159 48 159 -4 0 -28 -22 -54 -48z"/>
<path d="M10934 4535 c-36 -55 -52 -191 -37 -313 l6 -54 86 7 c112 9 208 30
250 56 l34 21 -44 43 c-24 24 -48 41 -53 37 -5 -3 -6 0 -3 5 7 10 -21 42 -30
35 -3 -2 -8 0 -11 4 -4 4 0 4 8 -1 9 -5 11 -4 5 1 -5 6 -51 49 -102 98 l-91
88 -18 -27z"/>
<path d="M1713 4404 c-79 -80 -143 -149 -143 -152 0 -10 284 -292 295 -292 5
0 25 20 43 44 l32 43 -14 174 c-8 96 -16 193 -19 216 -4 45 -32 97 -47 88 -6
-3 -7 1 -4 9 3 9 5 16 3 16 -2 -1 -68 -66 -146 -146z"/>
<path d="M3372 3799 c-8 -12 -8 -19 -2 -19 5 0 10 6 10 13 0 9 3 8 9 -2 5 -7
11 -9 14 -5 3 5 -1 14 -7 20 -10 9 -16 7 -24 -7z"/>
<path d="M1831 3160 c-21 -29 -21 -31 -4 -57 10 -16 22 -33 28 -40 5 -6 21
-25 34 -42 l23 -31 132 0 131 1 -67 29 c-79 34 -162 86 -216 134 l-39 35 -22
-29z"/>
<path d="M10742 2916 l83 -44 23 26 c53 63 55 62 -73 62 l-116 0 83 -44z"/>
<path d="M2478 2354 c73 -71 139 -132 147 -137 12 -6 14 6 14 75 -1 139 -37
172 -199 184 l-94 7 132 -129z"/>
<path d="M10273 2440 l-43 -19 0 -93 0 -92 48 46 c26 25 74 71 107 102 49 46
57 58 45 66 -25 16 -112 11 -157 -10z"/>
</g>
</svg>
